<?xml version="1.0" encoding="UTF-8" standalone="no"?>
<!DOCTYPE svg PUBLIC "-//W3C//DTD SVG 1.1//EN"
 "http://www.w3.org/Graphics/SVG/1.1/DTD/svg11.dtd">
<!-- Generated by graphviz version 14.1.5 (20260411.2331)
 -->
<!-- Pages: 1 -->
<svg width="931pt" height="734pt"
 viewBox="7.00 7.00 923.00 727.00" xmlns="http://www.w3.org/2000/svg" xmlns:xlink="http://www.w3.org/1999/xlink">
<g id="graph0" class="graph" transform="scale(0.42328 0.42328) rotate(0) translate(21.01 1714.01)">
<polygon fill="white" stroke="none" points="-4,4 -4,-1697 2160.5,-1697 2160.5,4 -4,4"/>
<!-- anaerobic -->
<g id="node1" class="node">
<title>anaerobic</title>
<path fill="none" stroke="black" d="M1032,-913C1032,-913 912,-913 912,-913 906,-913 900,-907 900,-901 900,-901 900,-853 900,-853 900,-847 906,-841 912,-841 912,-841 1032,-841 1032,-841 1038,-841 1044,-847 1044,-853 1044,-853 1044,-901 1044,-901 1044,-907 1038,-913 1032,-913"/>
<text xml:space="preserve" text-anchor="middle" x="972" y="-869.27" font-family="Tsukushi A Round Gothic Bold" font-size="18.00">嫌気代謝</text>
</g>
<!-- lactate -->
<g id="node16" class="node">
<title>lactate</title>
<path fill="none" stroke="black" d="M1228.25,-913C1228.25,-913 1108.25,-913 1108.25,-913 1102.25,-913 1096.25,-907 1096.25,-901 1096.25,-901 1096.25,-853 1096.25,-853 1096.25,-847 1102.25,-841 1108.25,-841 1108.25,-841 1228.25,-841 1228.25,-841 1234.25,-841 1240.25,-847 1240.25,-853 1240.25,-853 1240.25,-901 1240.25,-901 1240.25,-907 1234.25,-913 1228.25,-913"/>
<text xml:space="preserve" text-anchor="middle" x="1168.25" y="-869.27" font-family="Tsukushi A Round Gothic Bold" font-size="18.00">乳酸増加</text>
</g>
<!-- anaerobic&#45;&gt;lactate -->
<g id="edge9" class="edge">
<title>anaerobic&#45;&gt;lactate</title>
<path fill="none" stroke="#7f7f7f" stroke-width="1.4" d="M1044.24,-877C1044.24,-877 1078.72,-877 1078.72,-877"/>
<polygon fill="#7f7f7f" stroke="#7f7f7f" stroke-width="1.4" points="1078.72,-882.25 1093.72,-877 1078.72,-871.75 1078.72,-882.25"/>
</g>
<!-- sensory_deficit -->
<g id="node2" class="node">
<title>sensory_deficit</title>
<path fill="none" stroke="black" d="M1964.5,-187C1964.5,-187 1844.5,-187 1844.5,-187 1838.5,-187 1832.5,-181 1832.5,-175 1832.5,-175 1832.5,-127 1832.5,-127 1832.5,-121 1838.5,-115 1844.5,-115 1844.5,-115 1964.5,-115 1964.5,-115 1970.5,-115 1976.5,-121 1976.5,-127 1976.5,-127 1976.5,-175 1976.5,-175 1976.5,-181 1970.5,-187 1964.5,-187"/>
<text xml:space="preserve" text-anchor="middle" x="1904.5" y="-143.28" font-family="Tsukushi A Round Gothic Bold" font-size="18.00">感覚障害</text>
</g>
<!-- adl -->
<g id="node14" class="node">
<title>adl</title>
<path fill="none" stroke="black" d="M2144.5,-647C2144.5,-647 2024.5,-647 2024.5,-647 2018.5,-647 2012.5,-641 2012.5,-635 2012.5,-635 2012.5,-587 2012.5,-587 2012.5,-581 2018.5,-575 2024.5,-575 2024.5,-575 2144.5,-575 2144.5,-575 2150.5,-575 2156.5,-581 2156.5,-587 2156.5,-587 2156.5,-635 2156.5,-635 2156.5,-641 2150.5,-647 2144.5,-647"/>
<text xml:space="preserve" text-anchor="middle" x="2084.5" y="-603.27" font-family="Tsukushi A Round Gothic Bold" font-size="18.00">ADL低下</text>
</g>
<!-- sensory_deficit&#45;&gt;adl -->
<g id="edge68" class="edge">
<title>sensory_deficit&#45;&gt;adl</title>
<path fill="none" stroke="#7f7f7f" stroke-width="1.4" d="M1976.73,-151C2039.52,-151 2120.5,-151 2120.5,-151 2120.5,-151 2120.5,-557.4 2120.5,-557.4"/>
<polygon fill="#7f7f7f" stroke="#7f7f7f" stroke-width="1.4" points="2115.25,-557.4 2120.5,-572.4 2125.75,-557.4 2115.25,-557.4"/>
</g>
<!-- urine -->
<g id="node3" class="node">
<title>urine</title>
<path fill="none" stroke="black" d="M1604.5,-135C1604.5,-135 1484.5,-135 1484.5,-135 1478.5,-135 1472.5,-129 1472.5,-123 1472.5,-123 1472.5,-75 1472.5,-75 1472.5,-69 1478.5,-63 1484.5,-63 1484.5,-63 1604.5,-63 1604.5,-63 1610.5,-63 1616.5,-69 1616.5,-75 1616.5,-75 1616.5,-123 1616.5,-123 1616.5,-129 1610.5,-135 1604.5,-135"/>
<text xml:space="preserve" text-anchor="middle" x="1544.5" y="-91.28" font-family="Tsukushi A Round Gothic Bold" font-size="18.00">尿量減少</text>
</g>
<!-- ischemia -->
<g id="node4" class="node">
<title>ischemia</title>
<path fill="none" stroke="black" d="M852,-711C852,-711 732,-711 732,-711 726,-711 720,-705 720,-699 720,-699 720,-651 720,-651 720,-645 726,-639 732,-639 732,-639 852,-639 852,-639 858,-639 864,-645 864,-651 864,-651 864,-699 864,-699 864,-705 858,-711 852,-711"/>
<text xml:space="preserve" text-anchor="middle" x="792" y="-667.27" font-family="Tsukushi A Round Gothic Bold" font-size="18.00">心筋虚血</text>
</g>
<!-- ischemia&#45;&gt;anaerobic -->
<g id="edge45" class="edge">
<title>ischemia&#45;&gt;anaerobic</title>
<path fill="none" stroke="#7f7f7f" stroke-width="1.4" d="M815.5,-711.11C815.5,-769.22 815.5,-877 815.5,-877 815.5,-877 882.59,-877 882.59,-877"/>
<polygon fill="#7f7f7f" stroke="#7f7f7f" stroke-width="1.4" points="882.59,-882.25 897.59,-877 882.59,-871.75 882.59,-882.25"/>
</g>
<!-- consciousness -->
<g id="node7" class="node">
<title>consciousness</title>
<path fill="none" stroke="black" d="M1784.5,-495C1784.5,-495 1664.5,-495 1664.5,-495 1658.5,-495 1652.5,-489 1652.5,-483 1652.5,-483 1652.5,-435 1652.5,-435 1652.5,-429 1658.5,-423 1664.5,-423 1664.5,-423 1784.5,-423 1784.5,-423 1790.5,-423 1796.5,-429 1796.5,-435 1796.5,-435 1796.5,-483 1796.5,-483 1796.5,-489 1790.5,-495 1784.5,-495"/>
<text xml:space="preserve" text-anchor="middle" x="1724.5" y="-451.27" font-family="Tsukushi A Round Gothic Bold" font-size="18.00">意識レベル低下</text>
</g>
<!-- ischemia&#45;&gt;consciousness -->
<g id="edge51" class="edge">
<title>ischemia&#45;&gt;consciousness</title>
<path fill="none" stroke="#7f7f7f" stroke-width="1.4" d="M806.5,-638.94C806.5,-584.01 806.5,-485.67 806.5,-485.67 806.5,-485.67 1634.96,-485.67 1634.96,-485.67"/>
<polygon fill="#7f7f7f" stroke="#7f7f7f" stroke-width="1.4" points="1634.96,-490.92 1649.96,-485.67 1634.96,-480.42 1634.96,-490.92"/>
</g>
<!-- dyspnea -->
<g id="node11" class="node">
<title>dyspnea</title>
<path fill="none" stroke="black" d="M1784.5,-1216C1784.5,-1216 1664.5,-1216 1664.5,-1216 1658.5,-1216 1652.5,-1210 1652.5,-1204 1652.5,-1204 1652.5,-1156 1652.5,-1156 1652.5,-1150 1658.5,-1144 1664.5,-1144 1664.5,-1144 1784.5,-1144 1784.5,-1144 1790.5,-1144 1796.5,-1150 1796.5,-1156 1796.5,-1156 1796.5,-1204 1796.5,-1204 1796.5,-1210 1790.5,-1216 1784.5,-1216"/>
<text xml:space="preserve" text-anchor="middle" x="1724.5" y="-1172.28" font-family="Tsukushi A Round Gothic Bold" font-size="18.00">呼吸困難</text>
</g>
<!-- ischemia&#45;&gt;dyspnea -->
<g id="edge48" class="edge">
<title>ischemia&#45;&gt;dyspnea</title>
<path fill="none" stroke="#7f7f7f" stroke-width="1.4" d="M767.5,-711.13C767.5,-830.79 767.5,-1206.67 767.5,-1206.67 767.5,-1206.67 1635.06,-1206.67 1635.06,-1206.67"/>
<polygon fill="#7f7f7f" stroke="#7f7f7f" stroke-width="1.4" points="1635.06,-1211.92 1650.06,-1206.67 1635.06,-1201.42 1635.06,-1211.92"/>
</g>
<!-- chest_pain -->
<g id="node13" class="node">
<title>chest_pain</title>
<path fill="none" stroke="black" d="M1032,-481C1032,-481 912,-481 912,-481 906,-481 900,-475 900,-469 900,-469 900,-421 900,-421 900,-415 906,-409 912,-409 912,-409 1032,-409 1032,-409 1038,-409 1044,-415 1044,-421 1044,-421 1044,-469 1044,-469 1044,-475 1038,-481 1032,-481"/>
<text xml:space="preserve" text-anchor="middle" x="972" y="-437.27" font-family="Tsukushi A Round Gothic Bold" font-size="18.00">胸痛</text>
</g>
<!-- ischemia&#45;&gt;chest_pain -->
<g id="edge47" class="edge">
<title>ischemia&#45;&gt;chest_pain</title>
<path fill="none" stroke="#7f7f7f" stroke-width="1.4" d="M777.5,-638.56C777.5,-573.7 777.5,-445 777.5,-445 777.5,-445 882.46,-445 882.46,-445"/>
<polygon fill="#7f7f7f" stroke="#7f7f7f" stroke-width="1.4" points="882.46,-450.25 897.46,-445 882.46,-439.75 882.46,-450.25"/>
</g>
<!-- necrosis -->
<g id="node34" class="node">
<title>necrosis</title>
<path fill="none" stroke="black" d="M1784.5,-240C1784.5,-240 1664.5,-240 1664.5,-240 1658.5,-240 1652.5,-234 1652.5,-228 1652.5,-228 1652.5,-180 1652.5,-180 1652.5,-174 1658.5,-168 1664.5,-168 1664.5,-168 1784.5,-168 1784.5,-168 1790.5,-168 1796.5,-174 1796.5,-180 1796.5,-180 1796.5,-228 1796.5,-228 1796.5,-234 1790.5,-240 1784.5,-240"/>
<text xml:space="preserve" text-anchor="middle" x="1724.5" y="-196.28" font-family="Tsukushi A Round Gothic Bold" font-size="18.00">心筋壊死</text>
</g>
<!-- ischemia&#45;&gt;necrosis -->
<g id="edge46" class="edge">
<title>ischemia&#45;&gt;necrosis</title>
<path fill="none" stroke="#7f7f7f" stroke-width="1.4" d="M748.5,-638.71C748.5,-548.9 748.5,-323.5 748.5,-323.5 748.5,-323.5 1688.5,-323.5 1688.5,-323.5 1688.5,-323.5 1688.5,-257.3 1688.5,-257.3"/>
<polygon fill="#7f7f7f" stroke="#7f7f7f" stroke-width="1.4" points="1693.75,-257.3 1688.5,-242.3 1683.25,-257.3 1693.75,-257.3"/>
</g>
<!-- nausea -->
<g id="node38" class="node">
<title>nausea</title>
<path fill="none" stroke="black" d="M1032,-711C1032,-711 912,-711 912,-711 906,-711 900,-705 900,-699 900,-699 900,-651 900,-651 900,-645 906,-639 912,-639 912,-639 1032,-639 1032,-639 1038,-639 1044,-645 1044,-651 1044,-651 1044,-699 1044,-699 1044,-705 1038,-711 1032,-711"/>
<text xml:space="preserve" text-anchor="middle" x="972" y="-667.27" font-family="Tsukushi A Round Gothic Bold" font-size="18.00">悪心</text>
</g>
<!-- ischemia&#45;&gt;nausea -->
<g id="edge49" class="edge">
<title>ischemia&#45;&gt;nausea</title>
<path fill="none" stroke="#7f7f7f" stroke-width="1.4" d="M864.43,-675C864.43,-675 882.59,-675 882.59,-675"/>
<polygon fill="#7f7f7f" stroke="#7f7f7f" stroke-width="1.4" points="882.59,-680.25 897.59,-675 882.59,-669.75 882.59,-680.25"/>
</g>
<!-- cold_sweat -->
<g id="node40" class="node">
<title>cold_sweat</title>
<path fill="none" stroke="black" d="M1032,-596C1032,-596 912,-596 912,-596 906,-596 900,-590 900,-584 900,-584 900,-536 900,-536 900,-530 906,-524 912,-524 912,-524 1032,-524 1032,-524 1038,-524 1044,-530 1044,-536 1044,-536 1044,-584 1044,-584 1044,-590 1038,-596 1032,-596"/>
<text xml:space="preserve" text-anchor="middle" x="972" y="-552.27" font-family="Tsukushi A Round Gothic Bold" font-size="18.00">冷汗</text>
</g>
<!-- ischemia&#45;&gt;cold_sweat -->
<g id="edge50" class="edge">
<title>ischemia&#45;&gt;cold_sweat</title>
<path fill="none" stroke="#7f7f7f" stroke-width="1.4" d="M835.5,-638.61C835.5,-604.92 835.5,-560 835.5,-560 835.5,-560 882.63,-560 882.63,-560"/>
<polygon fill="#7f7f7f" stroke="#7f7f7f" stroke-width="1.4" points="882.63,-565.25 897.63,-560 882.63,-554.75 882.63,-565.25"/>
</g>
<!-- mi -->
<g id="node5" class="node">
<title>mi</title>
<path fill="#efe3d5" stroke="black" d="M492,-711C492,-711 372,-711 372,-711 366,-711 360,-705 360,-699 360,-699 360,-651 360,-651 360,-645 366,-639 372,-639 372,-639 492,-639 492,-639 498,-639 504,-645 504,-651 504,-651 504,-699 504,-699 504,-705 498,-711 492,-711"/>
<text xml:space="preserve" text-anchor="middle" x="432" y="-667.27" font-family="Tsukushi A Round Gothic Bold" font-size="18.00">心筋梗塞</text>
</g>
<!-- troponin -->
<g id="node8" class="node">
<title>troponin</title>
<path fill="none" stroke="black" d="M1964.5,-532C1964.5,-532 1844.5,-532 1844.5,-532 1838.5,-532 1832.5,-526 1832.5,-520 1832.5,-520 1832.5,-472 1832.5,-472 1832.5,-466 1838.5,-460 1844.5,-460 1844.5,-460 1964.5,-460 1964.5,-460 1970.5,-460 1976.5,-466 1976.5,-472 1976.5,-472 1976.5,-520 1976.5,-520 1976.5,-526 1970.5,-532 1964.5,-532"/>
<text xml:space="preserve" text-anchor="middle" x="1904.5" y="-488.27" font-family="Tsukushi A Round Gothic Bold" font-size="18.00">トロポニン上昇</text>
</g>
<!-- mi&#45;&gt;troponin -->
<g id="edge54" class="edge">
<title>mi&#45;&gt;troponin</title>
<path fill="none" stroke="#7f7f7f" stroke-width="1.4" d="M455.5,-638.68C455.5,-589.96 455.5,-509.5 455.5,-509.5 455.5,-509.5 1815.03,-509.5 1815.03,-509.5"/>
<polygon fill="#7f7f7f" stroke="#7f7f7f" stroke-width="1.4" points="1815.03,-514.75 1830.03,-509.5 1815.03,-504.25 1815.03,-514.75"/>
</g>
<!-- coronary_occlusion -->
<g id="node24" class="node">
<title>coronary_occlusion</title>
<path fill="none" stroke="black" d="M672,-711C672,-711 552,-711 552,-711 546,-711 540,-705 540,-699 540,-699 540,-651 540,-651 540,-645 546,-639 552,-639 552,-639 672,-639 672,-639 678,-639 684,-645 684,-651 684,-651 684,-699 684,-699 684,-705 678,-711 672,-711"/>
<text xml:space="preserve" text-anchor="middle" x="612" y="-667.27" font-family="Tsukushi A Round Gothic Bold" font-size="18.00">冠動脈閉塞</text>
</g>
<!-- mi&#45;&gt;coronary_occlusion -->
<g id="edge56" class="edge">
<title>mi&#45;&gt;coronary_occlusion</title>
<path fill="none" stroke="#7f7f7f" stroke-width="1.4" d="M504.43,-687C504.43,-687 522.59,-687 522.59,-687"/>
<polygon fill="#7f7f7f" stroke="#7f7f7f" stroke-width="1.4" points="522.59,-692.25 537.59,-687 522.59,-681.75 522.59,-692.25"/>
</g>
<!-- shock_cardiogenic -->
<g id="node30" class="node">
<title>shock_cardiogenic</title>
<path fill="none" stroke="black" d="M672,-279C672,-279 552,-279 552,-279 546,-279 540,-273 540,-267 540,-267 540,-219 540,-219 540,-213 546,-207 552,-207 552,-207 672,-207 672,-207 678,-207 684,-213 684,-219 684,-219 684,-267 684,-267 684,-273 678,-279 672,-279"/>
<text xml:space="preserve" text-anchor="middle" x="612" y="-235.28" font-family="Tsukushi A Round Gothic Bold" font-size="18.00">心原性ショック</text>
</g>
<!-- mi&#45;&gt;shock_cardiogenic -->
<g id="edge55" class="edge">
<title>mi&#45;&gt;shock_cardiogenic</title>
<path fill="none" stroke="#7f7f7f" stroke-width="1.4" d="M407.5,-638.54C407.5,-534.39 407.5,-243 407.5,-243 407.5,-243 522.49,-243 522.49,-243"/>
<polygon fill="#7f7f7f" stroke="#7f7f7f" stroke-width="1.4" points="522.49,-248.25 537.49,-243 522.49,-237.75 522.49,-248.25"/>
</g>
<!-- fatigue -->
<g id="node39" class="node">
<title>fatigue</title>
<path fill="none" stroke="black" d="M1964.5,-963C1964.5,-963 1844.5,-963 1844.5,-963 1838.5,-963 1832.5,-957 1832.5,-951 1832.5,-951 1832.5,-903 1832.5,-903 1832.5,-897 1838.5,-891 1844.5,-891 1844.5,-891 1964.5,-891 1964.5,-891 1970.5,-891 1976.5,-897 1976.5,-903 1976.5,-903 1976.5,-951 1976.5,-951 1976.5,-957 1970.5,-963 1964.5,-963"/>
<text xml:space="preserve" text-anchor="middle" x="1904.5" y="-919.27" font-family="Tsukushi A Round Gothic Bold" font-size="18.00">倦怠感</text>
</g>
<!-- mi&#45;&gt;fatigue -->
<g id="edge53" class="edge">
<title>mi&#45;&gt;fatigue</title>
<path fill="none" stroke="#7f7f7f" stroke-width="1.4" d="M455.5,-711.45C455.5,-781.37 455.5,-927.5 455.5,-927.5 455.5,-927.5 1815.03,-927.5 1815.03,-927.5"/>
<polygon fill="#7f7f7f" stroke="#7f7f7f" stroke-width="1.4" points="1815.03,-932.75 1830.03,-927.5 1815.03,-922.25 1815.03,-932.75"/>
</g>
<!-- cyanosis -->
<g id="node6" class="node">
<title>cyanosis</title>
<path fill="none" stroke="black" d="M1784.5,-812C1784.5,-812 1664.5,-812 1664.5,-812 1658.5,-812 1652.5,-806 1652.5,-800 1652.5,-800 1652.5,-752 1652.5,-752 1652.5,-746 1658.5,-740 1664.5,-740 1664.5,-740 1784.5,-740 1784.5,-740 1790.5,-740 1796.5,-746 1796.5,-752 1796.5,-752 1796.5,-800 1796.5,-800 1796.5,-806 1790.5,-812 1784.5,-812"/>
<text xml:space="preserve" text-anchor="middle" x="1724.5" y="-768.27" font-family="Tsukushi A Round Gothic Bold" font-size="18.00">チアノーゼ</text>
</g>
<!-- delirium -->
<g id="node45" class="node">
<title>delirium</title>
<path fill="none" stroke="black" d="M1964.5,-647C1964.5,-647 1844.5,-647 1844.5,-647 1838.5,-647 1832.5,-641 1832.5,-635 1832.5,-635 1832.5,-587 1832.5,-587 1832.5,-581 1838.5,-575 1844.5,-575 1844.5,-575 1964.5,-575 1964.5,-575 1970.5,-575 1976.5,-581 1976.5,-587 1976.5,-587 1976.5,-635 1976.5,-635 1976.5,-641 1970.5,-647 1964.5,-647"/>
<text xml:space="preserve" text-anchor="middle" x="1904.5" y="-603.27" font-family="Tsukushi A Round Gothic Bold" font-size="18.00">せん妄</text>
</g>
<!-- consciousness&#45;&gt;delirium -->
<g id="edge12" class="edge">
<title>consciousness&#45;&gt;delirium</title>
<path fill="none" stroke="#7f7f7f" stroke-width="1.4" d="M1724.5,-495.25C1724.5,-532.63 1724.5,-585.5 1724.5,-585.5 1724.5,-585.5 1814.95,-585.5 1814.95,-585.5"/>
<polygon fill="#7f7f7f" stroke="#7f7f7f" stroke-width="1.4" points="1814.95,-590.75 1829.95,-585.5 1814.95,-580.25 1814.95,-590.75"/>
</g>
<!-- motor_deficit -->
<g id="node9" class="node">
<title>motor_deficit</title>
<path fill="none" stroke="black" d="M1964.5,-417C1964.5,-417 1844.5,-417 1844.5,-417 1838.5,-417 1832.5,-411 1832.5,-405 1832.5,-405 1832.5,-357 1832.5,-357 1832.5,-351 1838.5,-345 1844.5,-345 1844.5,-345 1964.5,-345 1964.5,-345 1970.5,-345 1976.5,-351 1976.5,-357 1976.5,-357 1976.5,-405 1976.5,-405 1976.5,-411 1970.5,-417 1964.5,-417"/>
<text xml:space="preserve" text-anchor="middle" x="1904.5" y="-373.27" font-family="Tsukushi A Round Gothic Bold" font-size="18.00">運動麻痺</text>
</g>
<!-- motor_deficit&#45;&gt;adl -->
<g id="edge57" class="edge">
<title>motor_deficit&#45;&gt;adl</title>
<path fill="none" stroke="#7f7f7f" stroke-width="1.4" d="M1976.92,-381C2012.78,-381 2048.5,-381 2048.5,-381 2048.5,-381 2048.5,-557.44 2048.5,-557.44"/>
<polygon fill="#7f7f7f" stroke="#7f7f7f" stroke-width="1.4" points="2043.25,-557.44 2048.5,-572.44 2053.75,-557.44 2043.25,-557.44"/>
</g>
<!-- gas_exchange -->
<g id="node10" class="node">
<title>gas_exchange</title>
<path fill="none" stroke="black" d="M1424.5,-1202C1424.5,-1202 1304.5,-1202 1304.5,-1202 1298.5,-1202 1292.5,-1196 1292.5,-1190 1292.5,-1190 1292.5,-1142 1292.5,-1142 1292.5,-1136 1298.5,-1130 1304.5,-1130 1304.5,-1130 1424.5,-1130 1424.5,-1130 1430.5,-1130 1436.5,-1136 1436.5,-1142 1436.5,-1142 1436.5,-1190 1436.5,-1190 1436.5,-1196 1430.5,-1202 1424.5,-1202"/>
<text xml:space="preserve" text-anchor="middle" x="1364.5" y="-1158.28" font-family="Tsukushi A Round Gothic Bold" font-size="18.00">ガス交換障害</text>
</g>
<!-- spo2 -->
<g id="node15" class="node">
<title>spo2</title>
<path fill="none" stroke="black" d="M1784.5,-1014C1784.5,-1014 1664.5,-1014 1664.5,-1014 1658.5,-1014 1652.5,-1008 1652.5,-1002 1652.5,-1002 1652.5,-954 1652.5,-954 1652.5,-948 1658.5,-942 1664.5,-942 1664.5,-942 1784.5,-942 1784.5,-942 1790.5,-942 1796.5,-948 1796.5,-954 1796.5,-954 1796.5,-1002 1796.5,-1002 1796.5,-1008 1790.5,-1014 1784.5,-1014"/>
<text xml:space="preserve" text-anchor="middle" x="1724.5" y="-970.27" font-family="Tsukushi A Round Gothic Bold" font-size="18.00">SpO2低下</text>
</g>
<!-- gas_exchange&#45;&gt;spo2 -->
<g id="edge30" class="edge">
<title>gas_exchange&#45;&gt;spo2</title>
<path fill="none" stroke="#7f7f7f" stroke-width="1.4" d="M1436.92,-1139.67C1542.04,-1139.67 1724.5,-1139.67 1724.5,-1139.67 1724.5,-1139.67 1724.5,-1031.4 1724.5,-1031.4"/>
<polygon fill="#7f7f7f" stroke="#7f7f7f" stroke-width="1.4" points="1729.75,-1031.4 1724.5,-1016.4 1719.25,-1031.4 1729.75,-1031.4"/>
</g>
<!-- hypoxia -->
<g id="node21" class="node">
<title>hypoxia</title>
<path fill="none" stroke="black" d="M1604.5,-913C1604.5,-913 1484.5,-913 1484.5,-913 1478.5,-913 1472.5,-907 1472.5,-901 1472.5,-901 1472.5,-853 1472.5,-853 1472.5,-847 1478.5,-841 1484.5,-841 1484.5,-841 1604.5,-841 1604.5,-841 1610.5,-841 1616.5,-847 1616.5,-853 1616.5,-853 1616.5,-901 1616.5,-901 1616.5,-907 1610.5,-913 1604.5,-913"/>
<text xml:space="preserve" text-anchor="middle" x="1544.5" y="-869.27" font-family="Tsukushi A Round Gothic Bold" font-size="18.00">低酸素</text>
</g>
<!-- gas_exchange&#45;&gt;hypoxia -->
<g id="edge29" class="edge">
<title>gas_exchange&#45;&gt;hypoxia</title>
<path fill="none" stroke="#7f7f7f" stroke-width="1.4" d="M1436.56,-1135.33C1477.44,-1135.33 1520.5,-1135.33 1520.5,-1135.33 1520.5,-1135.33 1520.5,-930.58 1520.5,-930.58"/>
<polygon fill="#7f7f7f" stroke="#7f7f7f" stroke-width="1.4" points="1525.75,-930.58 1520.5,-915.58 1515.25,-930.58 1525.75,-930.58"/>
</g>
<!-- dyspnea&#45;&gt;adl -->
<g id="edge22" class="edge">
<title>dyspnea&#45;&gt;adl</title>
<path fill="none" stroke="#7f7f7f" stroke-width="1.4" d="M1796.67,-1209.5C1910.89,-1209.5 2120.5,-1209.5 2120.5,-1209.5 2120.5,-1209.5 2120.5,-664.21 2120.5,-664.21"/>
<polygon fill="#7f7f7f" stroke="#7f7f7f" stroke-width="1.4" points="2125.75,-664.21 2120.5,-649.21 2115.25,-664.21 2125.75,-664.21"/>
</g>
<!-- exercise_intolerance -->
<g id="node22" class="node">
<title>exercise_intolerance</title>
<path fill="none" stroke="black" d="M1964.5,-1203C1964.5,-1203 1844.5,-1203 1844.5,-1203 1838.5,-1203 1832.5,-1197 1832.5,-1191 1832.5,-1191 1832.5,-1143 1832.5,-1143 1832.5,-1137 1838.5,-1131 1844.5,-1131 1844.5,-1131 1964.5,-1131 1964.5,-1131 1970.5,-1131 1976.5,-1137 1976.5,-1143 1976.5,-1143 1976.5,-1191 1976.5,-1191 1976.5,-1197 1970.5,-1203 1964.5,-1203"/>
<text xml:space="preserve" text-anchor="middle" x="1904.5" y="-1159.28" font-family="Tsukushi A Round Gothic Bold" font-size="18.00">運動耐容能低下</text>
</g>
<!-- dyspnea&#45;&gt;exercise_intolerance -->
<g id="edge24" class="edge">
<title>dyspnea&#45;&gt;exercise_intolerance</title>
<path fill="none" stroke="#7f7f7f" stroke-width="1.4" d="M1796.93,-1183.33C1796.93,-1183.33 1815.09,-1183.33 1815.09,-1183.33"/>
<polygon fill="#7f7f7f" stroke="#7f7f7f" stroke-width="1.4" points="1815.09,-1188.58 1830.09,-1183.33 1815.09,-1178.08 1815.09,-1188.58"/>
</g>
<!-- dyspnea&#45;&gt;fatigue -->
<g id="edge23" class="edge">
<title>dyspnea&#45;&gt;fatigue</title>
<path fill="none" stroke="#7f7f7f" stroke-width="1.4" d="M1796.77,-1163.67C1810.41,-1163.67 1820.5,-1163.67 1820.5,-1163.67 1820.5,-1163.67 1820.5,-952.5 1820.5,-952.5 1820.5,-952.5 1821.67,-952.5 1821.67,-952.5"/>
<polygon fill="#7f7f7f" stroke="#7f7f7f" stroke-width="1.4" points="1815.06,-957.75 1830.06,-952.5 1815.06,-947.25 1815.06,-957.75"/>
</g>
<!-- copd -->
<g id="node12" class="node">
<title>copd</title>
<path fill="#efe3d5" stroke="black" d="M312,-1420C312,-1420 192,-1420 192,-1420 186,-1420 180,-1414 180,-1408 180,-1408 180,-1360 180,-1360 180,-1354 186,-1348 192,-1348 192,-1348 312,-1348 312,-1348 318,-1348 324,-1354 324,-1360 324,-1360 324,-1408 324,-1408 324,-1414 318,-1420 312,-1420"/>
<text xml:space="preserve" text-anchor="middle" x="252" y="-1376.28" font-family="Tsukushi A Round Gothic Bold" font-size="18.00">COPD</text>
</g>
<!-- copd&#45;&gt;gas_exchange -->
<g id="edge14" class="edge">
<title>copd&#45;&gt;gas_exchange</title>
<path fill="none" stroke="#7f7f7f" stroke-width="1.4" d="M237.5,-1347.51C237.5,-1285.45 237.5,-1166 237.5,-1166 237.5,-1166 1275.17,-1166 1275.17,-1166"/>
<polygon fill="#7f7f7f" stroke="#7f7f7f" stroke-width="1.4" points="1275.17,-1171.25 1290.17,-1166 1275.17,-1160.75 1275.17,-1171.25"/>
</g>
<!-- airway_block -->
<g id="node28" class="node">
<title>airway_block</title>
<path fill="none" stroke="black" d="M1032,-1376C1032,-1376 912,-1376 912,-1376 906,-1376 900,-1370 900,-1364 900,-1364 900,-1316 900,-1316 900,-1310 906,-1304 912,-1304 912,-1304 1032,-1304 1032,-1304 1038,-1304 1044,-1310 1044,-1316 1044,-1316 1044,-1364 1044,-1364 1044,-1370 1038,-1376 1032,-1376"/>
<text xml:space="preserve" text-anchor="middle" x="972" y="-1332.28" font-family="Tsukushi A Round Gothic Bold" font-size="18.00">気道閉塞</text>
</g>
<!-- copd&#45;&gt;airway_block -->
<g id="edge15" class="edge">
<title>copd&#45;&gt;airway_block</title>
<path fill="none" stroke="#7f7f7f" stroke-width="1.4" d="M295.5,-1347.89C295.5,-1325.12 295.5,-1300 295.5,-1300 295.5,-1300 995.5,-1300 995.5,-1300 995.5,-1300 995.5,-1300.37 995.5,-1300.37"/>
<polygon fill="#7f7f7f" stroke="#7f7f7f" stroke-width="1.4" points="990.25,-1286.57 995.5,-1301.57 1000.75,-1286.57 990.25,-1286.57"/>
</g>
<!-- air_trapping -->
<g id="node29" class="node">
<title>air_trapping</title>
<path fill="none" stroke="black" d="M852,-1665C852,-1665 732,-1665 732,-1665 726,-1665 720,-1659 720,-1653 720,-1653 720,-1605 720,-1605 720,-1599 726,-1593 732,-1593 732,-1593 852,-1593 852,-1593 858,-1593 864,-1599 864,-1605 864,-1605 864,-1653 864,-1653 864,-1659 858,-1665 852,-1665"/>
<text xml:space="preserve" text-anchor="middle" x="792" y="-1621.28" font-family="Tsukushi A Round Gothic Bold" font-size="18.00">気道炎症</text>
</g>
<!-- copd&#45;&gt;air_trapping -->
<g id="edge17" class="edge">
<title>copd&#45;&gt;air_trapping</title>
<path fill="none" stroke="#7f7f7f" stroke-width="1.4" d="M275.5,-1420.49C275.5,-1478.56 275.5,-1585.5 275.5,-1585.5 275.5,-1585.5 791.5,-1585.5 791.5,-1585.5 791.5,-1585.5 791.5,-1586.22 791.5,-1586.22"/>
<polygon fill="#7f7f7f" stroke="#7f7f7f" stroke-width="1.4" points="786.25,-1575.56 791.5,-1590.56 796.75,-1575.56 786.25,-1575.56"/>
</g>
<!-- inflammation_airway -->
<g id="node35" class="node">
<title>inflammation_airway</title>
<path fill="none" stroke="black" d="M492,-1420C492,-1420 372,-1420 372,-1420 366,-1420 360,-1414 360,-1408 360,-1408 360,-1360 360,-1360 360,-1354 366,-1348 372,-1348 372,-1348 492,-1348 492,-1348 498,-1348 504,-1354 504,-1360 504,-1360 504,-1408 504,-1408 504,-1414 498,-1420 492,-1420"/>
<text xml:space="preserve" text-anchor="middle" x="432" y="-1376.28" font-family="Tsukushi A Round Gothic Bold" font-size="18.00">気道炎症</text>
</g>
<!-- copd&#45;&gt;inflammation_airway -->
<g id="edge18" class="edge">
<title>copd&#45;&gt;inflammation_airway</title>
<path fill="none" stroke="#7f7f7f" stroke-width="1.4" d="M324.43,-1384C324.43,-1384 342.59,-1384 342.59,-1384"/>
<polygon fill="#7f7f7f" stroke="#7f7f7f" stroke-width="1.4" points="342.59,-1389.25 357.59,-1384 342.59,-1378.75 342.59,-1389.25"/>
</g>
<!-- alveolar_damage -->
<g id="node36" class="node">
<title>alveolar_damage</title>
<path fill="none" stroke="black" d="M492,-1665C492,-1665 372,-1665 372,-1665 366,-1665 360,-1659 360,-1653 360,-1653 360,-1605 360,-1605 360,-1599 366,-1593 372,-1593 372,-1593 492,-1593 492,-1593 498,-1593 504,-1599 504,-1605 504,-1605 504,-1653 504,-1653 504,-1659 498,-1665 492,-1665"/>
<text xml:space="preserve" text-anchor="middle" x="432" y="-1621.28" font-family="Tsukushi A Round Gothic Bold" font-size="18.00">肺胞破壊</text>
</g>
<!-- copd&#45;&gt;alveolar_damage -->
<g id="edge16" class="edge">
<title>copd&#45;&gt;alveolar_damage</title>
<path fill="none" stroke="#7f7f7f" stroke-width="1.4" d="M227.5,-1420.41C227.5,-1488.66 227.5,-1629 227.5,-1629 227.5,-1629 342.49,-1629 342.49,-1629"/>
<polygon fill="#7f7f7f" stroke="#7f7f7f" stroke-width="1.4" points="342.49,-1634.25 357.49,-1629 342.49,-1623.75 342.49,-1634.25"/>
</g>
<!-- ventilation -->
<g id="node42" class="node">
<title>ventilation</title>
<path fill="none" stroke="black" d="M1228.25,-1296C1228.25,-1296 1108.25,-1296 1108.25,-1296 1102.25,-1296 1096.25,-1290 1096.25,-1284 1096.25,-1284 1096.25,-1236 1096.25,-1236 1096.25,-1230 1102.25,-1224 1108.25,-1224 1108.25,-1224 1228.25,-1224 1228.25,-1224 1234.25,-1224 1240.25,-1230 1240.25,-1236 1240.25,-1236 1240.25,-1284 1240.25,-1284 1240.25,-1290 1234.25,-1296 1228.25,-1296"/>
<text xml:space="preserve" text-anchor="middle" x="1168.25" y="-1252.28" font-family="Tsukushi A Round Gothic Bold" font-size="18.00">換気低下</text>
</g>
<!-- copd&#45;&gt;ventilation -->
<g id="edge13" class="edge">
<title>copd&#45;&gt;ventilation</title>
<path fill="none" stroke="#7f7f7f" stroke-width="1.4" d="M266.5,-1347.8C266.5,-1311.2 266.5,-1260 266.5,-1260 266.5,-1260 1078.86,-1260 1078.86,-1260"/>
<polygon fill="#7f7f7f" stroke="#7f7f7f" stroke-width="1.4" points="1078.86,-1265.25 1093.86,-1260 1078.86,-1254.75 1078.86,-1265.25"/>
</g>
<!-- shock -->
<g id="node37" class="node">
<title>shock</title>
<path fill="none" stroke="black" d="M1424.5,-913C1424.5,-913 1304.5,-913 1304.5,-913 1298.5,-913 1292.5,-907 1292.5,-901 1292.5,-901 1292.5,-853 1292.5,-853 1292.5,-847 1298.5,-841 1304.5,-841 1304.5,-841 1424.5,-841 1424.5,-841 1430.5,-841 1436.5,-847 1436.5,-853 1436.5,-853 1436.5,-901 1436.5,-901 1436.5,-907 1430.5,-913 1424.5,-913"/>
<text xml:space="preserve" text-anchor="middle" x="1364.5" y="-869.27" font-family="Tsukushi A Round Gothic Bold" font-size="18.00">ショック</text>
</g>
<!-- lactate&#45;&gt;shock -->
<g id="edge52" class="edge">
<title>lactate&#45;&gt;shock</title>
<path fill="none" stroke="#7f7f7f" stroke-width="1.4" d="M1240.49,-877C1240.49,-877 1274.97,-877 1274.97,-877"/>
<polygon fill="#7f7f7f" stroke="#7f7f7f" stroke-width="1.4" points="1274.97,-882.25 1289.97,-877 1274.97,-871.75 1274.97,-882.25"/>
</g>
<!-- renal_flow -->
<g id="node17" class="node">
<title>renal_flow</title>
<path fill="none" stroke="black" d="M1228.25,-91C1228.25,-91 1108.25,-91 1108.25,-91 1102.25,-91 1096.25,-85 1096.25,-79 1096.25,-79 1096.25,-31 1096.25,-31 1096.25,-25 1102.25,-19 1108.25,-19 1108.25,-19 1228.25,-19 1228.25,-19 1234.25,-19 1240.25,-25 1240.25,-31 1240.25,-31 1240.25,-79 1240.25,-79 1240.25,-85 1234.25,-91 1228.25,-91"/>
<text xml:space="preserve" text-anchor="middle" x="1168.25" y="-47.27" font-family="Tsukushi A Round Gothic Bold" font-size="18.00">腎血流低下</text>
</g>
<!-- renal_flow&#45;&gt;urine -->
<g id="edge67" class="edge">
<title>renal_flow&#45;&gt;urine</title>
<path fill="none" stroke="#7f7f7f" stroke-width="1.4" d="M1240.35,-77C1240.35,-77 1454.88,-77 1454.88,-77"/>
<polygon fill="#7f7f7f" stroke="#7f7f7f" stroke-width="1.4" points="1454.89,-82.25 1469.88,-77 1454.88,-71.75 1454.89,-82.25"/>
</g>
<!-- renal_failure -->
<g id="node18" class="node">
<title>renal_failure</title>
<path fill="none" stroke="black" d="M1424.5,-185C1424.5,-185 1304.5,-185 1304.5,-185 1298.5,-185 1292.5,-179 1292.5,-173 1292.5,-173 1292.5,-125 1292.5,-125 1292.5,-119 1298.5,-113 1304.5,-113 1304.5,-113 1424.5,-113 1424.5,-113 1430.5,-113 1436.5,-119 1436.5,-125 1436.5,-125 1436.5,-173 1436.5,-173 1436.5,-179 1430.5,-185 1424.5,-185"/>
<text xml:space="preserve" text-anchor="middle" x="1364.5" y="-141.28" font-family="Tsukushi A Round Gothic Bold" font-size="18.00">腎不全</text>
</g>
<!-- renal_flow&#45;&gt;renal_failure -->
<g id="edge66" class="edge">
<title>renal_flow&#45;&gt;renal_failure</title>
<path fill="none" stroke="#7f7f7f" stroke-width="1.4" d="M1168.5,-91.26C1168.5,-107.69 1168.5,-123.5 1168.5,-123.5 1168.5,-123.5 1274.95,-123.5 1274.95,-123.5"/>
<polygon fill="#7f7f7f" stroke="#7f7f7f" stroke-width="1.4" points="1274.95,-128.75 1289.95,-123.5 1274.95,-118.25 1274.95,-128.75"/>
</g>
<!-- renal_failure&#45;&gt;urine -->
<g id="edge65" class="edge">
<title>renal_failure&#45;&gt;urine</title>
<path fill="none" stroke="#7f7f7f" stroke-width="1.4" d="M1436.93,-124C1436.93,-124 1455.09,-124 1455.09,-124"/>
<polygon fill="#7f7f7f" stroke="#7f7f7f" stroke-width="1.4" points="1455.09,-129.25 1470.09,-124 1455.09,-118.75 1455.09,-129.25"/>
</g>
<!-- elastic_recoil↓ -->
<g id="node19" class="node">
<title>elastic_recoil↓</title>
<path fill="none" stroke="black" d="M672,-1665C672,-1665 552,-1665 552,-1665 546,-1665 540,-1659 540,-1653 540,-1653 540,-1605 540,-1605 540,-1599 546,-1593 552,-1593 552,-1593 672,-1593 672,-1593 678,-1593 684,-1599 684,-1605 684,-1605 684,-1653 684,-1653 684,-1659 678,-1665 672,-1665"/>
<text xml:space="preserve" text-anchor="middle" x="612" y="-1621.28" font-family="Tsukushi A Round Gothic Bold" font-size="18.00">弾性収縮力低下</text>
</g>
<!-- elastic_recoil↓&#45;&gt;air_trapping -->
<g id="edge25" class="edge">
<title>elastic_recoil↓&#45;&gt;air_trapping</title>
<path fill="none" stroke="#7f7f7f" stroke-width="1.4" d="M684.43,-1629C684.43,-1629 702.59,-1629 702.59,-1629"/>
<polygon fill="#7f7f7f" stroke="#7f7f7f" stroke-width="1.4" points="702.59,-1634.25 717.59,-1629 702.59,-1623.75 702.59,-1634.25"/>
</g>
<!-- sputum -->
<g id="node20" class="node">
<title>sputum</title>
<path fill="none" stroke="black" d="M852,-1376C852,-1376 732,-1376 732,-1376 726,-1376 720,-1370 720,-1364 720,-1364 720,-1316 720,-1316 720,-1310 726,-1304 732,-1304 732,-1304 852,-1304 852,-1304 858,-1304 864,-1310 864,-1316 864,-1316 864,-1364 864,-1364 864,-1370 858,-1376 852,-1376"/>
<text xml:space="preserve" text-anchor="middle" x="792" y="-1332.28" font-family="Tsukushi A Round Gothic Bold" font-size="18.00">痰</text>
</g>
<!-- sputum&#45;&gt;airway_block -->
<g id="edge71" class="edge">
<title>sputum&#45;&gt;airway_block</title>
<path fill="none" stroke="#7f7f7f" stroke-width="1.4" d="M864.43,-1340C864.43,-1340 882.59,-1340 882.59,-1340"/>
<polygon fill="#7f7f7f" stroke="#7f7f7f" stroke-width="1.4" points="882.59,-1345.25 897.59,-1340 882.59,-1334.75 882.59,-1345.25"/>
</g>
<!-- hypoxia&#45;&gt;cyanosis -->
<g id="edge41" class="edge">
<title>hypoxia&#45;&gt;cyanosis</title>
<path fill="none" stroke="#7f7f7f" stroke-width="1.4" d="M1616.56,-857.67C1657.44,-857.67 1700.5,-857.67 1700.5,-857.67 1700.5,-857.67 1700.5,-829.18 1700.5,-829.18"/>
<polygon fill="#7f7f7f" stroke="#7f7f7f" stroke-width="1.4" points="1705.75,-829.18 1700.5,-814.18 1695.25,-829.18 1705.75,-829.18"/>
</g>
<!-- hypoxia&#45;&gt;consciousness -->
<g id="edge42" class="edge">
<title>hypoxia&#45;&gt;consciousness</title>
<path fill="none" stroke="#7f7f7f" stroke-width="1.4" d="M1520.5,-840.62C1520.5,-744.37 1520.5,-490.33 1520.5,-490.33 1520.5,-490.33 1634.88,-490.33 1634.88,-490.33"/>
<polygon fill="#7f7f7f" stroke="#7f7f7f" stroke-width="1.4" points="1634.88,-495.58 1649.88,-490.33 1634.88,-485.08 1634.88,-495.58"/>
</g>
<!-- hypoxia&#45;&gt;dyspnea -->
<g id="edge37" class="edge">
<title>hypoxia&#45;&gt;dyspnea</title>
<path fill="none" stroke="#7f7f7f" stroke-width="1.4" d="M1568.5,-913.3C1568.5,-992.34 1568.5,-1173 1568.5,-1173 1568.5,-1173 1635.32,-1173 1635.32,-1173"/>
<polygon fill="#7f7f7f" stroke="#7f7f7f" stroke-width="1.4" points="1635.32,-1178.25 1650.32,-1173 1635.32,-1167.75 1635.32,-1178.25"/>
</g>
<!-- hypoxia&#45;&gt;spo2 -->
<g id="edge39" class="edge">
<title>hypoxia&#45;&gt;spo2</title>
<path fill="none" stroke="#7f7f7f" stroke-width="1.4" d="M1617,-905.67C1675.63,-905.67 1748.5,-905.67 1748.5,-905.67 1748.5,-905.67 1748.5,-924.71 1748.5,-924.71"/>
<polygon fill="#7f7f7f" stroke="#7f7f7f" stroke-width="1.4" points="1743.25,-924.71 1748.5,-939.71 1753.75,-924.71 1743.25,-924.71"/>
</g>
<!-- encephalopathy -->
<g id="node27" class="node">
<title>encephalopathy</title>
<path fill="none" stroke="black" d="M1784.5,-697C1784.5,-697 1664.5,-697 1664.5,-697 1658.5,-697 1652.5,-691 1652.5,-685 1652.5,-685 1652.5,-637 1652.5,-637 1652.5,-631 1658.5,-625 1664.5,-625 1664.5,-625 1784.5,-625 1784.5,-625 1790.5,-625 1796.5,-631 1796.5,-637 1796.5,-637 1796.5,-685 1796.5,-685 1796.5,-691 1790.5,-697 1784.5,-697"/>
<text xml:space="preserve" text-anchor="middle" x="1724.5" y="-653.27" font-family="Tsukushi A Round Gothic Bold" font-size="18.00">脳症</text>
</g>
<!-- hypoxia&#45;&gt;encephalopathy -->
<g id="edge43" class="edge">
<title>hypoxia&#45;&gt;encephalopathy</title>
<path fill="none" stroke="#7f7f7f" stroke-width="1.4" d="M1568.5,-840.59C1568.5,-780.72 1568.5,-668 1568.5,-668 1568.5,-668 1635.32,-668 1635.32,-668"/>
<polygon fill="#7f7f7f" stroke="#7f7f7f" stroke-width="1.4" points="1635.32,-673.25 1650.32,-668 1635.32,-662.75 1635.32,-673.25"/>
</g>
<!-- hypoxia&#45;&gt;fatigue -->
<g id="edge38" class="edge">
<title>hypoxia&#45;&gt;fatigue</title>
<path fill="none" stroke="#7f7f7f" stroke-width="1.4" d="M1616.92,-898.33C1616.92,-898.33 1815.08,-898.33 1815.08,-898.33"/>
<polygon fill="#7f7f7f" stroke="#7f7f7f" stroke-width="1.4" points="1815.08,-903.58 1830.08,-898.33 1815.08,-893.08 1815.08,-903.58"/>
</g>
<!-- hypoxia&#45;&gt;delirium -->
<g id="edge40" class="edge">
<title>hypoxia&#45;&gt;delirium</title>
<path fill="none" stroke="#7f7f7f" stroke-width="1.4" d="M1616.92,-874.33C1722.04,-874.33 1904.5,-874.33 1904.5,-874.33 1904.5,-874.33 1904.5,-664.46 1904.5,-664.46"/>
<polygon fill="#7f7f7f" stroke="#7f7f7f" stroke-width="1.4" points="1909.75,-664.46 1904.5,-649.46 1899.25,-664.46 1909.75,-664.46"/>
</g>
<!-- exercise_intolerance&#45;&gt;adl -->
<g id="edge27" class="edge">
<title>exercise_intolerance&#45;&gt;adl</title>
<path fill="none" stroke="#7f7f7f" stroke-width="1.4" d="M1976.93,-1167C2026.95,-1167 2084.5,-1167 2084.5,-1167 2084.5,-1167 2084.5,-664.6 2084.5,-664.6"/>
<polygon fill="#7f7f7f" stroke="#7f7f7f" stroke-width="1.4" points="2089.75,-664.6 2084.5,-649.6 2079.25,-664.6 2089.75,-664.6"/>
</g>
<!-- hyperinflation -->
<g id="node23" class="node">
<title>hyperinflation</title>
<path fill="none" stroke="black" d="M1032,-1578C1032,-1578 912,-1578 912,-1578 906,-1578 900,-1572 900,-1566 900,-1566 900,-1518 900,-1518 900,-1512 906,-1506 912,-1506 912,-1506 1032,-1506 1032,-1506 1038,-1506 1044,-1512 1044,-1518 1044,-1518 1044,-1566 1044,-1566 1044,-1572 1038,-1578 1032,-1578"/>
<text xml:space="preserve" text-anchor="middle" x="972" y="-1534.28" font-family="Tsukushi A Round Gothic Bold" font-size="18.00">過膨張</text>
</g>
<!-- hyperinflation&#45;&gt;dyspnea -->
<g id="edge32" class="edge">
<title>hyperinflation&#45;&gt;dyspnea</title>
<path fill="none" stroke="#7f7f7f" stroke-width="1.4" d="M1044.49,-1554C1233.09,-1554 1724.5,-1554 1724.5,-1554 1724.5,-1554 1724.5,-1233.32 1724.5,-1233.32"/>
<polygon fill="#7f7f7f" stroke="#7f7f7f" stroke-width="1.4" points="1729.75,-1233.32 1724.5,-1218.32 1719.25,-1233.32 1729.75,-1233.32"/>
</g>
<!-- hyperinflation&#45;&gt;ventilation -->
<g id="edge31" class="edge">
<title>hyperinflation&#45;&gt;ventilation</title>
<path fill="none" stroke="#7f7f7f" stroke-width="1.4" d="M1044.2,-1530C1108.51,-1530 1192.5,-1530 1192.5,-1530 1192.5,-1530 1192.5,-1313.53 1192.5,-1313.53"/>
<polygon fill="#7f7f7f" stroke="#7f7f7f" stroke-width="1.4" points="1197.75,-1313.53 1192.5,-1298.53 1187.25,-1313.53 1197.75,-1313.53"/>
</g>
<!-- coronary_occlusion&#45;&gt;ischemia -->
<g id="edge20" class="edge">
<title>coronary_occlusion&#45;&gt;ischemia</title>
<path fill="none" stroke="#7f7f7f" stroke-width="1.4" d="M684.43,-675C684.43,-675 702.59,-675 702.59,-675"/>
<polygon fill="#7f7f7f" stroke="#7f7f7f" stroke-width="1.4" points="702.59,-680.25 717.59,-675 702.59,-669.75 702.59,-680.25"/>
</g>
<!-- coronary_occlusion&#45;&gt;mi -->
<g id="edge19" class="edge">
<title>coronary_occlusion&#45;&gt;mi</title>
<path fill="none" stroke="#7f7f7f" stroke-width="1.4" d="M539.57,-663C539.57,-663 521.41,-663 521.41,-663"/>
<polygon fill="#7f7f7f" stroke="#7f7f7f" stroke-width="1.4" points="521.41,-657.75 506.41,-663 521.41,-668.25 521.41,-657.75"/>
</g>
<!-- aphasia -->
<g id="node25" class="node">
<title>aphasia</title>
<path fill="none" stroke="black" d="M1964.5,-302C1964.5,-302 1844.5,-302 1844.5,-302 1838.5,-302 1832.5,-296 1832.5,-290 1832.5,-290 1832.5,-242 1832.5,-242 1832.5,-236 1838.5,-230 1844.5,-230 1844.5,-230 1964.5,-230 1964.5,-230 1970.5,-230 1976.5,-236 1976.5,-242 1976.5,-242 1976.5,-290 1976.5,-290 1976.5,-296 1970.5,-302 1964.5,-302"/>
<text xml:space="preserve" text-anchor="middle" x="1904.5" y="-258.27" font-family="Tsukushi A Round Gothic Bold" font-size="18.00">失語</text>
</g>
<!-- aphasia&#45;&gt;adl -->
<g id="edge10" class="edge">
<title>aphasia&#45;&gt;adl</title>
<path fill="none" stroke="#7f7f7f" stroke-width="1.4" d="M1976.93,-266C2026.95,-266 2084.5,-266 2084.5,-266 2084.5,-266 2084.5,-557.61 2084.5,-557.61"/>
<polygon fill="#7f7f7f" stroke="#7f7f7f" stroke-width="1.4" points="2079.25,-557.61 2084.5,-572.61 2089.75,-557.61 2079.25,-557.61"/>
</g>
<!-- co2_retention -->
<g id="node26" class="node">
<title>co2_retention</title>
<path fill="none" stroke="black" d="M1032,-1693C1032,-1693 912,-1693 912,-1693 906,-1693 900,-1687 900,-1681 900,-1681 900,-1633 900,-1633 900,-1627 906,-1621 912,-1621 912,-1621 1032,-1621 1032,-1621 1038,-1621 1044,-1627 1044,-1633 1044,-1633 1044,-1681 1044,-1681 1044,-1687 1038,-1693 1032,-1693"/>
<text xml:space="preserve" text-anchor="middle" x="972" y="-1649.28" font-family="Tsukushi A Round Gothic Bold" font-size="18.00">二酸化炭素貯留</text>
</g>
<!-- resp_acidosis -->
<g id="node43" class="node">
<title>resp_acidosis</title>
<path fill="none" stroke="black" d="M1244.5,-1693C1244.5,-1693 1092,-1693 1092,-1693 1086,-1693 1080,-1687 1080,-1681 1080,-1681 1080,-1633 1080,-1633 1080,-1627 1086,-1621 1092,-1621 1092,-1621 1244.5,-1621 1244.5,-1621 1250.5,-1621 1256.5,-1627 1256.5,-1633 1256.5,-1633 1256.5,-1681 1256.5,-1681 1256.5,-1687 1250.5,-1693 1244.5,-1693"/>
<text xml:space="preserve" text-anchor="middle" x="1168.25" y="-1649.28" font-family="Tsukushi A Round Gothic Bold" font-size="18.00">呼吸性アシドーシス</text>
</g>
<!-- co2_retention&#45;&gt;resp_acidosis -->
<g id="edge11" class="edge">
<title>co2_retention&#45;&gt;resp_acidosis</title>
<path fill="none" stroke="#7f7f7f" stroke-width="1.4" d="M1044.24,-1657C1044.24,-1657 1062.38,-1657 1062.38,-1657"/>
<polygon fill="#7f7f7f" stroke="#7f7f7f" stroke-width="1.4" points="1062.38,-1662.25 1077.38,-1657 1062.38,-1651.75 1062.38,-1662.25"/>
</g>
<!-- encephalopathy&#45;&gt;delirium -->
<g id="edge26" class="edge">
<title>encephalopathy&#45;&gt;delirium</title>
<path fill="none" stroke="#7f7f7f" stroke-width="1.4" d="M1796.93,-636C1796.93,-636 1815.09,-636 1815.09,-636"/>
<polygon fill="#7f7f7f" stroke="#7f7f7f" stroke-width="1.4" points="1815.09,-641.25 1830.09,-636 1815.09,-630.75 1815.09,-641.25"/>
</g>
<!-- airway_block&#45;&gt;dyspnea -->
<g id="edge7" class="edge">
<title>airway_block&#45;&gt;dyspnea</title>
<path fill="none" stroke="#7f7f7f" stroke-width="1.4" d="M947.5,-1303.82C947.5,-1265.76 947.5,-1211.33 947.5,-1211.33 947.5,-1211.33 1634.98,-1211.33 1634.98,-1211.33"/>
<polygon fill="#7f7f7f" stroke="#7f7f7f" stroke-width="1.4" points="1634.98,-1216.58 1649.98,-1211.33 1634.98,-1206.08 1634.98,-1216.58"/>
</g>
<!-- airway_block&#45;&gt;ventilation -->
<g id="edge6" class="edge">
<title>airway_block&#45;&gt;ventilation</title>
<path fill="none" stroke="#7f7f7f" stroke-width="1.4" d="M1044.16,-1340C1091.43,-1340 1144.5,-1340 1144.5,-1340 1144.5,-1340 1144.5,-1313.37 1144.5,-1313.37"/>
<polygon fill="#7f7f7f" stroke="#7f7f7f" stroke-width="1.4" points="1149.75,-1313.37 1144.5,-1298.37 1139.25,-1313.37 1149.75,-1313.37"/>
</g>
<!-- air_trapping&#45;&gt;gas_exchange -->
<g id="edge3" class="edge">
<title>air_trapping&#45;&gt;gas_exchange</title>
<path fill="none" stroke="#7f7f7f" stroke-width="1.4" d="M864.25,-1611.67C1023.06,-1611.67 1388.5,-1611.67 1388.5,-1611.67 1388.5,-1611.67 1388.5,-1219.59 1388.5,-1219.59"/>
<polygon fill="#7f7f7f" stroke="#7f7f7f" stroke-width="1.4" points="1393.75,-1219.59 1388.5,-1204.59 1383.25,-1219.59 1393.75,-1219.59"/>
</g>
<!-- air_trapping&#45;&gt;hyperinflation -->
<g id="edge4" class="edge">
<title>air_trapping&#45;&gt;hyperinflation</title>
<path fill="none" stroke="#7f7f7f" stroke-width="1.4" d="M864.49,-1602.33C914.31,-1602.33 971.5,-1602.33 971.5,-1602.33 971.5,-1602.33 971.5,-1595.61 971.5,-1595.61"/>
<polygon fill="#7f7f7f" stroke="#7f7f7f" stroke-width="1.4" points="976.75,-1595.61 971.5,-1580.61 966.25,-1595.61 976.75,-1595.61"/>
</g>
<!-- air_trapping&#45;&gt;co2_retention -->
<g id="edge5" class="edge">
<title>air_trapping&#45;&gt;co2_retention</title>
<path fill="none" stroke="#7f7f7f" stroke-width="1.4" d="M864.43,-1643C864.43,-1643 882.59,-1643 882.59,-1643"/>
<polygon fill="#7f7f7f" stroke="#7f7f7f" stroke-width="1.4" points="882.59,-1648.25 897.59,-1643 882.59,-1637.75 882.59,-1648.25"/>
</g>
<!-- hypotension -->
<g id="node32" class="node">
<title>hypotension</title>
<path fill="none" stroke="black" d="M1032,-279C1032,-279 912,-279 912,-279 906,-279 900,-273 900,-267 900,-267 900,-219 900,-219 900,-213 906,-207 912,-207 912,-207 1032,-207 1032,-207 1038,-207 1044,-213 1044,-219 1044,-219 1044,-267 1044,-267 1044,-273 1038,-279 1032,-279"/>
<text xml:space="preserve" text-anchor="middle" x="972" y="-235.28" font-family="Tsukushi A Round Gothic Bold" font-size="18.00">血圧低下</text>
</g>
<!-- shock_cardiogenic&#45;&gt;hypotension -->
<g id="edge70" class="edge">
<title>shock_cardiogenic&#45;&gt;hypotension</title>
<path fill="none" stroke="#7f7f7f" stroke-width="1.4" d="M684.42,-243C684.42,-243 882.58,-243 882.58,-243"/>
<polygon fill="#7f7f7f" stroke="#7f7f7f" stroke-width="1.4" points="882.58,-248.25 897.58,-243 882.58,-237.75 882.58,-248.25"/>
</g>
<!-- patient -->
<g id="node31" class="node">
<title>patient</title>
<ellipse fill="#d8bfaa" stroke="black" cx="72" cy="-1008" rx="72" ry="36"/>
<text xml:space="preserve" text-anchor="middle" x="72" y="-1000.27" font-family="Tsukushi A Round Gothic Bold" font-size="18.00">Aさん</text>
</g>
<!-- patient&#45;&gt;mi -->
<g id="edge2" class="edge">
<title>patient&#45;&gt;mi</title>
<path fill="none" stroke="#c2a38c" stroke-width="2" d="M137.88,-993C235.59,-993 407.5,-993 407.5,-993 407.5,-993 407.5,-724.51 407.5,-724.51"/>
<polygon fill="#c2a38c" stroke="#c2a38c" stroke-width="2" points="411,-724.51 407.5,-714.51 404,-724.51 411,-724.51"/>
</g>
<!-- patient&#45;&gt;copd -->
<g id="edge1" class="edge">
<title>patient&#45;&gt;copd</title>
<path fill="none" stroke="#c2a38c" stroke-width="2" d="M131.08,-1029C167.97,-1029 208.5,-1029 208.5,-1029 208.5,-1029 208.5,-1334.65 208.5,-1334.65"/>
<polygon fill="#c2a38c" stroke="#c2a38c" stroke-width="2" points="205,-1334.65 208.5,-1344.65 212,-1334.65 205,-1334.65"/>
</g>
<!-- hypotension&#45;&gt;consciousness -->
<g id="edge36" class="edge">
<title>hypotension&#45;&gt;consciousness</title>
<path fill="none" stroke="#7f7f7f" stroke-width="1.4" d="M1044.49,-253C1233.09,-253 1724.5,-253 1724.5,-253 1724.5,-253 1724.5,-405.53 1724.5,-405.53"/>
<polygon fill="#7f7f7f" stroke="#7f7f7f" stroke-width="1.4" points="1719.25,-405.53 1724.5,-420.53 1729.75,-405.53 1719.25,-405.53"/>
</g>
<!-- hypotension&#45;&gt;lactate -->
<g id="edge34" class="edge">
<title>hypotension&#45;&gt;lactate</title>
<path fill="none" stroke="#7f7f7f" stroke-width="1.4" d="M1044.16,-266C1091.43,-266 1144.5,-266 1144.5,-266 1144.5,-266 1144.5,-823.49 1144.5,-823.49"/>
<polygon fill="#7f7f7f" stroke="#7f7f7f" stroke-width="1.4" points="1139.25,-823.49 1144.5,-838.49 1149.75,-823.49 1139.25,-823.49"/>
</g>
<!-- hypotension&#45;&gt;renal_flow -->
<g id="edge35" class="edge">
<title>hypotension&#45;&gt;renal_flow</title>
<path fill="none" stroke="#7f7f7f" stroke-width="1.4" d="M971.5,-206.75C971.5,-152.12 971.5,-55 971.5,-55 971.5,-55 1078.71,-55 1078.71,-55"/>
<polygon fill="#7f7f7f" stroke="#7f7f7f" stroke-width="1.4" points="1078.71,-60.25 1093.71,-55 1078.71,-49.75 1078.71,-60.25"/>
</g>
<!-- tachycardia -->
<g id="node44" class="node">
<title>tachycardia</title>
<path fill="none" stroke="black" d="M1228.25,-206C1228.25,-206 1108.25,-206 1108.25,-206 1102.25,-206 1096.25,-200 1096.25,-194 1096.25,-194 1096.25,-146 1096.25,-146 1096.25,-140 1102.25,-134 1108.25,-134 1108.25,-134 1228.25,-134 1228.25,-134 1234.25,-134 1240.25,-140 1240.25,-146 1240.25,-146 1240.25,-194 1240.25,-194 1240.25,-200 1234.25,-206 1228.25,-206"/>
<text xml:space="preserve" text-anchor="middle" x="1168.25" y="-162.28" font-family="Tsukushi A Round Gothic Bold" font-size="18.00">頻脈</text>
</g>
<!-- hypotension&#45;&gt;tachycardia -->
<g id="edge33" class="edge">
<title>hypotension&#45;&gt;tachycardia</title>
<path fill="none" stroke="#7f7f7f" stroke-width="1.4" d="M1044.2,-223.5C1108.51,-223.5 1192.5,-223.5 1192.5,-223.5 1192.5,-223.5 1192.5,-221.78 1192.5,-221.78"/>
<polygon fill="#7f7f7f" stroke="#7f7f7f" stroke-width="1.4" points="1197.75,-223.4 1192.5,-208.4 1187.25,-223.4 1197.75,-223.4"/>
</g>
<!-- mucus_hyper -->
<g id="node33" class="node">
<title>mucus_hyper</title>
<path fill="none" stroke="black" d="M672,-1420C672,-1420 552,-1420 552,-1420 546,-1420 540,-1414 540,-1408 540,-1408 540,-1360 540,-1360 540,-1354 546,-1348 552,-1348 552,-1348 672,-1348 672,-1348 678,-1348 684,-1354 684,-1360 684,-1360 684,-1408 684,-1408 684,-1414 678,-1420 672,-1420"/>
<text xml:space="preserve" text-anchor="middle" x="612" y="-1376.28" font-family="Tsukushi A Round Gothic Bold" font-size="18.00">粘液分泌亢進</text>
</g>
<!-- mucus_hyper&#45;&gt;sputum -->
<g id="edge59" class="edge">
<title>mucus_hyper&#45;&gt;sputum</title>
<path fill="none" stroke="#7f7f7f" stroke-width="1.4" d="M684.43,-1362C684.43,-1362 702.59,-1362 702.59,-1362"/>
<polygon fill="#7f7f7f" stroke="#7f7f7f" stroke-width="1.4" points="702.59,-1367.25 717.59,-1362 702.59,-1356.75 702.59,-1367.25"/>
</g>
<!-- mucus_hyper&#45;&gt;airway_block -->
<g id="edge58" class="edge">
<title>mucus_hyper&#45;&gt;airway_block</title>
<path fill="none" stroke="#7f7f7f" stroke-width="1.4" d="M684.32,-1398C789.3,-1398 971.5,-1398 971.5,-1398 971.5,-1398 971.5,-1393.52 971.5,-1393.52"/>
<polygon fill="#7f7f7f" stroke="#7f7f7f" stroke-width="1.4" points="976.75,-1393.52 971.5,-1378.52 966.25,-1393.52 976.75,-1393.52"/>
</g>
<!-- necrosis&#45;&gt;sensory_deficit -->
<g id="edge63" class="edge">
<title>necrosis&#45;&gt;sensory_deficit</title>
<path fill="none" stroke="#7f7f7f" stroke-width="1.4" d="M1796.93,-177.5C1796.93,-177.5 1815.09,-177.5 1815.09,-177.5"/>
<polygon fill="#7f7f7f" stroke="#7f7f7f" stroke-width="1.4" points="1815.09,-182.75 1830.09,-177.5 1815.09,-172.25 1815.09,-182.75"/>
</g>
<!-- necrosis&#45;&gt;troponin -->
<g id="edge60" class="edge">
<title>necrosis&#45;&gt;troponin</title>
<path fill="none" stroke="#7f7f7f" stroke-width="1.4" d="M1796.82,-236.67C1803.89,-236.67 1808.5,-236.67 1808.5,-236.67 1808.5,-236.67 1808.5,-477.5 1808.5,-477.5 1808.5,-477.5 1815.11,-477.5 1815.11,-477.5"/>
<polygon fill="#7f7f7f" stroke="#7f7f7f" stroke-width="1.4" points="1815.11,-482.75 1830.11,-477.5 1815.11,-472.25 1815.11,-482.75"/>
</g>
<!-- necrosis&#45;&gt;motor_deficit -->
<g id="edge62" class="edge">
<title>necrosis&#45;&gt;motor_deficit</title>
<path fill="none" stroke="#7f7f7f" stroke-width="1.4" d="M1760.5,-240.27C1760.5,-291 1760.5,-377 1760.5,-377 1760.5,-377 1814.96,-377 1814.96,-377"/>
<polygon fill="#7f7f7f" stroke="#7f7f7f" stroke-width="1.4" points="1814.96,-382.25 1829.96,-377 1814.96,-371.75 1814.96,-382.25"/>
</g>
<!-- necrosis&#45;&gt;aphasia -->
<g id="edge64" class="edge">
<title>necrosis&#45;&gt;aphasia</title>
<path fill="none" stroke="#7f7f7f" stroke-width="1.4" d="M1796.93,-233.33C1796.93,-233.33 1815.09,-233.33 1815.09,-233.33"/>
<polygon fill="#7f7f7f" stroke="#7f7f7f" stroke-width="1.4" points="1815.09,-238.58 1830.09,-233.33 1815.09,-228.08 1815.09,-238.58"/>
</g>
<!-- contractility↓ -->
<g id="node41" class="node">
<title>contractility↓</title>
<path fill="none" stroke="black" d="M1964.5,-72C1964.5,-72 1844.5,-72 1844.5,-72 1838.5,-72 1832.5,-66 1832.5,-60 1832.5,-60 1832.5,-12 1832.5,-12 1832.5,-6 1838.5,0 1844.5,0 1844.5,0 1964.5,0 1964.5,0 1970.5,0 1976.5,-6 1976.5,-12 1976.5,-12 1976.5,-60 1976.5,-60 1976.5,-66 1970.5,-72 1964.5,-72"/>
<text xml:space="preserve" text-anchor="middle" x="1904.5" y="-28.27" font-family="Tsukushi A Round Gothic Bold" font-size="18.00">収縮力低下</text>
</g>
<!-- necrosis&#45;&gt;contractility↓ -->
<g id="edge61" class="edge">
<title>necrosis&#45;&gt;contractility↓</title>
<path fill="none" stroke="#7f7f7f" stroke-width="1.4" d="M1724.5,-167.78C1724.5,-127.34 1724.5,-67.5 1724.5,-67.5 1724.5,-67.5 1814.95,-67.5 1814.95,-67.5"/>
<polygon fill="#7f7f7f" stroke="#7f7f7f" stroke-width="1.4" points="1814.95,-72.75 1829.95,-67.5 1814.95,-62.25 1814.95,-72.75"/>
</g>
<!-- inflammation_airway&#45;&gt;mucus_hyper -->
<g id="edge44" class="edge">
<title>inflammation_airway&#45;&gt;mucus_hyper</title>
<path fill="none" stroke="#7f7f7f" stroke-width="1.4" d="M504.43,-1384C504.43,-1384 522.59,-1384 522.59,-1384"/>
<polygon fill="#7f7f7f" stroke="#7f7f7f" stroke-width="1.4" points="522.59,-1389.25 537.59,-1384 522.59,-1378.75 522.59,-1389.25"/>
</g>
<!-- alveolar_damage&#45;&gt;elastic_recoil↓ -->
<g id="edge8" class="edge">
<title>alveolar_damage&#45;&gt;elastic_recoil↓</title>
<path fill="none" stroke="#7f7f7f" stroke-width="1.4" d="M504.43,-1629C504.43,-1629 522.59,-1629 522.59,-1629"/>
<polygon fill="#7f7f7f" stroke="#7f7f7f" stroke-width="1.4" points="522.59,-1634.25 537.59,-1629 522.59,-1623.75 522.59,-1634.25"/>
</g>
<!-- shock&#45;&gt;hypoxia -->
<g id="edge69" class="edge">
<title>shock&#45;&gt;hypoxia</title>
<path fill="none" stroke="#7f7f7f" stroke-width="1.4" d="M1436.93,-877C1436.93,-877 1455.09,-877 1455.09,-877"/>
<polygon fill="#7f7f7f" stroke="#7f7f7f" stroke-width="1.4" points="1455.09,-882.25 1470.09,-877 1455.09,-871.75 1455.09,-882.25"/>
</g>
<!-- fatigue&#45;&gt;adl -->
<g id="edge28" class="edge">
<title>fatigue&#45;&gt;adl</title>
<path fill="none" stroke="#7f7f7f" stroke-width="1.4" d="M1976.92,-927C2012.78,-927 2048.5,-927 2048.5,-927 2048.5,-927 2048.5,-664.37 2048.5,-664.37"/>
<polygon fill="#7f7f7f" stroke="#7f7f7f" stroke-width="1.4" points="2053.75,-664.37 2048.5,-649.37 2043.25,-664.37 2053.75,-664.37"/>
</g>
<!-- ventilation&#45;&gt;gas_exchange -->
<g id="edge72" class="edge">
<title>ventilation&#45;&gt;gas_exchange</title>
<path fill="none" stroke="#7f7f7f" stroke-width="1.4" d="M1240.3,-1260C1287.5,-1260 1340.5,-1260 1340.5,-1260 1340.5,-1260 1340.5,-1219.46 1340.5,-1219.46"/>
<polygon fill="#7f7f7f" stroke="#7f7f7f" stroke-width="1.4" points="1345.75,-1219.46 1340.5,-1204.46 1335.25,-1219.46 1345.75,-1219.46"/>
</g>
<!-- delirium&#45;&gt;adl -->
<g id="edge21" class="edge">
<title>delirium&#45;&gt;adl</title>
<path fill="none" stroke="#7f7f7f" stroke-width="1.4" d="M1976.93,-611C1976.93,-611 1995.09,-611 1995.09,-611"/>
<polygon fill="#7f7f7f" stroke="#7f7f7f" stroke-width="1.4" points="1995.09,-616.25 2010.09,-611 1995.09,-605.75 1995.09,-616.25"/>
</g>
</g>
</svg>
