<?xml version="1.0" encoding="UTF-8" standalone="no"?>
<!DOCTYPE svg PUBLIC "-//W3C//DTD SVG 1.1//EN"
 "http://www.w3.org/Graphics/SVG/1.1/DTD/svg11.dtd">
<!-- Generated by graphviz version 14.1.5 (20260411.2331)
 -->
<!-- Pages: 1 -->
<svg width="571pt" height="734pt"
 viewBox="7.00 7.00 564.00 727.00" xmlns="http://www.w3.org/2000/svg" xmlns:xlink="http://www.w3.org/1999/xlink">
<g id="graph0" class="graph" transform="scale(0.343348 0.343348) rotate(0) translate(24.97 2113.97)">
<polygon fill="white" stroke="none" points="-4,4 -4,-2093 1617,-2093 1617,4 -4,4"/>
<!-- tumor_growth -->
<g id="node1" class="node">
<title>tumor_growth</title>
<path fill="none" stroke="black" d="M492,-1974C492,-1974 372,-1974 372,-1974 366,-1974 360,-1968 360,-1962 360,-1962 360,-1914 360,-1914 360,-1908 366,-1902 372,-1902 372,-1902 492,-1902 492,-1902 498,-1902 504,-1908 504,-1914 504,-1914 504,-1962 504,-1962 504,-1968 498,-1974 492,-1974"/>
<text xml:space="preserve" text-anchor="middle" x="432" y="-1930.28" font-family="Tsukushi A Round Gothic Bold" font-size="18.00">腫瘍増殖</text>
</g>
<!-- nausea -->
<g id="node7" class="node">
<title>nausea</title>
<path fill="none" stroke="black" d="M672,-2089C672,-2089 552,-2089 552,-2089 546,-2089 540,-2083 540,-2077 540,-2077 540,-2029 540,-2029 540,-2023 546,-2017 552,-2017 552,-2017 672,-2017 672,-2017 678,-2017 684,-2023 684,-2029 684,-2029 684,-2077 684,-2077 684,-2083 678,-2089 672,-2089"/>
<text xml:space="preserve" text-anchor="middle" x="612" y="-2045.28" font-family="Tsukushi A Round Gothic Bold" font-size="18.00">悪心</text>
</g>
<!-- tumor_growth&#45;&gt;nausea -->
<g id="edge52" class="edge">
<title>tumor_growth&#45;&gt;nausea</title>
<path fill="none" stroke="#7f7f7f" stroke-width="1.4" d="M432,-1974.39C432,-2011.92 432,-2065 432,-2065 432,-2065 522.45,-2065 522.45,-2065"/>
<polygon fill="#7f7f7f" stroke="#7f7f7f" stroke-width="1.4" points="522.45,-2070.25 537.45,-2065 522.45,-2059.75 522.45,-2070.25"/>
</g>
<!-- early_satiety -->
<g id="node10" class="node">
<title>early_satiety</title>
<path fill="none" stroke="black" d="M672,-1974C672,-1974 552,-1974 552,-1974 546,-1974 540,-1968 540,-1962 540,-1962 540,-1914 540,-1914 540,-1908 546,-1902 552,-1902 552,-1902 672,-1902 672,-1902 678,-1902 684,-1908 684,-1914 684,-1914 684,-1962 684,-1962 684,-1968 678,-1974 672,-1974"/>
<text xml:space="preserve" text-anchor="middle" x="612" y="-1930.28" font-family="Tsukushi A Round Gothic Bold" font-size="18.00">早期膨満感</text>
</g>
<!-- tumor_growth&#45;&gt;early_satiety -->
<g id="edge51" class="edge">
<title>tumor_growth&#45;&gt;early_satiety</title>
<path fill="none" stroke="#7f7f7f" stroke-width="1.4" d="M504.43,-1956C504.43,-1956 522.59,-1956 522.59,-1956"/>
<polygon fill="#7f7f7f" stroke="#7f7f7f" stroke-width="1.4" points="522.59,-1961.25 537.59,-1956 522.59,-1950.75 522.59,-1961.25"/>
</g>
<!-- abdominal_pain -->
<g id="node36" class="node">
<title>abdominal_pain</title>
<path fill="none" stroke="black" d="M672,-1859C672,-1859 552,-1859 552,-1859 546,-1859 540,-1853 540,-1847 540,-1847 540,-1799 540,-1799 540,-1793 546,-1787 552,-1787 552,-1787 672,-1787 672,-1787 678,-1787 684,-1793 684,-1799 684,-1799 684,-1847 684,-1847 684,-1853 678,-1859 672,-1859"/>
<text xml:space="preserve" text-anchor="middle" x="612" y="-1815.28" font-family="Tsukushi A Round Gothic Bold" font-size="18.00">腹痛</text>
</g>
<!-- tumor_growth&#45;&gt;abdominal_pain -->
<g id="edge50" class="edge">
<title>tumor_growth&#45;&gt;abdominal_pain</title>
<path fill="none" stroke="#7f7f7f" stroke-width="1.4" d="M504.22,-1920C514.68,-1920 522,-1920 522,-1920 522,-1920 522,-1815.8 522,-1815.8 522,-1815.8 523.78,-1815.8 523.78,-1815.8"/>
<polygon fill="#7f7f7f" stroke="#7f7f7f" stroke-width="1.4" points="522.66,-1821.05 537.66,-1815.8 522.66,-1810.55 522.66,-1821.05"/>
</g>
<!-- hypotension -->
<g id="node2" class="node">
<title>hypotension</title>
<path fill="none" stroke="black" d="M1053.75,-302C1053.75,-302 933.75,-302 933.75,-302 927.75,-302 921.75,-296 921.75,-290 921.75,-290 921.75,-242 921.75,-242 921.75,-236 927.75,-230 933.75,-230 933.75,-230 1053.75,-230 1053.75,-230 1059.75,-230 1065.75,-236 1065.75,-242 1065.75,-242 1065.75,-290 1065.75,-290 1065.75,-296 1059.75,-302 1053.75,-302"/>
<text xml:space="preserve" text-anchor="middle" x="993.75" y="-258.27" font-family="Tsukushi A Round Gothic Bold" font-size="18.00">血圧低下</text>
</g>
<!-- consciousness -->
<g id="node14" class="node">
<title>consciousness</title>
<path fill="none" stroke="black" d="M1241,-417C1241,-417 1121,-417 1121,-417 1115,-417 1109,-411 1109,-405 1109,-405 1109,-357 1109,-357 1109,-351 1115,-345 1121,-345 1121,-345 1241,-345 1241,-345 1247,-345 1253,-351 1253,-357 1253,-357 1253,-405 1253,-405 1253,-411 1247,-417 1241,-417"/>
<text xml:space="preserve" text-anchor="middle" x="1181" y="-373.27" font-family="Tsukushi A Round Gothic Bold" font-size="18.00">意識レベル低下</text>
</g>
<!-- hypotension&#45;&gt;consciousness -->
<g id="edge38" class="edge">
<title>hypotension&#45;&gt;consciousness</title>
<path fill="none" stroke="#7f7f7f" stroke-width="1.4" d="M1037,-302.31C1037,-331.97 1037,-369 1037,-369 1037,-369 1091.46,-369 1091.46,-369"/>
<polygon fill="#7f7f7f" stroke="#7f7f7f" stroke-width="1.4" points="1091.46,-374.25 1106.46,-369 1091.46,-363.75 1091.46,-374.25"/>
</g>
<!-- lactate -->
<g id="node15" class="node">
<title>lactate</title>
<path fill="none" stroke="black" d="M1241,-302C1241,-302 1121,-302 1121,-302 1115,-302 1109,-296 1109,-290 1109,-290 1109,-242 1109,-242 1109,-236 1115,-230 1121,-230 1121,-230 1241,-230 1241,-230 1247,-230 1253,-236 1253,-242 1253,-242 1253,-290 1253,-290 1253,-296 1247,-302 1241,-302"/>
<text xml:space="preserve" text-anchor="middle" x="1181" y="-258.27" font-family="Tsukushi A Round Gothic Bold" font-size="18.00">乳酸上昇</text>
</g>
<!-- hypotension&#45;&gt;lactate -->
<g id="edge36" class="edge">
<title>hypotension&#45;&gt;lactate</title>
<path fill="none" stroke="#7f7f7f" stroke-width="1.4" d="M1066.15,-266C1066.15,-266 1091.68,-266 1091.68,-266"/>
<polygon fill="#7f7f7f" stroke="#7f7f7f" stroke-width="1.4" points="1091.68,-271.25 1106.68,-266 1091.68,-260.75 1091.68,-271.25"/>
</g>
<!-- tachycardia -->
<g id="node25" class="node">
<title>tachycardia</title>
<path fill="none" stroke="black" d="M1241,-187C1241,-187 1121,-187 1121,-187 1115,-187 1109,-181 1109,-175 1109,-175 1109,-127 1109,-127 1109,-121 1115,-115 1121,-115 1121,-115 1241,-115 1241,-115 1247,-115 1253,-121 1253,-127 1253,-127 1253,-175 1253,-175 1253,-181 1247,-187 1241,-187"/>
<text xml:space="preserve" text-anchor="middle" x="1181" y="-143.28" font-family="Tsukushi A Round Gothic Bold" font-size="18.00">頻脈</text>
</g>
<!-- hypotension&#45;&gt;tachycardia -->
<g id="edge35" class="edge">
<title>hypotension&#45;&gt;tachycardia</title>
<path fill="none" stroke="#7f7f7f" stroke-width="1.4" d="M1018,-229.61C1018,-195.92 1018,-151 1018,-151 1018,-151 1091.44,-151 1091.44,-151"/>
<polygon fill="#7f7f7f" stroke="#7f7f7f" stroke-width="1.4" points="1091.44,-156.25 1106.44,-151 1091.44,-145.75 1091.44,-156.25"/>
</g>
<!-- renal_flow -->
<g id="node27" class="node">
<title>renal_flow</title>
<path fill="none" stroke="black" d="M1241,-72C1241,-72 1121,-72 1121,-72 1115,-72 1109,-66 1109,-60 1109,-60 1109,-12 1109,-12 1109,-6 1115,0 1121,0 1121,0 1241,0 1241,0 1247,0 1253,-6 1253,-12 1253,-12 1253,-60 1253,-60 1253,-66 1247,-72 1241,-72"/>
<text xml:space="preserve" text-anchor="middle" x="1181" y="-28.27" font-family="Tsukushi A Round Gothic Bold" font-size="18.00">腎血流低下</text>
</g>
<!-- hypotension&#45;&gt;renal_flow -->
<g id="edge37" class="edge">
<title>hypotension&#45;&gt;renal_flow</title>
<path fill="none" stroke="#7f7f7f" stroke-width="1.4" d="M970,-229.56C970,-164.7 970,-36 970,-36 970,-36 1091.56,-36 1091.56,-36"/>
<polygon fill="#7f7f7f" stroke="#7f7f7f" stroke-width="1.4" points="1091.56,-41.25 1106.56,-36 1091.56,-30.75 1091.56,-41.25"/>
</g>
<!-- anemia -->
<g id="node3" class="node">
<title>anemia</title>
<path fill="none" stroke="black" d="M859.25,-982C859.25,-982 739.25,-982 739.25,-982 733.25,-982 727.25,-976 727.25,-970 727.25,-970 727.25,-922 727.25,-922 727.25,-916 733.25,-910 739.25,-910 739.25,-910 859.25,-910 859.25,-910 865.25,-910 871.25,-916 871.25,-922 871.25,-922 871.25,-970 871.25,-970 871.25,-976 865.25,-982 859.25,-982"/>
<text xml:space="preserve" text-anchor="middle" x="799.25" y="-938.27" font-family="Tsukushi A Round Gothic Bold" font-size="18.00">貧血</text>
</g>
<!-- hb -->
<g id="node11" class="node">
<title>hb</title>
<path fill="none" stroke="black" d="M1061,-982C1061,-982 926.5,-982 926.5,-982 920.5,-982 914.5,-976 914.5,-970 914.5,-970 914.5,-922 914.5,-922 914.5,-916 920.5,-910 926.5,-910 926.5,-910 1061,-910 1061,-910 1067,-910 1073,-916 1073,-922 1073,-922 1073,-970 1073,-970 1073,-976 1067,-982 1061,-982"/>
<text xml:space="preserve" text-anchor="middle" x="993.75" y="-938.27" font-family="Tsukushi A Round Gothic Bold" font-size="18.00">ヘモグロビン低下</text>
</g>
<!-- anemia&#45;&gt;hb -->
<g id="edge4" class="edge">
<title>anemia&#45;&gt;hb</title>
<path fill="none" stroke="#7f7f7f" stroke-width="1.4" d="M871.67,-946C871.67,-946 896.96,-946 896.96,-946"/>
<polygon fill="#7f7f7f" stroke="#7f7f7f" stroke-width="1.4" points="896.96,-951.25 911.96,-946 896.96,-940.75 896.96,-951.25"/>
</g>
<!-- fatigue -->
<g id="node17" class="node">
<title>fatigue</title>
<path fill="none" stroke="black" d="M1421,-1195C1421,-1195 1301,-1195 1301,-1195 1295,-1195 1289,-1189 1289,-1183 1289,-1183 1289,-1135 1289,-1135 1289,-1129 1295,-1123 1301,-1123 1301,-1123 1421,-1123 1421,-1123 1427,-1123 1433,-1129 1433,-1135 1433,-1135 1433,-1183 1433,-1183 1433,-1189 1427,-1195 1421,-1195"/>
<text xml:space="preserve" text-anchor="middle" x="1361" y="-1151.28" font-family="Tsukushi A Round Gothic Bold" font-size="18.00">倦怠感</text>
</g>
<!-- anemia&#45;&gt;fatigue -->
<g id="edge3" class="edge">
<title>anemia&#45;&gt;fatigue</title>
<path fill="none" stroke="#7f7f7f" stroke-width="1.4" d="M823,-982.13C823,-1042.9 823,-1159 823,-1159 823,-1159 1271.6,-1159 1271.6,-1159"/>
<polygon fill="#7f7f7f" stroke="#7f7f7f" stroke-width="1.4" points="1271.6,-1164.25 1286.6,-1159 1271.6,-1153.75 1271.6,-1164.25"/>
</g>
<!-- hypoxia -->
<g id="node26" class="node">
<title>hypoxia</title>
<path fill="none" stroke="black" d="M1053.75,-798C1053.75,-798 933.75,-798 933.75,-798 927.75,-798 921.75,-792 921.75,-786 921.75,-786 921.75,-738 921.75,-738 921.75,-732 927.75,-726 933.75,-726 933.75,-726 1053.75,-726 1053.75,-726 1059.75,-726 1065.75,-732 1065.75,-738 1065.75,-738 1065.75,-786 1065.75,-786 1065.75,-792 1059.75,-798 1053.75,-798"/>
<text xml:space="preserve" text-anchor="middle" x="993.75" y="-754.27" font-family="Tsukushi A Round Gothic Bold" font-size="18.00">低酸素</text>
</g>
<!-- anemia&#45;&gt;hypoxia -->
<g id="edge2" class="edge">
<title>anemia&#45;&gt;hypoxia</title>
<path fill="none" stroke="#7f7f7f" stroke-width="1.4" d="M799,-909.79C799,-855.81 799,-760.5 799,-760.5 799,-760.5 904.39,-760.5 904.39,-760.5"/>
<polygon fill="#7f7f7f" stroke="#7f7f7f" stroke-width="1.4" points="904.39,-765.75 919.39,-760.5 904.39,-755.25 904.39,-765.75"/>
</g>
<!-- cachexia -->
<g id="node4" class="node">
<title>cachexia</title>
<path fill="none" stroke="black" d="M1053.75,-1629C1053.75,-1629 933.75,-1629 933.75,-1629 927.75,-1629 921.75,-1623 921.75,-1617 921.75,-1617 921.75,-1569 921.75,-1569 921.75,-1563 927.75,-1557 933.75,-1557 933.75,-1557 1053.75,-1557 1053.75,-1557 1059.75,-1557 1065.75,-1563 1065.75,-1569 1065.75,-1569 1065.75,-1617 1065.75,-1617 1065.75,-1623 1059.75,-1629 1053.75,-1629"/>
<text xml:space="preserve" text-anchor="middle" x="993.75" y="-1585.28" font-family="Tsukushi A Round Gothic Bold" font-size="18.00">悪液質</text>
</g>
<!-- cachexia&#45;&gt;fatigue -->
<g id="edge8" class="edge">
<title>cachexia&#45;&gt;fatigue</title>
<path fill="none" stroke="#7f7f7f" stroke-width="1.4" d="M970,-1556.81C970,-1455.6 970,-1177 970,-1177 970,-1177 1271.71,-1177 1271.71,-1177"/>
<polygon fill="#7f7f7f" stroke="#7f7f7f" stroke-width="1.4" points="1271.71,-1182.25 1286.71,-1177 1271.71,-1171.75 1271.71,-1182.25"/>
</g>
<!-- cancer_fatigue -->
<g id="node24" class="node">
<title>cancer_fatigue</title>
<path fill="none" stroke="black" d="M1241,-1629C1241,-1629 1121,-1629 1121,-1629 1115,-1629 1109,-1623 1109,-1617 1109,-1617 1109,-1569 1109,-1569 1109,-1563 1115,-1557 1121,-1557 1121,-1557 1241,-1557 1241,-1557 1247,-1557 1253,-1563 1253,-1569 1253,-1569 1253,-1617 1253,-1617 1253,-1623 1247,-1629 1241,-1629"/>
<text xml:space="preserve" text-anchor="middle" x="1181" y="-1585.28" font-family="Tsukushi A Round Gothic Bold" font-size="18.00">癌性疲労</text>
</g>
<!-- cachexia&#45;&gt;cancer_fatigue -->
<g id="edge7" class="edge">
<title>cachexia&#45;&gt;cancer_fatigue</title>
<path fill="none" stroke="#7f7f7f" stroke-width="1.4" d="M1066.15,-1593C1066.15,-1593 1091.68,-1593 1091.68,-1593"/>
<polygon fill="#7f7f7f" stroke="#7f7f7f" stroke-width="1.4" points="1091.68,-1598.25 1106.68,-1593 1091.68,-1587.75 1091.68,-1598.25"/>
</g>
<!-- weight_loss -->
<g id="node29" class="node">
<title>weight_loss</title>
<path fill="none" stroke="black" d="M1241,-1514C1241,-1514 1121,-1514 1121,-1514 1115,-1514 1109,-1508 1109,-1502 1109,-1502 1109,-1454 1109,-1454 1109,-1448 1115,-1442 1121,-1442 1121,-1442 1241,-1442 1241,-1442 1247,-1442 1253,-1448 1253,-1454 1253,-1454 1253,-1502 1253,-1502 1253,-1508 1247,-1514 1241,-1514"/>
<text xml:space="preserve" text-anchor="middle" x="1181" y="-1470.28" font-family="Tsukushi A Round Gothic Bold" font-size="18.00">体重減少</text>
</g>
<!-- cachexia&#45;&gt;weight_loss -->
<g id="edge5" class="edge">
<title>cachexia&#45;&gt;weight_loss</title>
<path fill="none" stroke="#7f7f7f" stroke-width="1.4" d="M1018,-1556.57C1018,-1525.05 1018,-1484.5 1018,-1484.5 1018,-1484.5 1091.44,-1484.5 1091.44,-1484.5"/>
<polygon fill="#7f7f7f" stroke="#7f7f7f" stroke-width="1.4" points="1091.44,-1489.75 1106.44,-1484.5 1091.44,-1479.25 1091.44,-1489.75"/>
</g>
<!-- malnutrition -->
<g id="node33" class="node">
<title>malnutrition</title>
<path fill="none" stroke="black" d="M1241,-1744C1241,-1744 1121,-1744 1121,-1744 1115,-1744 1109,-1738 1109,-1732 1109,-1732 1109,-1684 1109,-1684 1109,-1678 1115,-1672 1121,-1672 1121,-1672 1241,-1672 1241,-1672 1247,-1672 1253,-1678 1253,-1684 1253,-1684 1253,-1732 1253,-1732 1253,-1738 1247,-1744 1241,-1744"/>
<text xml:space="preserve" text-anchor="middle" x="1181" y="-1700.28" font-family="Tsukushi A Round Gothic Bold" font-size="18.00">低栄養</text>
</g>
<!-- cachexia&#45;&gt;malnutrition -->
<g id="edge6" class="edge">
<title>cachexia&#45;&gt;malnutrition</title>
<path fill="none" stroke="#7f7f7f" stroke-width="1.4" d="M994,-1629.39C994,-1663.08 994,-1708 994,-1708 994,-1708 1091.58,-1708 1091.58,-1708"/>
<polygon fill="#7f7f7f" stroke="#7f7f7f" stroke-width="1.4" points="1091.58,-1713.25 1106.58,-1708 1091.58,-1702.75 1091.58,-1713.25"/>
</g>
<!-- gi_obstruction -->
<g id="node5" class="node">
<title>gi_obstruction</title>
<path fill="none" stroke="black" d="M492,-1859C492,-1859 372,-1859 372,-1859 366,-1859 360,-1853 360,-1847 360,-1847 360,-1799 360,-1799 360,-1793 366,-1787 372,-1787 372,-1787 492,-1787 492,-1787 498,-1787 504,-1793 504,-1799 504,-1799 504,-1847 504,-1847 504,-1853 498,-1859 492,-1859"/>
<text xml:space="preserve" text-anchor="middle" x="432" y="-1815.28" font-family="Tsukushi A Round Gothic Bold" font-size="18.00">消化管通過障害</text>
</g>
<!-- gi_obstruction&#45;&gt;nausea -->
<g id="edge31" class="edge">
<title>gi_obstruction&#45;&gt;nausea</title>
<path fill="none" stroke="#7f7f7f" stroke-width="1.4" d="M504.33,-1844.6C509.66,-1844.6 513,-1844.6 513,-1844.6 513,-1844.6 513,-2041 513,-2041 513,-2041 522.41,-2041 522.41,-2041"/>
<polygon fill="#7f7f7f" stroke="#7f7f7f" stroke-width="1.4" points="522.41,-2046.25 537.41,-2041 522.41,-2035.75 522.41,-2046.25"/>
</g>
<!-- gi_obstruction&#45;&gt;early_satiety -->
<g id="edge34" class="edge">
<title>gi_obstruction&#45;&gt;early_satiety</title>
<path fill="none" stroke="#7f7f7f" stroke-width="1.4" d="M504.47,-1830.2C519.57,-1830.2 531,-1830.2 531,-1830.2 531,-1830.2 531,-1938 531,-1938 531,-1938 531.87,-1938 531.87,-1938"/>
<polygon fill="#7f7f7f" stroke="#7f7f7f" stroke-width="1.4" points="522.55,-1943.25 537.55,-1938 522.55,-1932.75 522.55,-1943.25"/>
</g>
<!-- vomiting -->
<g id="node21" class="node">
<title>vomiting</title>
<path fill="none" stroke="black" d="M672,-1744C672,-1744 552,-1744 552,-1744 546,-1744 540,-1738 540,-1732 540,-1732 540,-1684 540,-1684 540,-1678 546,-1672 552,-1672 552,-1672 672,-1672 672,-1672 678,-1672 684,-1678 684,-1684 684,-1684 684,-1732 684,-1732 684,-1738 678,-1744 672,-1744"/>
<text xml:space="preserve" text-anchor="middle" x="612" y="-1700.28" font-family="Tsukushi A Round Gothic Bold" font-size="18.00">嘔吐</text>
</g>
<!-- gi_obstruction&#45;&gt;vomiting -->
<g id="edge32" class="edge">
<title>gi_obstruction&#45;&gt;vomiting</title>
<path fill="none" stroke="#7f7f7f" stroke-width="1.4" d="M468,-1786.61C468,-1752.92 468,-1708 468,-1708 468,-1708 522.46,-1708 522.46,-1708"/>
<polygon fill="#7f7f7f" stroke="#7f7f7f" stroke-width="1.4" points="522.46,-1713.25 537.46,-1708 522.46,-1702.75 522.46,-1713.25"/>
</g>
<!-- gi_obstruction&#45;&gt;abdominal_pain -->
<g id="edge33" class="edge">
<title>gi_obstruction&#45;&gt;abdominal_pain</title>
<path fill="none" stroke="#7f7f7f" stroke-width="1.4" d="M504.43,-1801.4C504.43,-1801.4 522.59,-1801.4 522.59,-1801.4"/>
<polygon fill="#7f7f7f" stroke="#7f7f7f" stroke-width="1.4" points="522.59,-1806.65 537.59,-1801.4 522.59,-1796.15 522.59,-1806.65"/>
</g>
<!-- cyanosis -->
<g id="node6" class="node">
<title>cyanosis</title>
<path fill="none" stroke="black" d="M1241,-964C1241,-964 1121,-964 1121,-964 1115,-964 1109,-958 1109,-952 1109,-952 1109,-904 1109,-904 1109,-898 1115,-892 1121,-892 1121,-892 1241,-892 1241,-892 1247,-892 1253,-898 1253,-904 1253,-904 1253,-952 1253,-952 1253,-958 1247,-964 1241,-964"/>
<text xml:space="preserve" text-anchor="middle" x="1181" y="-920.27" font-family="Tsukushi A Round Gothic Bold" font-size="18.00">チアノーゼ</text>
</g>
<!-- encephalopathy -->
<g id="node8" class="node">
<title>encephalopathy</title>
<path fill="none" stroke="black" d="M1241,-647C1241,-647 1121,-647 1121,-647 1115,-647 1109,-641 1109,-635 1109,-635 1109,-587 1109,-587 1109,-581 1115,-575 1121,-575 1121,-575 1241,-575 1241,-575 1247,-575 1253,-581 1253,-587 1253,-587 1253,-635 1253,-635 1253,-641 1247,-647 1241,-647"/>
<text xml:space="preserve" text-anchor="middle" x="1181" y="-603.27" font-family="Tsukushi A Round Gothic Bold" font-size="18.00">脳症</text>
</g>
<!-- delirium -->
<g id="node31" class="node">
<title>delirium</title>
<path fill="none" stroke="black" d="M1421,-748C1421,-748 1301,-748 1301,-748 1295,-748 1289,-742 1289,-736 1289,-736 1289,-688 1289,-688 1289,-682 1295,-676 1301,-676 1301,-676 1421,-676 1421,-676 1427,-676 1433,-682 1433,-688 1433,-688 1433,-736 1433,-736 1433,-742 1427,-748 1421,-748"/>
<text xml:space="preserve" text-anchor="middle" x="1361" y="-704.27" font-family="Tsukushi A Round Gothic Bold" font-size="18.00">せん妄</text>
</g>
<!-- encephalopathy&#45;&gt;delirium -->
<g id="edge20" class="edge">
<title>encephalopathy&#45;&gt;delirium</title>
<path fill="none" stroke="#7f7f7f" stroke-width="1.4" d="M1253.43,-640C1303.45,-640 1361,-640 1361,-640 1361,-640 1361,-658.46 1361,-658.46"/>
<polygon fill="#7f7f7f" stroke="#7f7f7f" stroke-width="1.4" points="1355.75,-658.46 1361,-673.46 1366.25,-658.46 1355.75,-658.46"/>
</g>
<!-- adl -->
<g id="node9" class="node">
<title>adl</title>
<path fill="none" stroke="black" d="M1601,-748C1601,-748 1481,-748 1481,-748 1475,-748 1469,-742 1469,-736 1469,-736 1469,-688 1469,-688 1469,-682 1475,-676 1481,-676 1481,-676 1601,-676 1601,-676 1607,-676 1613,-682 1613,-688 1613,-688 1613,-736 1613,-736 1613,-742 1607,-748 1601,-748"/>
<text xml:space="preserve" text-anchor="middle" x="1541" y="-704.27" font-family="Tsukushi A Round Gothic Bold" font-size="18.00">ADL低下</text>
</g>
<!-- patient -->
<g id="node12" class="node">
<title>patient</title>
<ellipse fill="#d8bfaa" stroke="black" cx="72" cy="-1563" rx="72" ry="36"/>
<text xml:space="preserve" text-anchor="middle" x="72" y="-1555.28" font-family="Tsukushi A Round Gothic Bold" font-size="18.00">Aさん</text>
</g>
<!-- gastric_cancer -->
<g id="node18" class="node">
<title>gastric_cancer</title>
<path fill="#efe3d5" stroke="black" d="M312,-1599C312,-1599 192,-1599 192,-1599 186,-1599 180,-1593 180,-1587 180,-1587 180,-1539 180,-1539 180,-1533 186,-1527 192,-1527 192,-1527 312,-1527 312,-1527 318,-1527 324,-1533 324,-1539 324,-1539 324,-1587 324,-1587 324,-1593 318,-1599 312,-1599"/>
<text xml:space="preserve" text-anchor="middle" x="252" y="-1555.28" font-family="Tsukushi A Round Gothic Bold" font-size="18.00">胃がん</text>
</g>
<!-- patient&#45;&gt;gastric_cancer -->
<g id="edge1" class="edge">
<title>patient&#45;&gt;gastric_cancer</title>
<path fill="none" stroke="#c2a38c" stroke-width="2" d="M144.43,-1563C144.43,-1563 166.69,-1563 166.69,-1563"/>
<polygon fill="#c2a38c" stroke="#c2a38c" stroke-width="2" points="166.69,-1566.5 176.69,-1563 166.69,-1559.5 166.69,-1566.5"/>
</g>
<!-- cancer_inflammation -->
<g id="node13" class="node">
<title>cancer_inflammation</title>
<path fill="none" stroke="black" d="M492,-1398C492,-1398 372,-1398 372,-1398 366,-1398 360,-1392 360,-1386 360,-1386 360,-1338 360,-1338 360,-1332 366,-1326 372,-1326 372,-1326 492,-1326 492,-1326 498,-1326 504,-1332 504,-1338 504,-1338 504,-1386 504,-1386 504,-1392 498,-1398 492,-1398"/>
<text xml:space="preserve" text-anchor="middle" x="432" y="-1354.28" font-family="Tsukushi A Round Gothic Bold" font-size="18.00">癌性炎症</text>
</g>
<!-- cancer_inflammation&#45;&gt;fatigue -->
<g id="edge12" class="edge">
<title>cancer_inflammation&#45;&gt;fatigue</title>
<path fill="none" stroke="#7f7f7f" stroke-width="1.4" d="M504.32,-1354.5C716.91,-1354.5 1325,-1354.5 1325,-1354.5 1325,-1354.5 1325,-1212.43 1325,-1212.43"/>
<polygon fill="#7f7f7f" stroke="#7f7f7f" stroke-width="1.4" points="1330.25,-1212.43 1325,-1197.43 1319.75,-1212.43 1330.25,-1212.43"/>
</g>
<!-- crp -->
<g id="node22" class="node">
<title>crp</title>
<path fill="none" stroke="black" d="M672,-1455C672,-1455 552,-1455 552,-1455 546,-1455 540,-1449 540,-1443 540,-1443 540,-1395 540,-1395 540,-1389 546,-1383 552,-1383 552,-1383 672,-1383 672,-1383 678,-1383 684,-1389 684,-1395 684,-1395 684,-1443 684,-1443 684,-1449 678,-1455 672,-1455"/>
<text xml:space="preserve" text-anchor="middle" x="612" y="-1411.28" font-family="Tsukushi A Round Gothic Bold" font-size="18.00">CRP上昇</text>
</g>
<!-- cancer_inflammation&#45;&gt;crp -->
<g id="edge13" class="edge">
<title>cancer_inflammation&#45;&gt;crp</title>
<path fill="none" stroke="#7f7f7f" stroke-width="1.4" d="M504.43,-1390.5C504.43,-1390.5 522.59,-1390.5 522.59,-1390.5"/>
<polygon fill="#7f7f7f" stroke="#7f7f7f" stroke-width="1.4" points="522.59,-1395.75 537.59,-1390.5 522.59,-1385.25 522.59,-1395.75"/>
</g>
<!-- wbc -->
<g id="node28" class="node">
<title>wbc</title>
<path fill="none" stroke="black" d="M672,-1340C672,-1340 552,-1340 552,-1340 546,-1340 540,-1334 540,-1328 540,-1328 540,-1280 540,-1280 540,-1274 546,-1268 552,-1268 552,-1268 672,-1268 672,-1268 678,-1268 684,-1274 684,-1280 684,-1280 684,-1328 684,-1328 684,-1334 678,-1340 672,-1340"/>
<text xml:space="preserve" text-anchor="middle" x="612" y="-1296.28" font-family="Tsukushi A Round Gothic Bold" font-size="18.00">WBC増加</text>
</g>
<!-- cancer_inflammation&#45;&gt;wbc -->
<g id="edge14" class="edge">
<title>cancer_inflammation&#45;&gt;wbc</title>
<path fill="none" stroke="#7f7f7f" stroke-width="1.4" d="M504.43,-1333C504.43,-1333 522.59,-1333 522.59,-1333"/>
<polygon fill="#7f7f7f" stroke="#7f7f7f" stroke-width="1.4" points="522.59,-1338.25 537.59,-1333 522.59,-1327.75 522.59,-1338.25"/>
</g>
<!-- consciousness&#45;&gt;delirium -->
<g id="edge15" class="edge">
<title>consciousness&#45;&gt;delirium</title>
<path fill="none" stroke="#7f7f7f" stroke-width="1.4" d="M1253.27,-381C1266.91,-381 1277,-381 1277,-381 1277,-381 1277,-701 1277,-701 1277,-701 1278.17,-701 1278.17,-701"/>
<polygon fill="#7f7f7f" stroke="#7f7f7f" stroke-width="1.4" points="1271.56,-706.25 1286.56,-701 1271.56,-695.75 1271.56,-706.25"/>
</g>
<!-- cancer_bleeding -->
<g id="node16" class="node">
<title>cancer_bleeding</title>
<path fill="none" stroke="black" d="M492,-1033C492,-1033 372,-1033 372,-1033 366,-1033 360,-1027 360,-1021 360,-1021 360,-973 360,-973 360,-967 366,-961 372,-961 372,-961 492,-961 492,-961 498,-961 504,-967 504,-973 504,-973 504,-1021 504,-1021 504,-1027 498,-1033 492,-1033"/>
<text xml:space="preserve" text-anchor="middle" x="432" y="-989.27" font-family="Tsukushi A Round Gothic Bold" font-size="18.00">腫瘍出血</text>
</g>
<!-- cancer_bleeding&#45;&gt;anemia -->
<g id="edge11" class="edge">
<title>cancer_bleeding&#45;&gt;anemia</title>
<path fill="none" stroke="#7f7f7f" stroke-width="1.4" d="M504.32,-1007.5C604.95,-1007.5 775,-1007.5 775,-1007.5 775,-1007.5 775,-999.6 775,-999.6"/>
<polygon fill="#7f7f7f" stroke="#7f7f7f" stroke-width="1.4" points="780.25,-999.6 775,-984.6 769.75,-999.6 780.25,-999.6"/>
</g>
<!-- gi_bleed -->
<g id="node20" class="node">
<title>gi_bleed</title>
<path fill="none" stroke="black" d="M672,-982C672,-982 552,-982 552,-982 546,-982 540,-976 540,-970 540,-970 540,-922 540,-922 540,-916 546,-910 552,-910 552,-910 672,-910 672,-910 678,-910 684,-916 684,-922 684,-922 684,-970 684,-970 684,-976 678,-982 672,-982"/>
<text xml:space="preserve" text-anchor="middle" x="612" y="-938.27" font-family="Tsukushi A Round Gothic Bold" font-size="18.00">消化管出血</text>
</g>
<!-- cancer_bleeding&#45;&gt;gi_bleed -->
<g id="edge9" class="edge">
<title>cancer_bleeding&#45;&gt;gi_bleed</title>
<path fill="none" stroke="#7f7f7f" stroke-width="1.4" d="M504.43,-971.5C504.43,-971.5 522.59,-971.5 522.59,-971.5"/>
<polygon fill="#7f7f7f" stroke="#7f7f7f" stroke-width="1.4" points="522.59,-976.75 537.59,-971.5 522.59,-966.25 522.59,-976.75"/>
</g>
<!-- melena -->
<g id="node23" class="node">
<title>melena</title>
<path fill="none" stroke="black" d="M672,-867C672,-867 552,-867 552,-867 546,-867 540,-861 540,-855 540,-855 540,-807 540,-807 540,-801 546,-795 552,-795 552,-795 672,-795 672,-795 678,-795 684,-801 684,-807 684,-807 684,-855 684,-855 684,-861 678,-867 672,-867"/>
<text xml:space="preserve" text-anchor="middle" x="612" y="-823.27" font-family="Tsukushi A Round Gothic Bold" font-size="18.00">黒色便</text>
</g>
<!-- cancer_bleeding&#45;&gt;melena -->
<g id="edge10" class="edge">
<title>cancer_bleeding&#45;&gt;melena</title>
<path fill="none" stroke="#7f7f7f" stroke-width="1.4" d="M432,-960.57C432,-911.71 432,-831 432,-831 432,-831 522.45,-831 522.45,-831"/>
<polygon fill="#7f7f7f" stroke="#7f7f7f" stroke-width="1.4" points="522.45,-836.25 537.45,-831 522.45,-825.75 522.45,-836.25"/>
</g>
<!-- fatigue&#45;&gt;adl -->
<g id="edge22" class="edge">
<title>fatigue&#45;&gt;adl</title>
<path fill="none" stroke="#7f7f7f" stroke-width="1.4" d="M1433.06,-1159C1473.94,-1159 1517,-1159 1517,-1159 1517,-1159 1517,-765.32 1517,-765.32"/>
<polygon fill="#7f7f7f" stroke="#7f7f7f" stroke-width="1.4" points="1522.25,-765.32 1517,-750.32 1511.75,-765.32 1522.25,-765.32"/>
</g>
<!-- gastric_cancer&#45;&gt;tumor_growth -->
<g id="edge23" class="edge">
<title>gastric_cancer&#45;&gt;tumor_growth</title>
<path fill="none" stroke="#7f7f7f" stroke-width="1.4" d="M252,-1599.3C252,-1693.41 252,-1938 252,-1938 252,-1938 342.45,-1938 342.45,-1938"/>
<polygon fill="#7f7f7f" stroke="#7f7f7f" stroke-width="1.4" points="342.45,-1943.25 357.45,-1938 342.45,-1932.75 342.45,-1943.25"/>
</g>
<!-- gastric_cancer&#45;&gt;cachexia -->
<g id="edge27" class="edge">
<title>gastric_cancer&#45;&gt;cachexia</title>
<path fill="none" stroke="#7f7f7f" stroke-width="1.4" d="M324.47,-1571C324.47,-1571 904.14,-1571 904.14,-1571"/>
<polygon fill="#7f7f7f" stroke="#7f7f7f" stroke-width="1.4" points="904.14,-1576.25 919.14,-1571 904.14,-1565.75 904.14,-1576.25"/>
</g>
<!-- gastric_cancer&#45;&gt;gi_obstruction -->
<g id="edge26" class="edge">
<title>gastric_cancer&#45;&gt;gi_obstruction</title>
<path fill="none" stroke="#7f7f7f" stroke-width="1.4" d="M324.42,-1585C360.28,-1585 396,-1585 396,-1585 396,-1585 396,-1769.47 396,-1769.47"/>
<polygon fill="#7f7f7f" stroke="#7f7f7f" stroke-width="1.4" points="390.75,-1769.47 396,-1784.47 401.25,-1769.47 390.75,-1769.47"/>
</g>
<!-- gastric_cancer&#45;&gt;cancer_inflammation -->
<g id="edge24" class="edge">
<title>gastric_cancer&#45;&gt;cancer_inflammation</title>
<path fill="none" stroke="#7f7f7f" stroke-width="1.4" d="M324.43,-1537C374.45,-1537 432,-1537 432,-1537 432,-1537 432,-1415.38 432,-1415.38"/>
<polygon fill="#7f7f7f" stroke="#7f7f7f" stroke-width="1.4" points="437.25,-1415.38 432,-1400.38 426.75,-1415.38 437.25,-1415.38"/>
</g>
<!-- gastric_cancer&#45;&gt;cancer_bleeding -->
<g id="edge25" class="edge">
<title>gastric_cancer&#45;&gt;cancer_bleeding</title>
<path fill="none" stroke="#7f7f7f" stroke-width="1.4" d="M252,-1526.73C252,-1401.81 252,-997 252,-997 252,-997 342.45,-997 342.45,-997"/>
<polygon fill="#7f7f7f" stroke="#7f7f7f" stroke-width="1.4" points="342.45,-1002.25 357.45,-997 342.45,-991.75 342.45,-1002.25"/>
</g>
<!-- metastasis -->
<g id="node19" class="node">
<title>metastasis</title>
<path fill="none" stroke="black" d="M859.25,-1441C859.25,-1441 739.25,-1441 739.25,-1441 733.25,-1441 727.25,-1435 727.25,-1429 727.25,-1429 727.25,-1381 727.25,-1381 727.25,-1375 733.25,-1369 739.25,-1369 739.25,-1369 859.25,-1369 859.25,-1369 865.25,-1369 871.25,-1375 871.25,-1381 871.25,-1381 871.25,-1429 871.25,-1429 871.25,-1435 865.25,-1441 859.25,-1441"/>
<text xml:space="preserve" text-anchor="middle" x="799.25" y="-1397.28" font-family="Tsukushi A Round Gothic Bold" font-size="18.00">転移</text>
</g>
<!-- gastric_cancer&#45;&gt;metastasis -->
<g id="edge28" class="edge">
<title>gastric_cancer&#45;&gt;metastasis</title>
<path fill="none" stroke="#7f7f7f" stroke-width="1.4" d="M324.36,-1547C473.02,-1547 799,-1547 799,-1547 799,-1547 799,-1458.32 799,-1458.32"/>
<polygon fill="#7f7f7f" stroke="#7f7f7f" stroke-width="1.4" points="804.25,-1458.32 799,-1443.32 793.75,-1458.32 804.25,-1458.32"/>
</g>
<!-- metastasis&#45;&gt;fatigue -->
<g id="edge48" class="edge">
<title>metastasis&#45;&gt;fatigue</title>
<path fill="none" stroke="#7f7f7f" stroke-width="1.4" d="M871.54,-1405C1023.26,-1405 1361,-1405 1361,-1405 1361,-1405 1361,-1212.42 1361,-1212.42"/>
<polygon fill="#7f7f7f" stroke="#7f7f7f" stroke-width="1.4" points="1366.25,-1212.42 1361,-1197.42 1355.75,-1212.42 1366.25,-1212.42"/>
</g>
<!-- gi_bleed&#45;&gt;anemia -->
<g id="edge29" class="edge">
<title>gi_bleed&#45;&gt;anemia</title>
<path fill="none" stroke="#7f7f7f" stroke-width="1.4" d="M684.4,-958C684.4,-958 709.93,-958 709.93,-958"/>
<polygon fill="#7f7f7f" stroke="#7f7f7f" stroke-width="1.4" points="709.93,-963.25 724.93,-958 709.93,-952.75 709.93,-963.25"/>
</g>
<!-- shock_hypovolemic -->
<g id="node34" class="node">
<title>shock_hypovolemic</title>
<path fill="none" stroke="black" d="M866.5,-619C866.5,-619 732,-619 732,-619 726,-619 720,-613 720,-607 720,-607 720,-559 720,-559 720,-553 726,-547 732,-547 732,-547 866.5,-547 866.5,-547 872.5,-547 878.5,-553 878.5,-559 878.5,-559 878.5,-607 878.5,-607 878.5,-613 872.5,-619 866.5,-619"/>
<text xml:space="preserve" text-anchor="middle" x="799.25" y="-575.27" font-family="Tsukushi A Round Gothic Bold" font-size="18.00">低容量性ショック</text>
</g>
<!-- gi_bleed&#45;&gt;shock_hypovolemic -->
<g id="edge30" class="edge">
<title>gi_bleed&#45;&gt;shock_hypovolemic</title>
<path fill="none" stroke="#7f7f7f" stroke-width="1.4" d="M684.2,-934C705.87,-934 724,-934 724,-934 724,-934 724,-636.36 724,-636.36"/>
<polygon fill="#7f7f7f" stroke="#7f7f7f" stroke-width="1.4" points="729.25,-636.36 724,-621.36 718.75,-636.36 729.25,-636.36"/>
</g>
<!-- hypoxia&#45;&gt;cyanosis -->
<g id="edge43" class="edge">
<title>hypoxia&#45;&gt;cyanosis</title>
<path fill="none" stroke="#7f7f7f" stroke-width="1.4" d="M994,-798.16C994,-839.34 994,-901 994,-901 994,-901 1091.58,-901 1091.58,-901"/>
<polygon fill="#7f7f7f" stroke="#7f7f7f" stroke-width="1.4" points="1091.58,-906.25 1106.58,-901 1091.58,-895.75 1091.58,-906.25"/>
</g>
<!-- hypoxia&#45;&gt;encephalopathy -->
<g id="edge45" class="edge">
<title>hypoxia&#45;&gt;encephalopathy</title>
<path fill="none" stroke="#7f7f7f" stroke-width="1.4" d="M1066.15,-733.33C1118.84,-733.33 1181,-733.33 1181,-733.33 1181,-733.33 1181,-664.49 1181,-664.49"/>
<polygon fill="#7f7f7f" stroke="#7f7f7f" stroke-width="1.4" points="1186.25,-664.49 1181,-649.49 1175.75,-664.49 1186.25,-664.49"/>
</g>
<!-- hypoxia&#45;&gt;consciousness -->
<g id="edge44" class="edge">
<title>hypoxia&#45;&gt;consciousness</title>
<path fill="none" stroke="#7f7f7f" stroke-width="1.4" d="M979,-725.61C979,-632.52 979,-393 979,-393 979,-393 1091.52,-393 1091.52,-393"/>
<polygon fill="#7f7f7f" stroke="#7f7f7f" stroke-width="1.4" points="1091.52,-398.25 1106.52,-393 1091.52,-387.75 1091.52,-398.25"/>
</g>
<!-- hypoxia&#45;&gt;fatigue -->
<g id="edge40" class="edge">
<title>hypoxia&#45;&gt;fatigue</title>
<path fill="none" stroke="#7f7f7f" stroke-width="1.4" d="M1065.87,-762.5C1172.82,-762.5 1361,-762.5 1361,-762.5 1361,-762.5 1361,-1105.64 1361,-1105.64"/>
<polygon fill="#7f7f7f" stroke="#7f7f7f" stroke-width="1.4" points="1355.75,-1105.64 1361,-1120.64 1366.25,-1105.64 1355.75,-1105.64"/>
</g>
<!-- spo2 -->
<g id="node30" class="node">
<title>spo2</title>
<path fill="none" stroke="black" d="M1241,-849C1241,-849 1121,-849 1121,-849 1115,-849 1109,-843 1109,-837 1109,-837 1109,-789 1109,-789 1109,-783 1115,-777 1121,-777 1121,-777 1241,-777 1241,-777 1247,-777 1253,-783 1253,-789 1253,-789 1253,-837 1253,-837 1253,-843 1247,-849 1241,-849"/>
<text xml:space="preserve" text-anchor="middle" x="1181" y="-805.27" font-family="Tsukushi A Round Gothic Bold" font-size="18.00">SpO2低下</text>
</g>
<!-- hypoxia&#45;&gt;spo2 -->
<g id="edge41" class="edge">
<title>hypoxia&#45;&gt;spo2</title>
<path fill="none" stroke="#7f7f7f" stroke-width="1.4" d="M1066.15,-787.5C1066.15,-787.5 1091.68,-787.5 1091.68,-787.5"/>
<polygon fill="#7f7f7f" stroke="#7f7f7f" stroke-width="1.4" points="1091.68,-792.75 1106.68,-787.5 1091.68,-782.25 1091.68,-792.75"/>
</g>
<!-- hypoxia&#45;&gt;delirium -->
<g id="edge42" class="edge">
<title>hypoxia&#45;&gt;delirium</title>
<path fill="none" stroke="#7f7f7f" stroke-width="1.4" d="M1065.87,-740.67C1065.87,-740.67 1271.61,-740.67 1271.61,-740.67"/>
<polygon fill="#7f7f7f" stroke="#7f7f7f" stroke-width="1.4" points="1271.61,-745.92 1286.61,-740.67 1271.61,-735.42 1271.61,-745.92"/>
</g>
<!-- dyspnea -->
<g id="node35" class="node">
<title>dyspnea</title>
<path fill="none" stroke="black" d="M1241,-532C1241,-532 1121,-532 1121,-532 1115,-532 1109,-526 1109,-520 1109,-520 1109,-472 1109,-472 1109,-466 1115,-460 1121,-460 1121,-460 1241,-460 1241,-460 1247,-460 1253,-466 1253,-472 1253,-472 1253,-520 1253,-520 1253,-526 1247,-532 1241,-532"/>
<text xml:space="preserve" text-anchor="middle" x="1181" y="-488.27" font-family="Tsukushi A Round Gothic Bold" font-size="18.00">呼吸困難</text>
</g>
<!-- hypoxia&#45;&gt;dyspnea -->
<g id="edge39" class="edge">
<title>hypoxia&#45;&gt;dyspnea</title>
<path fill="none" stroke="#7f7f7f" stroke-width="1.4" d="M1008,-725.57C1008,-652.72 1008,-496 1008,-496 1008,-496 1091.52,-496 1091.52,-496"/>
<polygon fill="#7f7f7f" stroke="#7f7f7f" stroke-width="1.4" points="1091.52,-501.25 1106.52,-496 1091.52,-490.75 1091.52,-501.25"/>
</g>
<!-- delirium&#45;&gt;adl -->
<g id="edge16" class="edge">
<title>delirium&#45;&gt;adl</title>
<path fill="none" stroke="#7f7f7f" stroke-width="1.4" d="M1433.43,-712C1433.43,-712 1451.59,-712 1451.59,-712"/>
<polygon fill="#7f7f7f" stroke="#7f7f7f" stroke-width="1.4" points="1451.59,-717.25 1466.59,-712 1451.59,-706.75 1451.59,-717.25"/>
</g>
<!-- exercise_intolerance -->
<g id="node32" class="node">
<title>exercise_intolerance</title>
<path fill="none" stroke="black" d="M1421,-633C1421,-633 1301,-633 1301,-633 1295,-633 1289,-627 1289,-621 1289,-621 1289,-573 1289,-573 1289,-567 1295,-561 1301,-561 1301,-561 1421,-561 1421,-561 1427,-561 1433,-567 1433,-573 1433,-573 1433,-621 1433,-621 1433,-627 1427,-633 1421,-633"/>
<text xml:space="preserve" text-anchor="middle" x="1361" y="-589.27" font-family="Tsukushi A Round Gothic Bold" font-size="18.00">運動耐容能低下</text>
</g>
<!-- exercise_intolerance&#45;&gt;adl -->
<g id="edge21" class="edge">
<title>exercise_intolerance&#45;&gt;adl</title>
<path fill="none" stroke="#7f7f7f" stroke-width="1.4" d="M1433.06,-597C1473.94,-597 1517,-597 1517,-597 1517,-597 1517,-658.49 1517,-658.49"/>
<polygon fill="#7f7f7f" stroke="#7f7f7f" stroke-width="1.4" points="1511.75,-658.49 1517,-673.49 1522.25,-658.49 1511.75,-658.49"/>
</g>
<!-- malnutrition&#45;&gt;adl -->
<g id="edge47" class="edge">
<title>malnutrition&#45;&gt;adl</title>
<path fill="none" stroke="#7f7f7f" stroke-width="1.4" d="M1253.23,-1720C1364.46,-1720 1565,-1720 1565,-1720 1565,-1720 1565,-765.59 1565,-765.59"/>
<polygon fill="#7f7f7f" stroke="#7f7f7f" stroke-width="1.4" points="1570.25,-765.59 1565,-750.59 1559.75,-765.59 1570.25,-765.59"/>
</g>
<!-- malnutrition&#45;&gt;fatigue -->
<g id="edge46" class="edge">
<title>malnutrition&#45;&gt;fatigue</title>
<path fill="none" stroke="#7f7f7f" stroke-width="1.4" d="M1253.23,-1696C1316.02,-1696 1397,-1696 1397,-1696 1397,-1696 1397,-1212.61 1397,-1212.61"/>
<polygon fill="#7f7f7f" stroke="#7f7f7f" stroke-width="1.4" points="1402.25,-1212.61 1397,-1197.61 1391.75,-1212.61 1402.25,-1212.61"/>
</g>
<!-- shock_hypovolemic&#45;&gt;hypotension -->
<g id="edge49" class="edge">
<title>shock_hypovolemic&#45;&gt;hypotension</title>
<path fill="none" stroke="#7f7f7f" stroke-width="1.4" d="M878.68,-554C915.4,-554 951,-554 951,-554 951,-554 951,-319.59 951,-319.59"/>
<polygon fill="#7f7f7f" stroke="#7f7f7f" stroke-width="1.4" points="956.25,-319.59 951,-304.59 945.75,-319.59 956.25,-319.59"/>
</g>
<!-- dyspnea&#45;&gt;adl -->
<g id="edge17" class="edge">
<title>dyspnea&#45;&gt;adl</title>
<path fill="none" stroke="#7f7f7f" stroke-width="1.4" d="M1253.23,-508C1364.46,-508 1565,-508 1565,-508 1565,-508 1565,-658.41 1565,-658.41"/>
<polygon fill="#7f7f7f" stroke="#7f7f7f" stroke-width="1.4" points="1559.75,-658.41 1565,-673.41 1570.25,-658.41 1559.75,-658.41"/>
</g>
<!-- dyspnea&#45;&gt;fatigue -->
<g id="edge18" class="edge">
<title>dyspnea&#45;&gt;fatigue</title>
<path fill="none" stroke="#7f7f7f" stroke-width="1.4" d="M1253.32,-484C1260.39,-484 1265,-484 1265,-484 1265,-484 1265,-1141 1265,-1141 1265,-1141 1271.61,-1141 1271.61,-1141"/>
<polygon fill="#7f7f7f" stroke="#7f7f7f" stroke-width="1.4" points="1271.61,-1146.25 1286.61,-1141 1271.61,-1135.75 1271.61,-1146.25"/>
</g>
<!-- dyspnea&#45;&gt;exercise_intolerance -->
<g id="edge19" class="edge">
<title>dyspnea&#45;&gt;exercise_intolerance</title>
<path fill="none" stroke="#7f7f7f" stroke-width="1.4" d="M1181,-532.42C1181,-550.28 1181,-568 1181,-568 1181,-568 1271.45,-568 1271.45,-568"/>
<polygon fill="#7f7f7f" stroke="#7f7f7f" stroke-width="1.4" points="1271.45,-573.25 1286.45,-568 1271.45,-562.75 1271.45,-573.25"/>
</g>
</g>
</svg>
