<?xml version="1.0" encoding="UTF-8" standalone="no"?>
<!DOCTYPE svg PUBLIC "-//W3C//DTD SVG 1.1//EN"
 "http://www.w3.org/Graphics/SVG/1.1/DTD/svg11.dtd">
<!-- Generated by graphviz version 14.1.5 (20260411.2331)
 -->
<!-- Pages: 1 -->
<svg width="731pt" height="734pt"
 viewBox="7.00 7.00 724.00 727.00" xmlns="http://www.w3.org/2000/svg" xmlns:xlink="http://www.w3.org/1999/xlink">
<g id="graph0" class="graph" transform="scale(0.404494 0.404494) rotate(0) translate(21.8 1793.8)">
<polygon fill="white" stroke="none" points="-4,4 -4,-1776 1768,-1776 1768,4 -4,4"/>
<!-- muscle_weakness -->
<g id="node1" class="node">
<title>muscle_weakness</title>
<path fill="none" stroke="black" d="M1392,-1772C1392,-1772 1272,-1772 1272,-1772 1266,-1772 1260,-1766 1260,-1760 1260,-1760 1260,-1712 1260,-1712 1260,-1706 1266,-1700 1272,-1700 1272,-1700 1392,-1700 1392,-1700 1398,-1700 1404,-1706 1404,-1712 1404,-1712 1404,-1760 1404,-1760 1404,-1766 1398,-1772 1392,-1772"/>
<text xml:space="preserve" text-anchor="middle" x="1332" y="-1728.28" font-family="Tsukushi A Round Gothic Bold" font-size="18.00">筋力低下</text>
</g>
<!-- gait_disorder -->
<g id="node36" class="node">
<title>gait_disorder</title>
<path fill="none" stroke="black" d="M1572,-1695C1572,-1695 1452,-1695 1452,-1695 1446,-1695 1440,-1689 1440,-1683 1440,-1683 1440,-1635 1440,-1635 1440,-1629 1446,-1623 1452,-1623 1452,-1623 1572,-1623 1572,-1623 1578,-1623 1584,-1629 1584,-1635 1584,-1635 1584,-1683 1584,-1683 1584,-1689 1578,-1695 1572,-1695"/>
<text xml:space="preserve" text-anchor="middle" x="1512" y="-1651.28" font-family="Tsukushi A Round Gothic Bold" font-size="18.00">歩行障害</text>
</g>
<!-- muscle_weakness&#45;&gt;gait_disorder -->
<g id="edge41" class="edge">
<title>muscle_weakness&#45;&gt;gait_disorder</title>
<path fill="none" stroke="#7f7f7f" stroke-width="1.4" d="M1404.43,-1736C1454.45,-1736 1512,-1736 1512,-1736 1512,-1736 1512,-1712.36 1512,-1712.36"/>
<polygon fill="#7f7f7f" stroke="#7f7f7f" stroke-width="1.4" points="1517.25,-1712.36 1512,-1697.36 1506.75,-1712.36 1517.25,-1712.36"/>
</g>
<!-- svc_syndrome -->
<g id="node2" class="node">
<title>svc_syndrome</title>
<path fill="none" stroke="black" d="M672,-72C672,-72 552,-72 552,-72 546,-72 540,-66 540,-60 540,-60 540,-12 540,-12 540,-6 546,0 552,0 552,0 672,0 672,0 678,0 684,-6 684,-12 684,-12 684,-60 684,-60 684,-66 678,-72 672,-72"/>
<text xml:space="preserve" text-anchor="middle" x="612" y="-28.27" font-family="Tsukushi A Round Gothic Bold" font-size="18.00">上大静脈症候群</text>
</g>
<!-- facial_edema -->
<g id="node32" class="node">
<title>facial_edema</title>
<path fill="none" stroke="black" d="M852,-72C852,-72 732,-72 732,-72 726,-72 720,-66 720,-60 720,-60 720,-12 720,-12 720,-6 726,0 732,0 732,0 852,0 852,0 858,0 864,-6 864,-12 864,-12 864,-60 864,-60 864,-66 858,-72 852,-72"/>
<text xml:space="preserve" text-anchor="middle" x="792" y="-28.27" font-family="Tsukushi A Round Gothic Bold" font-size="18.00">顔面浮腫</text>
</g>
<!-- svc_syndrome&#45;&gt;facial_edema -->
<g id="edge44" class="edge">
<title>svc_syndrome&#45;&gt;facial_edema</title>
<path fill="none" stroke="#7f7f7f" stroke-width="1.4" d="M684.43,-36C684.43,-36 702.59,-36 702.59,-36"/>
<polygon fill="#7f7f7f" stroke="#7f7f7f" stroke-width="1.4" points="702.59,-41.25 717.59,-36 702.59,-30.75 702.59,-41.25"/>
</g>
<!-- appetite_loss -->
<g id="node3" class="node">
<title>appetite_loss</title>
<path fill="none" stroke="black" d="M852,-1598C852,-1598 732,-1598 732,-1598 726,-1598 720,-1592 720,-1586 720,-1586 720,-1538 720,-1538 720,-1532 726,-1526 732,-1526 732,-1526 852,-1526 852,-1526 858,-1526 864,-1532 864,-1538 864,-1538 864,-1586 864,-1586 864,-1592 858,-1598 852,-1598"/>
<text xml:space="preserve" text-anchor="middle" x="792" y="-1554.28" font-family="Tsukushi A Round Gothic Bold" font-size="18.00">食欲低下</text>
</g>
<!-- malnutrition -->
<g id="node17" class="node">
<title>malnutrition</title>
<path fill="none" stroke="black" d="M1032,-1692C1032,-1692 912,-1692 912,-1692 906,-1692 900,-1686 900,-1680 900,-1680 900,-1632 900,-1632 900,-1626 906,-1620 912,-1620 912,-1620 1032,-1620 1032,-1620 1038,-1620 1044,-1626 1044,-1632 1044,-1632 1044,-1680 1044,-1680 1044,-1686 1038,-1692 1032,-1692"/>
<text xml:space="preserve" text-anchor="middle" x="972" y="-1648.28" font-family="Tsukushi A Round Gothic Bold" font-size="18.00">低栄養</text>
</g>
<!-- appetite_loss&#45;&gt;malnutrition -->
<g id="edge3" class="edge">
<title>appetite_loss&#45;&gt;malnutrition</title>
<path fill="none" stroke="#7f7f7f" stroke-width="1.4" d="M864.11,-1562C897.12,-1562 929,-1562 929,-1562 929,-1562 929,-1602.54 929,-1602.54"/>
<polygon fill="#7f7f7f" stroke="#7f7f7f" stroke-width="1.4" points="923.75,-1602.54 929,-1617.54 934.25,-1602.54 923.75,-1602.54"/>
</g>
<!-- brain_metastasis -->
<g id="node4" class="node">
<title>brain_metastasis</title>
<path fill="none" stroke="black" d="M1212,-1169C1212,-1169 1092,-1169 1092,-1169 1086,-1169 1080,-1163 1080,-1157 1080,-1157 1080,-1109 1080,-1109 1080,-1103 1086,-1097 1092,-1097 1092,-1097 1212,-1097 1212,-1097 1218,-1097 1224,-1103 1224,-1109 1224,-1109 1224,-1157 1224,-1157 1224,-1163 1218,-1169 1212,-1169"/>
<text xml:space="preserve" text-anchor="middle" x="1152" y="-1125.28" font-family="Tsukushi A Round Gothic Bold" font-size="18.00">脳転移</text>
</g>
<!-- consciousness -->
<g id="node37" class="node">
<title>consciousness</title>
<path fill="none" stroke="black" d="M1392,-1194C1392,-1194 1272,-1194 1272,-1194 1266,-1194 1260,-1188 1260,-1182 1260,-1182 1260,-1134 1260,-1134 1260,-1128 1266,-1122 1272,-1122 1272,-1122 1392,-1122 1392,-1122 1398,-1122 1404,-1128 1404,-1134 1404,-1134 1404,-1182 1404,-1182 1404,-1188 1398,-1194 1392,-1194"/>
<text xml:space="preserve" text-anchor="middle" x="1332" y="-1150.28" font-family="Tsukushi A Round Gothic Bold" font-size="18.00">意識レベル低下</text>
</g>
<!-- brain_metastasis&#45;&gt;consciousness -->
<g id="edge6" class="edge">
<title>brain_metastasis&#45;&gt;consciousness</title>
<path fill="none" stroke="#7f7f7f" stroke-width="1.4" d="M1224.43,-1153.33C1224.43,-1153.33 1242.59,-1153.33 1242.59,-1153.33"/>
<polygon fill="#7f7f7f" stroke="#7f7f7f" stroke-width="1.4" points="1242.59,-1158.58 1257.59,-1153.33 1242.59,-1148.08 1242.59,-1158.58"/>
</g>
<!-- lung_cancer -->
<g id="node5" class="node">
<title>lung_cancer</title>
<path fill="#efe3d5" stroke="black" d="M312,-1021C312,-1021 192,-1021 192,-1021 186,-1021 180,-1015 180,-1009 180,-1009 180,-961 180,-961 180,-955 186,-949 192,-949 192,-949 312,-949 312,-949 318,-949 324,-955 324,-961 324,-961 324,-1009 324,-1009 324,-1015 318,-1021 312,-1021"/>
<text xml:space="preserve" text-anchor="middle" x="252" y="-977.27" font-family="Tsukushi A Round Gothic Bold" font-size="18.00">肺がん</text>
</g>
<!-- lung_cancer&#45;&gt;brain_metastasis -->
<g id="edge35" class="edge">
<title>lung_cancer&#45;&gt;brain_metastasis</title>
<path fill="none" stroke="#7f7f7f" stroke-width="1.4" d="M288,-1021.2C288,-1065.02 288,-1133 288,-1133 288,-1133 1062.7,-1133 1062.7,-1133"/>
<polygon fill="#7f7f7f" stroke="#7f7f7f" stroke-width="1.4" points="1062.7,-1138.25 1077.7,-1133 1062.7,-1127.75 1062.7,-1138.25"/>
</g>
<!-- pleural_effusion -->
<g id="node15" class="node">
<title>pleural_effusion</title>
<path fill="none" stroke="black" d="M1032,-1244C1032,-1244 912,-1244 912,-1244 906,-1244 900,-1238 900,-1232 900,-1232 900,-1184 900,-1184 900,-1178 906,-1172 912,-1172 912,-1172 1032,-1172 1032,-1172 1038,-1172 1044,-1178 1044,-1184 1044,-1184 1044,-1232 1044,-1232 1044,-1238 1038,-1244 1032,-1244"/>
<text xml:space="preserve" text-anchor="middle" x="972" y="-1200.28" font-family="Tsukushi A Round Gothic Bold" font-size="18.00">胸水</text>
</g>
<!-- lung_cancer&#45;&gt;pleural_effusion -->
<g id="edge32" class="edge">
<title>lung_cancer&#45;&gt;pleural_effusion</title>
<path fill="none" stroke="#7f7f7f" stroke-width="1.4" d="M252,-1021.27C252,-1080.26 252,-1190.5 252,-1190.5 252,-1190.5 882.55,-1190.5 882.55,-1190.5"/>
<polygon fill="#7f7f7f" stroke="#7f7f7f" stroke-width="1.4" points="882.55,-1195.75 897.55,-1190.5 882.55,-1185.25 882.55,-1195.75"/>
</g>
<!-- cachexia -->
<g id="node16" class="node">
<title>cachexia</title>
<path fill="none" stroke="black" d="M672,-1446C672,-1446 552,-1446 552,-1446 546,-1446 540,-1440 540,-1434 540,-1434 540,-1386 540,-1386 540,-1380 546,-1374 552,-1374 552,-1374 672,-1374 672,-1374 678,-1374 684,-1380 684,-1386 684,-1386 684,-1434 684,-1434 684,-1440 678,-1446 672,-1446"/>
<text xml:space="preserve" text-anchor="middle" x="612" y="-1402.28" font-family="Tsukushi A Round Gothic Bold" font-size="18.00">悪液質</text>
</g>
<!-- lung_cancer&#45;&gt;cachexia -->
<g id="edge33" class="edge">
<title>lung_cancer&#45;&gt;cachexia</title>
<path fill="none" stroke="#7f7f7f" stroke-width="1.4" d="M216,-1021.24C216,-1124.01 216,-1410 216,-1410 216,-1410 522.71,-1410 522.71,-1410"/>
<polygon fill="#7f7f7f" stroke="#7f7f7f" stroke-width="1.4" points="522.71,-1415.25 537.71,-1410 522.71,-1404.75 522.71,-1415.25"/>
</g>
<!-- bone_metastasis -->
<g id="node25" class="node">
<title>bone_metastasis</title>
<path fill="none" stroke="black" d="M492,-1021C492,-1021 372,-1021 372,-1021 366,-1021 360,-1015 360,-1009 360,-1009 360,-961 360,-961 360,-955 366,-949 372,-949 372,-949 492,-949 492,-949 498,-949 504,-955 504,-961 504,-961 504,-1009 504,-1009 504,-1015 498,-1021 492,-1021"/>
<text xml:space="preserve" text-anchor="middle" x="432" y="-977.27" font-family="Tsukushi A Round Gothic Bold" font-size="18.00">骨転移</text>
</g>
<!-- lung_cancer&#45;&gt;bone_metastasis -->
<g id="edge34" class="edge">
<title>lung_cancer&#45;&gt;bone_metastasis</title>
<path fill="none" stroke="#7f7f7f" stroke-width="1.4" d="M324.43,-985C324.43,-985 342.59,-985 342.59,-985"/>
<polygon fill="#7f7f7f" stroke="#7f7f7f" stroke-width="1.4" points="342.59,-990.25 357.59,-985 342.59,-979.75 342.59,-990.25"/>
</g>
<!-- tumor_growth -->
<g id="node31" class="node">
<title>tumor_growth</title>
<path fill="none" stroke="black" d="M492,-475C492,-475 372,-475 372,-475 366,-475 360,-469 360,-463 360,-463 360,-415 360,-415 360,-409 366,-403 372,-403 372,-403 492,-403 492,-403 498,-403 504,-409 504,-415 504,-415 504,-463 504,-463 504,-469 498,-475 492,-475"/>
<text xml:space="preserve" text-anchor="middle" x="432" y="-431.27" font-family="Tsukushi A Round Gothic Bold" font-size="18.00">腫瘍増殖</text>
</g>
<!-- lung_cancer&#45;&gt;tumor_growth -->
<g id="edge31" class="edge">
<title>lung_cancer&#45;&gt;tumor_growth</title>
<path fill="none" stroke="#7f7f7f" stroke-width="1.4" d="M252,-948.75C252,-826.81 252,-439 252,-439 252,-439 342.45,-439 342.45,-439"/>
<polygon fill="#7f7f7f" stroke="#7f7f7f" stroke-width="1.4" points="342.45,-444.25 357.45,-439 342.45,-433.75 342.45,-444.25"/>
</g>
<!-- dyspnea -->
<g id="node6" class="node">
<title>dyspnea</title>
<path fill="none" stroke="black" d="M1392,-1309C1392,-1309 1272,-1309 1272,-1309 1266,-1309 1260,-1303 1260,-1297 1260,-1297 1260,-1249 1260,-1249 1260,-1243 1266,-1237 1272,-1237 1272,-1237 1392,-1237 1392,-1237 1398,-1237 1404,-1243 1404,-1249 1404,-1249 1404,-1297 1404,-1297 1404,-1303 1398,-1309 1392,-1309"/>
<text xml:space="preserve" text-anchor="middle" x="1332" y="-1265.28" font-family="Tsukushi A Round Gothic Bold" font-size="18.00">呼吸困難</text>
</g>
<!-- adl -->
<g id="node20" class="node">
<title>adl</title>
<path fill="none" stroke="black" d="M1752,-1454C1752,-1454 1632,-1454 1632,-1454 1626,-1454 1620,-1448 1620,-1442 1620,-1442 1620,-1394 1620,-1394 1620,-1388 1626,-1382 1632,-1382 1632,-1382 1752,-1382 1752,-1382 1758,-1382 1764,-1388 1764,-1394 1764,-1394 1764,-1442 1764,-1442 1764,-1448 1758,-1454 1752,-1454"/>
<text xml:space="preserve" text-anchor="middle" x="1692" y="-1410.28" font-family="Tsukushi A Round Gothic Bold" font-size="18.00">ADL低下</text>
</g>
<!-- dyspnea&#45;&gt;adl -->
<g id="edge14" class="edge">
<title>dyspnea&#45;&gt;adl</title>
<path fill="none" stroke="#7f7f7f" stroke-width="1.4" d="M1404.49,-1304.33C1503.27,-1304.33 1668,-1304.33 1668,-1304.33 1668,-1304.33 1668,-1364.6 1668,-1364.6"/>
<polygon fill="#7f7f7f" stroke="#7f7f7f" stroke-width="1.4" points="1662.75,-1364.6 1668,-1379.6 1673.25,-1364.6 1662.75,-1364.6"/>
</g>
<!-- fatigue -->
<g id="node29" class="node">
<title>fatigue</title>
<path fill="none" stroke="black" d="M1572,-1504C1572,-1504 1452,-1504 1452,-1504 1446,-1504 1440,-1498 1440,-1492 1440,-1492 1440,-1444 1440,-1444 1440,-1438 1446,-1432 1452,-1432 1452,-1432 1572,-1432 1572,-1432 1578,-1432 1584,-1438 1584,-1444 1584,-1444 1584,-1492 1584,-1492 1584,-1498 1578,-1504 1572,-1504"/>
<text xml:space="preserve" text-anchor="middle" x="1512" y="-1460.28" font-family="Tsukushi A Round Gothic Bold" font-size="18.00">倦怠感</text>
</g>
<!-- dyspnea&#45;&gt;fatigue -->
<g id="edge15" class="edge">
<title>dyspnea&#45;&gt;fatigue</title>
<path fill="none" stroke="#7f7f7f" stroke-width="1.4" d="M1404.06,-1306.67C1444.94,-1306.67 1488,-1306.67 1488,-1306.67 1488,-1306.67 1488,-1414.67 1488,-1414.67"/>
<polygon fill="#7f7f7f" stroke="#7f7f7f" stroke-width="1.4" points="1482.75,-1414.67 1488,-1429.67 1493.25,-1414.67 1482.75,-1414.67"/>
</g>
<!-- exercise_intolerance -->
<g id="node33" class="node">
<title>exercise_intolerance</title>
<path fill="none" stroke="black" d="M1572,-1302C1572,-1302 1452,-1302 1452,-1302 1446,-1302 1440,-1296 1440,-1290 1440,-1290 1440,-1242 1440,-1242 1440,-1236 1446,-1230 1452,-1230 1452,-1230 1572,-1230 1572,-1230 1578,-1230 1584,-1236 1584,-1242 1584,-1242 1584,-1290 1584,-1290 1584,-1296 1578,-1302 1572,-1302"/>
<text xml:space="preserve" text-anchor="middle" x="1512" y="-1258.28" font-family="Tsukushi A Round Gothic Bold" font-size="18.00">運動耐容能低下</text>
</g>
<!-- dyspnea&#45;&gt;exercise_intolerance -->
<g id="edge16" class="edge">
<title>dyspnea&#45;&gt;exercise_intolerance</title>
<path fill="none" stroke="#7f7f7f" stroke-width="1.4" d="M1404.43,-1269.5C1404.43,-1269.5 1422.59,-1269.5 1422.59,-1269.5"/>
<polygon fill="#7f7f7f" stroke="#7f7f7f" stroke-width="1.4" points="1422.59,-1274.75 1437.59,-1269.5 1422.59,-1264.25 1422.59,-1274.75"/>
</g>
<!-- cancer_fatigue -->
<g id="node7" class="node">
<title>cancer_fatigue</title>
<path fill="none" stroke="black" d="M852,-1396C852,-1396 732,-1396 732,-1396 726,-1396 720,-1390 720,-1384 720,-1384 720,-1336 720,-1336 720,-1330 726,-1324 732,-1324 732,-1324 852,-1324 852,-1324 858,-1324 864,-1330 864,-1336 864,-1336 864,-1384 864,-1384 864,-1390 858,-1396 852,-1396"/>
<text xml:space="preserve" text-anchor="middle" x="792" y="-1352.28" font-family="Tsukushi A Round Gothic Bold" font-size="18.00">癌性疲労</text>
</g>
<!-- delirium -->
<g id="node8" class="node">
<title>delirium</title>
<path fill="none" stroke="black" d="M1572,-1130C1572,-1130 1452,-1130 1452,-1130 1446,-1130 1440,-1124 1440,-1118 1440,-1118 1440,-1070 1440,-1070 1440,-1064 1446,-1058 1452,-1058 1452,-1058 1572,-1058 1572,-1058 1578,-1058 1584,-1064 1584,-1070 1584,-1070 1584,-1118 1584,-1118 1584,-1124 1578,-1130 1572,-1130"/>
<text xml:space="preserve" text-anchor="middle" x="1512" y="-1086.28" font-family="Tsukushi A Round Gothic Bold" font-size="18.00">せん妄</text>
</g>
<!-- delirium&#45;&gt;adl -->
<g id="edge13" class="edge">
<title>delirium&#45;&gt;adl</title>
<path fill="none" stroke="#7f7f7f" stroke-width="1.4" d="M1584.5,-1094C1643.13,-1094 1716,-1094 1716,-1094 1716,-1094 1716,-1364.66 1716,-1364.66"/>
<polygon fill="#7f7f7f" stroke="#7f7f7f" stroke-width="1.4" points="1710.75,-1364.66 1716,-1379.66 1721.25,-1364.66 1710.75,-1364.66"/>
</g>
<!-- fall_risk -->
<g id="node9" class="node">
<title>fall_risk</title>
<path fill="none" stroke="black" d="M1752,-1695C1752,-1695 1632,-1695 1632,-1695 1626,-1695 1620,-1689 1620,-1683 1620,-1683 1620,-1635 1620,-1635 1620,-1629 1626,-1623 1632,-1623 1632,-1623 1752,-1623 1752,-1623 1758,-1623 1764,-1629 1764,-1635 1764,-1635 1764,-1683 1764,-1683 1764,-1689 1758,-1695 1752,-1695"/>
<text xml:space="preserve" text-anchor="middle" x="1692" y="-1651.28" font-family="Tsukushi A Round Gothic Bold" font-size="18.00">転倒リスク</text>
</g>
<!-- recurrent_laryngeal_nerve_palsy -->
<g id="node10" class="node">
<title>recurrent_laryngeal_nerve_palsy</title>
<path fill="none" stroke="black" d="M672,-647C672,-647 552,-647 552,-647 546,-647 540,-641 540,-635 540,-635 540,-587 540,-587 540,-581 546,-575 552,-575 552,-575 672,-575 672,-575 678,-575 684,-581 684,-587 684,-587 684,-635 684,-635 684,-641 678,-647 672,-647"/>
<text xml:space="preserve" text-anchor="middle" x="612" y="-603.27" font-family="Tsukushi A Round Gothic Bold" font-size="18.00">反回神経麻痺</text>
</g>
<!-- hoarseness -->
<g id="node23" class="node">
<title>hoarseness</title>
<path fill="none" stroke="black" d="M852,-647C852,-647 732,-647 732,-647 726,-647 720,-641 720,-635 720,-635 720,-587 720,-587 720,-581 726,-575 732,-575 732,-575 852,-575 852,-575 858,-575 864,-581 864,-587 864,-587 864,-635 864,-635 864,-641 858,-647 852,-647"/>
<text xml:space="preserve" text-anchor="middle" x="792" y="-603.27" font-family="Tsukushi A Round Gothic Bold" font-size="18.00">嗄声</text>
</g>
<!-- recurrent_laryngeal_nerve_palsy&#45;&gt;hoarseness -->
<g id="edge43" class="edge">
<title>recurrent_laryngeal_nerve_palsy&#45;&gt;hoarseness</title>
<path fill="none" stroke="#7f7f7f" stroke-width="1.4" d="M684.43,-611C684.43,-611 702.59,-611 702.59,-611"/>
<polygon fill="#7f7f7f" stroke="#7f7f7f" stroke-width="1.4" points="702.59,-616.25 717.59,-611 702.59,-605.75 702.59,-616.25"/>
</g>
<!-- spo2 -->
<g id="node11" class="node">
<title>spo2</title>
<path fill="none" stroke="black" d="M1392,-762C1392,-762 1272,-762 1272,-762 1266,-762 1260,-756 1260,-750 1260,-750 1260,-702 1260,-702 1260,-696 1266,-690 1272,-690 1272,-690 1392,-690 1392,-690 1398,-690 1404,-696 1404,-702 1404,-702 1404,-750 1404,-750 1404,-756 1398,-762 1392,-762"/>
<text xml:space="preserve" text-anchor="middle" x="1332" y="-718.27" font-family="Tsukushi A Round Gothic Bold" font-size="18.00">SpO2低下</text>
</g>
<!-- early_satiety -->
<g id="node12" class="node">
<title>early_satiety</title>
<path fill="none" stroke="black" d="M672,-532C672,-532 552,-532 552,-532 546,-532 540,-526 540,-520 540,-520 540,-472 540,-472 540,-466 546,-460 552,-460 552,-460 672,-460 672,-460 678,-460 684,-466 684,-472 684,-472 684,-520 684,-520 684,-526 678,-532 672,-532"/>
<text xml:space="preserve" text-anchor="middle" x="612" y="-488.27" font-family="Tsukushi A Round Gothic Bold" font-size="18.00">早期膨満感</text>
</g>
<!-- cancer_pain -->
<g id="node13" class="node">
<title>cancer_pain</title>
<path fill="none" stroke="black" d="M672,-1079C672,-1079 552,-1079 552,-1079 546,-1079 540,-1073 540,-1067 540,-1067 540,-1019 540,-1019 540,-1013 546,-1007 552,-1007 552,-1007 672,-1007 672,-1007 678,-1007 684,-1013 684,-1019 684,-1019 684,-1067 684,-1067 684,-1073 678,-1079 672,-1079"/>
<text xml:space="preserve" text-anchor="middle" x="612" y="-1035.28" font-family="Tsukushi A Round Gothic Bold" font-size="18.00">癌性疼痛</text>
</g>
<!-- hypoxia -->
<g id="node14" class="node">
<title>hypoxia</title>
<path fill="none" stroke="black" d="M1212,-1029C1212,-1029 1092,-1029 1092,-1029 1086,-1029 1080,-1023 1080,-1017 1080,-1017 1080,-969 1080,-969 1080,-963 1086,-957 1092,-957 1092,-957 1212,-957 1212,-957 1218,-957 1224,-963 1224,-969 1224,-969 1224,-1017 1224,-1017 1224,-1023 1218,-1029 1212,-1029"/>
<text xml:space="preserve" text-anchor="middle" x="1152" y="-985.27" font-family="Tsukushi A Round Gothic Bold" font-size="18.00">低酸素</text>
</g>
<!-- hypoxia&#45;&gt;dyspnea -->
<g id="edge24" class="edge">
<title>hypoxia&#45;&gt;dyspnea</title>
<path fill="none" stroke="#7f7f7f" stroke-width="1.4" d="M1224.22,-1020.2C1234.68,-1020.2 1242,-1020.2 1242,-1020.2 1242,-1020.2 1242,-1239.33 1242,-1239.33 1242,-1239.33 1243.78,-1239.33 1243.78,-1239.33"/>
<polygon fill="#7f7f7f" stroke="#7f7f7f" stroke-width="1.4" points="1242.66,-1244.58 1257.66,-1239.33 1242.66,-1234.08 1242.66,-1244.58"/>
</g>
<!-- hypoxia&#45;&gt;delirium -->
<g id="edge27" class="edge">
<title>hypoxia&#45;&gt;delirium</title>
<path fill="none" stroke="#7f7f7f" stroke-width="1.4" d="M1152,-1029.46C1152,-1056.25 1152,-1088 1152,-1088 1152,-1088 1422.46,-1088 1422.46,-1088"/>
<polygon fill="#7f7f7f" stroke="#7f7f7f" stroke-width="1.4" points="1422.46,-1093.25 1437.46,-1088 1422.46,-1082.75 1422.46,-1093.25"/>
</g>
<!-- hypoxia&#45;&gt;spo2 -->
<g id="edge26" class="edge">
<title>hypoxia&#45;&gt;spo2</title>
<path fill="none" stroke="#7f7f7f" stroke-width="1.4" d="M1152,-956.74C1152,-886.33 1152,-738 1152,-738 1152,-738 1242.45,-738 1242.45,-738"/>
<polygon fill="#7f7f7f" stroke="#7f7f7f" stroke-width="1.4" points="1242.45,-743.25 1257.45,-738 1242.45,-732.75 1242.45,-743.25"/>
</g>
<!-- encephalopathy -->
<g id="node19" class="node">
<title>encephalopathy</title>
<path fill="none" stroke="black" d="M1392,-1079C1392,-1079 1272,-1079 1272,-1079 1266,-1079 1260,-1073 1260,-1067 1260,-1067 1260,-1019 1260,-1019 1260,-1013 1266,-1007 1272,-1007 1272,-1007 1392,-1007 1392,-1007 1398,-1007 1404,-1013 1404,-1019 1404,-1019 1404,-1067 1404,-1067 1404,-1073 1398,-1079 1392,-1079"/>
<text xml:space="preserve" text-anchor="middle" x="1332" y="-1035.28" font-family="Tsukushi A Round Gothic Bold" font-size="18.00">脳症</text>
</g>
<!-- hypoxia&#45;&gt;encephalopathy -->
<g id="edge30" class="edge">
<title>hypoxia&#45;&gt;encephalopathy</title>
<path fill="none" stroke="#7f7f7f" stroke-width="1.4" d="M1224.43,-1011.4C1224.43,-1011.4 1242.59,-1011.4 1242.59,-1011.4"/>
<polygon fill="#7f7f7f" stroke="#7f7f7f" stroke-width="1.4" points="1242.59,-1016.65 1257.59,-1011.4 1242.59,-1006.15 1242.59,-1016.65"/>
</g>
<!-- cyanosis -->
<g id="node28" class="node">
<title>cyanosis</title>
<path fill="none" stroke="black" d="M1392,-877C1392,-877 1272,-877 1272,-877 1266,-877 1260,-871 1260,-865 1260,-865 1260,-817 1260,-817 1260,-811 1266,-805 1272,-805 1272,-805 1392,-805 1392,-805 1398,-805 1404,-811 1404,-817 1404,-817 1404,-865 1404,-865 1404,-871 1398,-877 1392,-877"/>
<text xml:space="preserve" text-anchor="middle" x="1332" y="-833.27" font-family="Tsukushi A Round Gothic Bold" font-size="18.00">チアノーゼ</text>
</g>
<!-- hypoxia&#45;&gt;cyanosis -->
<g id="edge28" class="edge">
<title>hypoxia&#45;&gt;cyanosis</title>
<path fill="none" stroke="#7f7f7f" stroke-width="1.4" d="M1224.43,-982C1274.45,-982 1332,-982 1332,-982 1332,-982 1332,-894.43 1332,-894.43"/>
<polygon fill="#7f7f7f" stroke="#7f7f7f" stroke-width="1.4" points="1337.25,-894.43 1332,-879.43 1326.75,-894.43 1337.25,-894.43"/>
</g>
<!-- hypoxia&#45;&gt;fatigue -->
<g id="edge25" class="edge">
<title>hypoxia&#45;&gt;fatigue</title>
<path fill="none" stroke="#7f7f7f" stroke-width="1.4" d="M1224.33,-1024.6C1229.66,-1024.6 1233,-1024.6 1233,-1024.6 1233,-1024.6 1233,-1434.8 1233,-1434.8 1233,-1434.8 1422.67,-1434.8 1422.67,-1434.8"/>
<polygon fill="#7f7f7f" stroke="#7f7f7f" stroke-width="1.4" points="1422.67,-1440.05 1437.67,-1434.8 1422.67,-1429.55 1422.67,-1440.05"/>
</g>
<!-- hypoxia&#45;&gt;consciousness -->
<g id="edge29" class="edge">
<title>hypoxia&#45;&gt;consciousness</title>
<path fill="none" stroke="#7f7f7f" stroke-width="1.4" d="M1224.47,-1015.8C1239.57,-1015.8 1251,-1015.8 1251,-1015.8 1251,-1015.8 1251,-1137.67 1251,-1137.67 1251,-1137.67 1251.87,-1137.67 1251.87,-1137.67"/>
<polygon fill="#7f7f7f" stroke="#7f7f7f" stroke-width="1.4" points="1242.55,-1142.92 1257.55,-1137.67 1242.55,-1132.42 1242.55,-1142.92"/>
</g>
<!-- pleural_effusion&#45;&gt;dyspnea -->
<g id="edge42" class="edge">
<title>pleural_effusion&#45;&gt;dyspnea</title>
<path fill="none" stroke="#7f7f7f" stroke-width="1.4" d="M1044.42,-1241.67C1044.42,-1241.67 1242.58,-1241.67 1242.58,-1241.67"/>
<polygon fill="#7f7f7f" stroke="#7f7f7f" stroke-width="1.4" points="1242.58,-1246.92 1257.58,-1241.67 1242.58,-1236.42 1242.58,-1246.92"/>
</g>
<!-- cachexia&#45;&gt;appetite_loss -->
<g id="edge11" class="edge">
<title>cachexia&#45;&gt;appetite_loss</title>
<path fill="none" stroke="#7f7f7f" stroke-width="1.4" d="M684.43,-1443.2C734.45,-1443.2 792,-1443.2 792,-1443.2 792,-1443.2 792,-1508.59 792,-1508.59"/>
<polygon fill="#7f7f7f" stroke="#7f7f7f" stroke-width="1.4" points="786.75,-1508.59 792,-1523.59 797.25,-1508.59 786.75,-1508.59"/>
</g>
<!-- cachexia&#45;&gt;cancer_fatigue -->
<g id="edge9" class="edge">
<title>cachexia&#45;&gt;cancer_fatigue</title>
<path fill="none" stroke="#7f7f7f" stroke-width="1.4" d="M684.43,-1385C684.43,-1385 702.59,-1385 702.59,-1385"/>
<polygon fill="#7f7f7f" stroke="#7f7f7f" stroke-width="1.4" points="702.59,-1390.25 717.59,-1385 702.59,-1379.75 702.59,-1390.25"/>
</g>
<!-- cachexia&#45;&gt;malnutrition -->
<g id="edge8" class="edge">
<title>cachexia&#45;&gt;malnutrition</title>
<path fill="none" stroke="#7f7f7f" stroke-width="1.4" d="M684.11,-1440.4C785.51,-1440.4 958,-1440.4 958,-1440.4 958,-1440.4 958,-1602.79 958,-1602.79"/>
<polygon fill="#7f7f7f" stroke="#7f7f7f" stroke-width="1.4" points="952.75,-1602.79 958,-1617.79 963.25,-1602.79 952.75,-1602.79"/>
</g>
<!-- cachexia&#45;&gt;fatigue -->
<g id="edge10" class="edge">
<title>cachexia&#45;&gt;fatigue</title>
<path fill="none" stroke="#7f7f7f" stroke-width="1.4" d="M684.13,-1437.6C684.13,-1437.6 1422.41,-1437.6 1422.41,-1437.6"/>
<polygon fill="#7f7f7f" stroke="#7f7f7f" stroke-width="1.4" points="1422.41,-1442.85 1437.41,-1437.6 1422.41,-1432.35 1422.41,-1442.85"/>
</g>
<!-- weight_loss -->
<g id="node34" class="node">
<title>weight_loss</title>
<path fill="none" stroke="black" d="M852,-1281C852,-1281 732,-1281 732,-1281 726,-1281 720,-1275 720,-1269 720,-1269 720,-1221 720,-1221 720,-1215 726,-1209 732,-1209 732,-1209 852,-1209 852,-1209 858,-1209 864,-1215 864,-1221 864,-1221 864,-1269 864,-1269 864,-1275 858,-1281 852,-1281"/>
<text xml:space="preserve" text-anchor="middle" x="792" y="-1237.28" font-family="Tsukushi A Round Gothic Bold" font-size="18.00">体重減少</text>
</g>
<!-- cachexia&#45;&gt;weight_loss -->
<g id="edge7" class="edge">
<title>cachexia&#45;&gt;weight_loss</title>
<path fill="none" stroke="#7f7f7f" stroke-width="1.4" d="M612,-1373.79C612,-1325.22 612,-1245 612,-1245 612,-1245 702.45,-1245 702.45,-1245"/>
<polygon fill="#7f7f7f" stroke="#7f7f7f" stroke-width="1.4" points="702.45,-1250.25 717.45,-1245 702.45,-1239.75 702.45,-1250.25"/>
</g>
<!-- muscle_atrophy -->
<g id="node18" class="node">
<title>muscle_atrophy</title>
<path fill="none" stroke="black" d="M1212,-1692C1212,-1692 1092,-1692 1092,-1692 1086,-1692 1080,-1686 1080,-1680 1080,-1680 1080,-1632 1080,-1632 1080,-1626 1086,-1620 1092,-1620 1092,-1620 1212,-1620 1212,-1620 1218,-1620 1224,-1626 1224,-1632 1224,-1632 1224,-1680 1224,-1680 1224,-1686 1218,-1692 1212,-1692"/>
<text xml:space="preserve" text-anchor="middle" x="1152" y="-1648.28" font-family="Tsukushi A Round Gothic Bold" font-size="18.00">筋萎縮</text>
</g>
<!-- malnutrition&#45;&gt;muscle_atrophy -->
<g id="edge38" class="edge">
<title>malnutrition&#45;&gt;muscle_atrophy</title>
<path fill="none" stroke="#7f7f7f" stroke-width="1.4" d="M1044.43,-1656C1044.43,-1656 1062.59,-1656 1062.59,-1656"/>
<polygon fill="#7f7f7f" stroke="#7f7f7f" stroke-width="1.4" points="1062.59,-1661.25 1077.59,-1656 1062.59,-1650.75 1062.59,-1661.25"/>
</g>
<!-- malnutrition&#45;&gt;adl -->
<g id="edge37" class="edge">
<title>malnutrition&#45;&gt;adl</title>
<path fill="none" stroke="#7f7f7f" stroke-width="1.4" d="M986,-1619.51C986,-1551.9 986,-1414 986,-1414 986,-1414 1602.64,-1414 1602.64,-1414"/>
<polygon fill="#7f7f7f" stroke="#7f7f7f" stroke-width="1.4" points="1602.64,-1419.25 1617.64,-1414 1602.64,-1408.75 1602.64,-1419.25"/>
</g>
<!-- malnutrition&#45;&gt;fatigue -->
<g id="edge36" class="edge">
<title>malnutrition&#45;&gt;fatigue</title>
<path fill="none" stroke="#7f7f7f" stroke-width="1.4" d="M1015,-1619.69C1015,-1564.37 1015,-1465.33 1015,-1465.33 1015,-1465.33 1422.61,-1465.33 1422.61,-1465.33"/>
<polygon fill="#7f7f7f" stroke="#7f7f7f" stroke-width="1.4" points="1422.61,-1470.58 1437.61,-1465.33 1422.61,-1460.08 1422.61,-1470.58"/>
</g>
<!-- muscle_atrophy&#45;&gt;muscle_weakness -->
<g id="edge39" class="edge">
<title>muscle_atrophy&#45;&gt;muscle_weakness</title>
<path fill="none" stroke="#7f7f7f" stroke-width="1.4" d="M1224.43,-1657.5C1274.45,-1657.5 1332,-1657.5 1332,-1657.5 1332,-1657.5 1332,-1682.39 1332,-1682.39"/>
<polygon fill="#7f7f7f" stroke="#7f7f7f" stroke-width="1.4" points="1326.75,-1682.39 1332,-1697.39 1337.25,-1682.39 1326.75,-1682.39"/>
</g>
<!-- muscle_atrophy&#45;&gt;fatigue -->
<g id="edge40" class="edge">
<title>muscle_atrophy&#45;&gt;fatigue</title>
<path fill="none" stroke="#7f7f7f" stroke-width="1.4" d="M1152,-1619.66C1152,-1569.37 1152,-1484.67 1152,-1484.67 1152,-1484.67 1422.46,-1484.67 1422.46,-1484.67"/>
<polygon fill="#7f7f7f" stroke="#7f7f7f" stroke-width="1.4" points="1422.46,-1489.92 1437.46,-1484.67 1422.46,-1479.42 1422.46,-1489.92"/>
</g>
<!-- encephalopathy&#45;&gt;delirium -->
<g id="edge17" class="edge">
<title>encephalopathy&#45;&gt;delirium</title>
<path fill="none" stroke="#7f7f7f" stroke-width="1.4" d="M1404.43,-1068.5C1404.43,-1068.5 1422.59,-1068.5 1422.59,-1068.5"/>
<polygon fill="#7f7f7f" stroke="#7f7f7f" stroke-width="1.4" points="1422.59,-1073.75 1437.59,-1068.5 1422.59,-1063.25 1422.59,-1073.75"/>
</g>
<!-- patient -->
<g id="node21" class="node">
<title>patient</title>
<ellipse fill="#d8bfaa" stroke="black" cx="72" cy="-985" rx="72" ry="36"/>
<text xml:space="preserve" text-anchor="middle" x="72" y="-977.27" font-family="Tsukushi A Round Gothic Bold" font-size="18.00">Aさん</text>
</g>
<!-- patient&#45;&gt;lung_cancer -->
<g id="edge1" class="edge">
<title>patient&#45;&gt;lung_cancer</title>
<path fill="none" stroke="#c2a38c" stroke-width="2" d="M144.43,-985C144.43,-985 166.69,-985 166.69,-985"/>
<polygon fill="#c2a38c" stroke="#c2a38c" stroke-width="2" points="166.69,-988.5 176.69,-985 166.69,-981.5 166.69,-988.5"/>
</g>
<!-- abdominal_pain -->
<g id="node22" class="node">
<title>abdominal_pain</title>
<path fill="none" stroke="black" d="M672,-417C672,-417 552,-417 552,-417 546,-417 540,-411 540,-405 540,-405 540,-357 540,-357 540,-351 546,-345 552,-345 552,-345 672,-345 672,-345 678,-345 684,-351 684,-357 684,-357 684,-405 684,-405 684,-411 678,-417 672,-417"/>
<text xml:space="preserve" text-anchor="middle" x="612" y="-373.27" font-family="Tsukushi A Round Gothic Bold" font-size="18.00">腹痛</text>
</g>
<!-- ventilation -->
<g id="node24" class="node">
<title>ventilation</title>
<path fill="none" stroke="black" d="M852,-762C852,-762 732,-762 732,-762 726,-762 720,-756 720,-750 720,-750 720,-702 720,-702 720,-696 726,-690 732,-690 732,-690 852,-690 852,-690 858,-690 864,-696 864,-702 864,-702 864,-750 864,-750 864,-756 858,-762 852,-762"/>
<text xml:space="preserve" text-anchor="middle" x="792" y="-718.27" font-family="Tsukushi A Round Gothic Bold" font-size="18.00">換気低下</text>
</g>
<!-- gas_exchange -->
<g id="node27" class="node">
<title>gas_exchange</title>
<path fill="none" stroke="black" d="M1032,-762C1032,-762 912,-762 912,-762 906,-762 900,-756 900,-750 900,-750 900,-702 900,-702 900,-696 906,-690 912,-690 912,-690 1032,-690 1032,-690 1038,-690 1044,-696 1044,-702 1044,-702 1044,-750 1044,-750 1044,-756 1038,-762 1032,-762"/>
<text xml:space="preserve" text-anchor="middle" x="972" y="-718.27" font-family="Tsukushi A Round Gothic Bold" font-size="18.00">ガス交換障害</text>
</g>
<!-- ventilation&#45;&gt;gas_exchange -->
<g id="edge52" class="edge">
<title>ventilation&#45;&gt;gas_exchange</title>
<path fill="none" stroke="#7f7f7f" stroke-width="1.4" d="M864.43,-726C864.43,-726 882.59,-726 882.59,-726"/>
<polygon fill="#7f7f7f" stroke="#7f7f7f" stroke-width="1.4" points="882.59,-731.25 897.59,-726 882.59,-720.75 882.59,-731.25"/>
</g>
<!-- bone_metastasis&#45;&gt;cancer_pain -->
<g id="edge5" class="edge">
<title>bone_metastasis&#45;&gt;cancer_pain</title>
<path fill="none" stroke="#7f7f7f" stroke-width="1.4" d="M504.43,-1014C504.43,-1014 522.59,-1014 522.59,-1014"/>
<polygon fill="#7f7f7f" stroke="#7f7f7f" stroke-width="1.4" points="522.59,-1019.25 537.59,-1014 522.59,-1008.75 522.59,-1019.25"/>
</g>
<!-- bone_pain -->
<g id="node38" class="node">
<title>bone_pain</title>
<path fill="none" stroke="black" d="M672,-964C672,-964 552,-964 552,-964 546,-964 540,-958 540,-952 540,-952 540,-904 540,-904 540,-898 546,-892 552,-892 552,-892 672,-892 672,-892 678,-892 684,-898 684,-904 684,-904 684,-952 684,-952 684,-958 678,-964 672,-964"/>
<text xml:space="preserve" text-anchor="middle" x="612" y="-920.27" font-family="Tsukushi A Round Gothic Bold" font-size="18.00">骨痛</text>
</g>
<!-- bone_metastasis&#45;&gt;bone_pain -->
<g id="edge4" class="edge">
<title>bone_metastasis&#45;&gt;bone_pain</title>
<path fill="none" stroke="#7f7f7f" stroke-width="1.4" d="M504.43,-956.5C504.43,-956.5 522.59,-956.5 522.59,-956.5"/>
<polygon fill="#7f7f7f" stroke="#7f7f7f" stroke-width="1.4" points="522.59,-961.75 537.59,-956.5 522.59,-951.25 522.59,-961.75"/>
</g>
<!-- airway_stenosis -->
<g id="node26" class="node">
<title>airway_stenosis</title>
<path fill="none" stroke="black" d="M672,-762C672,-762 552,-762 552,-762 546,-762 540,-756 540,-750 540,-750 540,-702 540,-702 540,-696 546,-690 552,-690 552,-690 672,-690 672,-690 678,-690 684,-696 684,-702 684,-702 684,-750 684,-750 684,-756 678,-762 672,-762"/>
<text xml:space="preserve" text-anchor="middle" x="612" y="-718.27" font-family="Tsukushi A Round Gothic Bold" font-size="18.00">気道狭窄</text>
</g>
<!-- airway_stenosis&#45;&gt;ventilation -->
<g id="edge2" class="edge">
<title>airway_stenosis&#45;&gt;ventilation</title>
<path fill="none" stroke="#7f7f7f" stroke-width="1.4" d="M684.43,-726C684.43,-726 702.59,-726 702.59,-726"/>
<polygon fill="#7f7f7f" stroke="#7f7f7f" stroke-width="1.4" points="702.59,-731.25 717.59,-726 702.59,-720.75 702.59,-731.25"/>
</g>
<!-- gas_exchange&#45;&gt;spo2 -->
<g id="edge23" class="edge">
<title>gas_exchange&#45;&gt;spo2</title>
<path fill="none" stroke="#7f7f7f" stroke-width="1.4" d="M1044.42,-714C1044.42,-714 1242.58,-714 1242.58,-714"/>
<polygon fill="#7f7f7f" stroke="#7f7f7f" stroke-width="1.4" points="1242.58,-719.25 1257.58,-714 1242.58,-708.75 1242.58,-719.25"/>
</g>
<!-- gas_exchange&#45;&gt;hypoxia -->
<g id="edge22" class="edge">
<title>gas_exchange&#45;&gt;hypoxia</title>
<path fill="none" stroke="#7f7f7f" stroke-width="1.4" d="M972,-762.38C972,-828.25 972,-960.5 972,-960.5 972,-960.5 1062.45,-960.5 1062.45,-960.5"/>
<polygon fill="#7f7f7f" stroke="#7f7f7f" stroke-width="1.4" points="1062.45,-965.75 1077.45,-960.5 1062.45,-955.25 1062.45,-965.75"/>
</g>
<!-- fatigue&#45;&gt;adl -->
<g id="edge19" class="edge">
<title>fatigue&#45;&gt;adl</title>
<path fill="none" stroke="#7f7f7f" stroke-width="1.4" d="M1584.43,-1439.33C1584.43,-1439.33 1602.59,-1439.33 1602.59,-1439.33"/>
<polygon fill="#7f7f7f" stroke="#7f7f7f" stroke-width="1.4" points="1602.59,-1444.58 1617.59,-1439.33 1602.59,-1434.08 1602.59,-1444.58"/>
</g>
<!-- nausea -->
<g id="node30" class="node">
<title>nausea</title>
<path fill="none" stroke="black" d="M672,-302C672,-302 552,-302 552,-302 546,-302 540,-296 540,-290 540,-290 540,-242 540,-242 540,-236 546,-230 552,-230 552,-230 672,-230 672,-230 678,-230 684,-236 684,-242 684,-242 684,-290 684,-290 684,-296 678,-302 672,-302"/>
<text xml:space="preserve" text-anchor="middle" x="612" y="-258.27" font-family="Tsukushi A Round Gothic Bold" font-size="18.00">悪心</text>
</g>
<!-- tumor_growth&#45;&gt;svc_syndrome -->
<g id="edge51" class="edge">
<title>tumor_growth&#45;&gt;svc_syndrome</title>
<path fill="none" stroke="#7f7f7f" stroke-width="1.4" d="M396,-402.53C396,-303.32 396,-36 396,-36 396,-36 522.66,-36 522.66,-36"/>
<polygon fill="#7f7f7f" stroke="#7f7f7f" stroke-width="1.4" points="522.66,-41.25 537.66,-36 522.66,-30.75 522.66,-41.25"/>
</g>
<!-- tumor_growth&#45;&gt;recurrent_laryngeal_nerve_palsy -->
<g id="edge50" class="edge">
<title>tumor_growth&#45;&gt;recurrent_laryngeal_nerve_palsy</title>
<path fill="none" stroke="#7f7f7f" stroke-width="1.4" d="M456,-475.48C456,-525.97 456,-611 456,-611 456,-611 522.82,-611 522.82,-611"/>
<polygon fill="#7f7f7f" stroke="#7f7f7f" stroke-width="1.4" points="522.82,-616.25 537.82,-611 522.82,-605.75 522.82,-616.25"/>
</g>
<!-- tumor_growth&#45;&gt;early_satiety -->
<g id="edge46" class="edge">
<title>tumor_growth&#45;&gt;early_satiety</title>
<path fill="none" stroke="#7f7f7f" stroke-width="1.4" d="M504.43,-467.5C504.43,-467.5 522.59,-467.5 522.59,-467.5"/>
<polygon fill="#7f7f7f" stroke="#7f7f7f" stroke-width="1.4" points="522.59,-472.75 537.59,-467.5 522.59,-462.25 522.59,-472.75"/>
</g>
<!-- tumor_growth&#45;&gt;abdominal_pain -->
<g id="edge45" class="edge">
<title>tumor_growth&#45;&gt;abdominal_pain</title>
<path fill="none" stroke="#7f7f7f" stroke-width="1.4" d="M504.43,-410C504.43,-410 522.59,-410 522.59,-410"/>
<polygon fill="#7f7f7f" stroke="#7f7f7f" stroke-width="1.4" points="522.59,-415.25 537.59,-410 522.59,-404.75 522.59,-415.25"/>
</g>
<!-- tumor_growth&#45;&gt;airway_stenosis -->
<g id="edge48" class="edge">
<title>tumor_growth&#45;&gt;airway_stenosis</title>
<path fill="none" stroke="#7f7f7f" stroke-width="1.4" d="M408,-475.35C408,-552.58 408,-726 408,-726 408,-726 522.38,-726 522.38,-726"/>
<polygon fill="#7f7f7f" stroke="#7f7f7f" stroke-width="1.4" points="522.38,-731.25 537.38,-726 522.38,-720.75 522.38,-731.25"/>
</g>
<!-- tumor_growth&#45;&gt;nausea -->
<g id="edge47" class="edge">
<title>tumor_growth&#45;&gt;nausea</title>
<path fill="none" stroke="#7f7f7f" stroke-width="1.4" d="M468,-402.73C468,-352 468,-266 468,-266 468,-266 522.46,-266 522.46,-266"/>
<polygon fill="#7f7f7f" stroke="#7f7f7f" stroke-width="1.4" points="522.46,-271.25 537.46,-266 522.46,-260.75 522.46,-271.25"/>
</g>
<!-- hemoptysis -->
<g id="node35" class="node">
<title>hemoptysis</title>
<path fill="none" stroke="black" d="M672,-187C672,-187 552,-187 552,-187 546,-187 540,-181 540,-175 540,-175 540,-127 540,-127 540,-121 546,-115 552,-115 552,-115 672,-115 672,-115 678,-115 684,-121 684,-127 684,-127 684,-175 684,-175 684,-181 678,-187 672,-187"/>
<text xml:space="preserve" text-anchor="middle" x="612" y="-143.28" font-family="Tsukushi A Round Gothic Bold" font-size="18.00">血痰</text>
</g>
<!-- tumor_growth&#45;&gt;hemoptysis -->
<g id="edge49" class="edge">
<title>tumor_growth&#45;&gt;hemoptysis</title>
<path fill="none" stroke="#7f7f7f" stroke-width="1.4" d="M432,-402.52C432,-325.03 432,-151 432,-151 432,-151 522.45,-151 522.45,-151"/>
<polygon fill="#7f7f7f" stroke="#7f7f7f" stroke-width="1.4" points="522.45,-156.25 537.45,-151 522.45,-145.75 522.45,-156.25"/>
</g>
<!-- exercise_intolerance&#45;&gt;adl -->
<g id="edge18" class="edge">
<title>exercise_intolerance&#45;&gt;adl</title>
<path fill="none" stroke="#7f7f7f" stroke-width="1.4" d="M1536,-1302.24C1536,-1338.52 1536,-1389 1536,-1389 1536,-1389 1602.82,-1389 1602.82,-1389"/>
<polygon fill="#7f7f7f" stroke="#7f7f7f" stroke-width="1.4" points="1602.82,-1394.25 1617.82,-1389 1602.82,-1383.75 1602.82,-1394.25"/>
</g>
<!-- gait_disorder&#45;&gt;fall_risk -->
<g id="edge21" class="edge">
<title>gait_disorder&#45;&gt;fall_risk</title>
<path fill="none" stroke="#7f7f7f" stroke-width="1.4" d="M1584.43,-1671C1584.43,-1671 1602.59,-1671 1602.59,-1671"/>
<polygon fill="#7f7f7f" stroke="#7f7f7f" stroke-width="1.4" points="1602.59,-1676.25 1617.59,-1671 1602.59,-1665.75 1602.59,-1676.25"/>
</g>
<!-- gait_disorder&#45;&gt;adl -->
<g id="edge20" class="edge">
<title>gait_disorder&#45;&gt;adl</title>
<path fill="none" stroke="#7f7f7f" stroke-width="1.4" d="M1584.22,-1647C1594.68,-1647 1602,-1647 1602,-1647 1602,-1647 1602,-1446.67 1602,-1446.67 1602,-1446.67 1603.78,-1446.67 1603.78,-1446.67"/>
<polygon fill="#7f7f7f" stroke="#7f7f7f" stroke-width="1.4" points="1602.66,-1451.92 1617.66,-1446.67 1602.66,-1441.42 1602.66,-1451.92"/>
</g>
<!-- consciousness&#45;&gt;delirium -->
<g id="edge12" class="edge">
<title>consciousness&#45;&gt;delirium</title>
<path fill="none" stroke="#7f7f7f" stroke-width="1.4" d="M1404.43,-1126C1404.43,-1126 1422.59,-1126 1422.59,-1126"/>
<polygon fill="#7f7f7f" stroke="#7f7f7f" stroke-width="1.4" points="1422.59,-1131.25 1437.59,-1126 1422.59,-1120.75 1422.59,-1131.25"/>
</g>
</g>
</svg>
