<?xml version="1.0" encoding="UTF-8" standalone="no"?>
<!DOCTYPE svg PUBLIC "-//W3C//DTD SVG 1.1//EN"
 "http://www.w3.org/Graphics/SVG/1.1/DTD/svg11.dtd">
<!-- Generated by graphviz version 14.1.5 (20260411.2331)
 -->
<!-- Pages: 1 -->
<svg width="802pt" height="734pt"
 viewBox="7.00 7.00 795.00 727.00" xmlns="http://www.w3.org/2000/svg" xmlns:xlink="http://www.w3.org/1999/xlink">
<g id="graph0" class="graph" transform="scale(0.481928 0.481928) rotate(0) translate(18.94 1504.94)">
<polygon fill="white" stroke="none" points="-4,4 -4,-1490 1629.75,-1490 1629.75,4 -4,4"/>
<!-- weight_loss -->
<g id="node1" class="node">
<title>weight_loss</title>
<path fill="none" stroke="black" d="M1246.5,-476C1246.5,-476 1126.5,-476 1126.5,-476 1120.5,-476 1114.5,-470 1114.5,-464 1114.5,-464 1114.5,-416 1114.5,-416 1114.5,-410 1120.5,-404 1126.5,-404 1126.5,-404 1246.5,-404 1246.5,-404 1252.5,-404 1258.5,-410 1258.5,-416 1258.5,-416 1258.5,-464 1258.5,-464 1258.5,-470 1252.5,-476 1246.5,-476"/>
<text xml:space="preserve" text-anchor="middle" x="1186.5" y="-432.27" font-family="Tsukushi A Round Gothic Bold" font-size="18.00">体重減少</text>
</g>
<!-- muscle_atrophy -->
<g id="node2" class="node">
<title>muscle_atrophy</title>
<path fill="none" stroke="black" d="M1246.5,-361C1246.5,-361 1126.5,-361 1126.5,-361 1120.5,-361 1114.5,-355 1114.5,-349 1114.5,-349 1114.5,-301 1114.5,-301 1114.5,-295 1120.5,-289 1126.5,-289 1126.5,-289 1246.5,-289 1246.5,-289 1252.5,-289 1258.5,-295 1258.5,-301 1258.5,-301 1258.5,-349 1258.5,-349 1258.5,-355 1252.5,-361 1246.5,-361"/>
<text xml:space="preserve" text-anchor="middle" x="1186.5" y="-317.27" font-family="Tsukushi A Round Gothic Bold" font-size="18.00">筋萎縮</text>
</g>
<!-- fatigue -->
<g id="node24" class="node">
<title>fatigue</title>
<path fill="none" stroke="black" d="M1433.75,-620C1433.75,-620 1313.75,-620 1313.75,-620 1307.75,-620 1301.75,-614 1301.75,-608 1301.75,-608 1301.75,-560 1301.75,-560 1301.75,-554 1307.75,-548 1313.75,-548 1313.75,-548 1433.75,-548 1433.75,-548 1439.75,-548 1445.75,-554 1445.75,-560 1445.75,-560 1445.75,-608 1445.75,-608 1445.75,-614 1439.75,-620 1433.75,-620"/>
<text xml:space="preserve" text-anchor="middle" x="1373.75" y="-576.27" font-family="Tsukushi A Round Gothic Bold" font-size="18.00">倦怠感</text>
</g>
<!-- muscle_atrophy&#45;&gt;fatigue -->
<g id="edge27" class="edge">
<title>muscle_atrophy&#45;&gt;fatigue</title>
<path fill="none" stroke="#7f7f7f" stroke-width="1.4" d="M1258.58,-325C1302.31,-325 1349.75,-325 1349.75,-325 1349.75,-325 1349.75,-530.6 1349.75,-530.6"/>
<polygon fill="#7f7f7f" stroke="#7f7f7f" stroke-width="1.4" points="1344.5,-530.6 1349.75,-545.6 1355,-530.6 1344.5,-530.6"/>
</g>
<!-- liver_metastasis -->
<g id="node3" class="node">
<title>liver_metastasis</title>
<path fill="none" stroke="black" d="M492,-1251C492,-1251 372,-1251 372,-1251 366,-1251 360,-1245 360,-1239 360,-1239 360,-1191 360,-1191 360,-1185 366,-1179 372,-1179 372,-1179 492,-1179 492,-1179 498,-1179 504,-1185 504,-1191 504,-1191 504,-1239 504,-1239 504,-1245 498,-1251 492,-1251"/>
<text xml:space="preserve" text-anchor="middle" x="432" y="-1207.28" font-family="Tsukushi A Round Gothic Bold" font-size="18.00">肝転移</text>
</g>
<!-- ascites -->
<g id="node15" class="node">
<title>ascites</title>
<path fill="none" stroke="black" d="M685.62,-1486C685.62,-1486 565.62,-1486 565.62,-1486 559.62,-1486 553.62,-1480 553.62,-1474 553.62,-1474 553.62,-1426 553.62,-1426 553.62,-1420 559.62,-1414 565.62,-1414 565.62,-1414 685.62,-1414 685.62,-1414 691.62,-1414 697.62,-1420 697.62,-1426 697.62,-1426 697.62,-1474 697.62,-1474 697.62,-1480 691.62,-1486 685.62,-1486"/>
<text xml:space="preserve" text-anchor="middle" x="625.62" y="-1442.28" font-family="Tsukushi A Round Gothic Bold" font-size="18.00">腹水</text>
</g>
<!-- liver_metastasis&#45;&gt;ascites -->
<g id="edge21" class="edge">
<title>liver_metastasis&#45;&gt;ascites</title>
<path fill="none" stroke="#7f7f7f" stroke-width="1.4" d="M504.48,-1238C550.62,-1238 601.75,-1238 601.75,-1238 601.75,-1238 601.75,-1396.44 601.75,-1396.44"/>
<polygon fill="#7f7f7f" stroke="#7f7f7f" stroke-width="1.4" points="596.5,-1396.44 601.75,-1411.44 607,-1396.44 596.5,-1396.44"/>
</g>
<!-- melena -->
<g id="node4" class="node">
<title>melena</title>
<path fill="none" stroke="black" d="M685.62,-852C685.62,-852 565.62,-852 565.62,-852 559.62,-852 553.62,-846 553.62,-840 553.62,-840 553.62,-792 553.62,-792 553.62,-786 559.62,-780 565.62,-780 565.62,-780 685.62,-780 685.62,-780 691.62,-780 697.62,-786 697.62,-792 697.62,-792 697.62,-840 697.62,-840 697.62,-846 691.62,-852 685.62,-852"/>
<text xml:space="preserve" text-anchor="middle" x="625.62" y="-808.27" font-family="Tsukushi A Round Gothic Bold" font-size="18.00">血便</text>
</g>
<!-- anemia -->
<g id="node5" class="node">
<title>anemia</title>
<path fill="none" stroke="black" d="M1059.25,-852C1059.25,-852 939.25,-852 939.25,-852 933.25,-852 927.25,-846 927.25,-840 927.25,-840 927.25,-792 927.25,-792 927.25,-786 933.25,-780 939.25,-780 939.25,-780 1059.25,-780 1059.25,-780 1065.25,-780 1071.25,-786 1071.25,-792 1071.25,-792 1071.25,-840 1071.25,-840 1071.25,-846 1065.25,-852 1059.25,-852"/>
<text xml:space="preserve" text-anchor="middle" x="999.25" y="-808.27" font-family="Tsukushi A Round Gothic Bold" font-size="18.00">貧血</text>
</g>
<!-- melena&#45;&gt;anemia -->
<g id="edge25" class="edge">
<title>melena&#45;&gt;anemia</title>
<path fill="none" stroke="#7f7f7f" stroke-width="1.4" d="M601.75,-852.42C601.75,-863.83 601.75,-873.5 601.75,-873.5 601.75,-873.5 998.75,-873.5 998.75,-873.5 998.75,-873.5 998.75,-869.53 998.75,-869.53"/>
<polygon fill="#7f7f7f" stroke="#7f7f7f" stroke-width="1.4" points="1004,-869.53 998.75,-854.53 993.5,-869.53 1004,-869.53"/>
</g>
<!-- chronic_bleeding -->
<g id="node9" class="node">
<title>chronic_bleeding</title>
<path fill="none" stroke="black" d="M879.25,-852C879.25,-852 759.25,-852 759.25,-852 753.25,-852 747.25,-846 747.25,-840 747.25,-840 747.25,-792 747.25,-792 747.25,-786 753.25,-780 759.25,-780 759.25,-780 879.25,-780 879.25,-780 885.25,-780 891.25,-786 891.25,-792 891.25,-792 891.25,-840 891.25,-840 891.25,-846 885.25,-852 879.25,-852"/>
<text xml:space="preserve" text-anchor="middle" x="819.25" y="-808.27" font-family="Tsukushi A Round Gothic Bold" font-size="18.00">慢性出血</text>
</g>
<!-- melena&#45;&gt;chronic_bleeding -->
<g id="edge26" class="edge">
<title>melena&#45;&gt;chronic_bleeding</title>
<path fill="none" stroke="#7f7f7f" stroke-width="1.4" d="M698,-816C698,-816 729.84,-816 729.84,-816"/>
<polygon fill="#7f7f7f" stroke="#7f7f7f" stroke-width="1.4" points="729.84,-821.25 744.84,-816 729.84,-810.75 729.84,-821.25"/>
</g>
<!-- hb -->
<g id="node6" class="node">
<title>hb</title>
<path fill="none" stroke="black" d="M1253.75,-967C1253.75,-967 1119.25,-967 1119.25,-967 1113.25,-967 1107.25,-961 1107.25,-955 1107.25,-955 1107.25,-907 1107.25,-907 1107.25,-901 1113.25,-895 1119.25,-895 1119.25,-895 1253.75,-895 1253.75,-895 1259.75,-895 1265.75,-901 1265.75,-907 1265.75,-907 1265.75,-955 1265.75,-955 1265.75,-961 1259.75,-967 1253.75,-967"/>
<text xml:space="preserve" text-anchor="middle" x="1186.5" y="-923.27" font-family="Tsukushi A Round Gothic Bold" font-size="18.00">ヘモグロビン低下</text>
</g>
<!-- anemia&#45;&gt;hb -->
<g id="edge4" class="edge">
<title>anemia&#45;&gt;hb</title>
<path fill="none" stroke="#7f7f7f" stroke-width="1.4" d="M1071.44,-828C1092.88,-828 1110.75,-828 1110.75,-828 1110.75,-828 1110.75,-877.57 1110.75,-877.57"/>
<polygon fill="#7f7f7f" stroke="#7f7f7f" stroke-width="1.4" points="1105.5,-877.57 1110.75,-892.57 1116,-877.57 1105.5,-877.57"/>
</g>
<!-- hypoxia -->
<g id="node11" class="node">
<title>hypoxia</title>
<path fill="none" stroke="black" d="M1246.5,-852C1246.5,-852 1126.5,-852 1126.5,-852 1120.5,-852 1114.5,-846 1114.5,-840 1114.5,-840 1114.5,-792 1114.5,-792 1114.5,-786 1120.5,-780 1126.5,-780 1126.5,-780 1246.5,-780 1246.5,-780 1252.5,-780 1258.5,-786 1258.5,-792 1258.5,-792 1258.5,-840 1258.5,-840 1258.5,-846 1252.5,-852 1246.5,-852"/>
<text xml:space="preserve" text-anchor="middle" x="1186.5" y="-808.27" font-family="Tsukushi A Round Gothic Bold" font-size="18.00">低酸素</text>
</g>
<!-- anemia&#45;&gt;hypoxia -->
<g id="edge2" class="edge">
<title>anemia&#45;&gt;hypoxia</title>
<path fill="none" stroke="#7f7f7f" stroke-width="1.4" d="M1071.65,-804C1071.65,-804 1097.18,-804 1097.18,-804"/>
<polygon fill="#7f7f7f" stroke="#7f7f7f" stroke-width="1.4" points="1097.18,-809.25 1112.18,-804 1097.18,-798.75 1097.18,-809.25"/>
</g>
<!-- anemia&#45;&gt;fatigue -->
<g id="edge3" class="edge">
<title>anemia&#45;&gt;fatigue</title>
<path fill="none" stroke="#7f7f7f" stroke-width="1.4" d="M955.75,-779.95C955.75,-716.51 955.75,-591.6 955.75,-591.6 955.75,-591.6 1284.3,-591.6 1284.3,-591.6"/>
<polygon fill="#7f7f7f" stroke="#7f7f7f" stroke-width="1.4" points="1284.3,-596.85 1299.3,-591.6 1284.3,-586.35 1284.3,-596.85"/>
</g>
<!-- adl -->
<g id="node7" class="node">
<title>adl</title>
<path fill="none" stroke="black" d="M1613.75,-620C1613.75,-620 1493.75,-620 1493.75,-620 1487.75,-620 1481.75,-614 1481.75,-608 1481.75,-608 1481.75,-560 1481.75,-560 1481.75,-554 1487.75,-548 1493.75,-548 1493.75,-548 1613.75,-548 1613.75,-548 1619.75,-548 1625.75,-554 1625.75,-560 1625.75,-560 1625.75,-608 1625.75,-608 1625.75,-614 1619.75,-620 1613.75,-620"/>
<text xml:space="preserve" text-anchor="middle" x="1553.75" y="-576.27" font-family="Tsukushi A Round Gothic Bold" font-size="18.00">ADL低下</text>
</g>
<!-- intestinal_stenosis -->
<g id="node8" class="node">
<title>intestinal_stenosis</title>
<path fill="none" stroke="black" d="M685.62,-1159C685.62,-1159 565.62,-1159 565.62,-1159 559.62,-1159 553.62,-1153 553.62,-1147 553.62,-1147 553.62,-1099 553.62,-1099 553.62,-1093 559.62,-1087 565.62,-1087 565.62,-1087 685.62,-1087 685.62,-1087 691.62,-1087 697.62,-1093 697.62,-1099 697.62,-1099 697.62,-1147 697.62,-1147 697.62,-1153 691.62,-1159 685.62,-1159"/>
<text xml:space="preserve" text-anchor="middle" x="625.62" y="-1115.28" font-family="Tsukushi A Round Gothic Bold" font-size="18.00">腸管狭窄</text>
</g>
<!-- bowel_obstruction -->
<g id="node10" class="node">
<title>bowel_obstruction</title>
<path fill="none" stroke="black" d="M879.25,-1284C879.25,-1284 759.25,-1284 759.25,-1284 753.25,-1284 747.25,-1278 747.25,-1272 747.25,-1272 747.25,-1224 747.25,-1224 747.25,-1218 753.25,-1212 759.25,-1212 759.25,-1212 879.25,-1212 879.25,-1212 885.25,-1212 891.25,-1218 891.25,-1224 891.25,-1224 891.25,-1272 891.25,-1272 891.25,-1278 885.25,-1284 879.25,-1284"/>
<text xml:space="preserve" text-anchor="middle" x="819.25" y="-1240.28" font-family="Tsukushi A Round Gothic Bold" font-size="18.00">腸閉塞</text>
</g>
<!-- intestinal_stenosis&#45;&gt;bowel_obstruction -->
<g id="edge18" class="edge">
<title>intestinal_stenosis&#45;&gt;bowel_obstruction</title>
<path fill="none" stroke="#7f7f7f" stroke-width="1.4" d="M649.75,-1159.25C649.75,-1188.57 649.75,-1225 649.75,-1225 649.75,-1225 729.76,-1225 729.76,-1225"/>
<polygon fill="#7f7f7f" stroke="#7f7f7f" stroke-width="1.4" points="729.76,-1230.25 744.76,-1225 729.76,-1219.75 729.76,-1230.25"/>
</g>
<!-- abdominal_pain -->
<g id="node19" class="node">
<title>abdominal_pain</title>
<path fill="none" stroke="black" d="M879.25,-1054C879.25,-1054 759.25,-1054 759.25,-1054 753.25,-1054 747.25,-1048 747.25,-1042 747.25,-1042 747.25,-994 747.25,-994 747.25,-988 753.25,-982 759.25,-982 759.25,-982 879.25,-982 879.25,-982 885.25,-982 891.25,-988 891.25,-994 891.25,-994 891.25,-1042 891.25,-1042 891.25,-1048 885.25,-1054 879.25,-1054"/>
<text xml:space="preserve" text-anchor="middle" x="819.25" y="-1010.27" font-family="Tsukushi A Round Gothic Bold" font-size="18.00">腹痛</text>
</g>
<!-- intestinal_stenosis&#45;&gt;abdominal_pain -->
<g id="edge20" class="edge">
<title>intestinal_stenosis&#45;&gt;abdominal_pain</title>
<path fill="none" stroke="#7f7f7f" stroke-width="1.4" d="M698.09,-1092C752.89,-1092 818.75,-1092 818.75,-1092 818.75,-1092 818.75,-1071.25 818.75,-1071.25"/>
<polygon fill="#7f7f7f" stroke="#7f7f7f" stroke-width="1.4" points="824,-1071.25 818.75,-1056.25 813.5,-1071.25 824,-1071.25"/>
</g>
<!-- bowel_contents_retention -->
<g id="node20" class="node">
<title>bowel_contents_retention</title>
<path fill="none" stroke="black" d="M879.25,-1169C879.25,-1169 759.25,-1169 759.25,-1169 753.25,-1169 747.25,-1163 747.25,-1157 747.25,-1157 747.25,-1109 747.25,-1109 747.25,-1103 753.25,-1097 759.25,-1097 759.25,-1097 879.25,-1097 879.25,-1097 885.25,-1097 891.25,-1103 891.25,-1109 891.25,-1109 891.25,-1157 891.25,-1157 891.25,-1163 885.25,-1169 879.25,-1169"/>
<text xml:space="preserve" text-anchor="middle" x="819.25" y="-1125.28" font-family="Tsukushi A Round Gothic Bold" font-size="18.00">腸内容停滞</text>
</g>
<!-- intestinal_stenosis&#45;&gt;bowel_contents_retention -->
<g id="edge19" class="edge">
<title>intestinal_stenosis&#45;&gt;bowel_contents_retention</title>
<path fill="none" stroke="#7f7f7f" stroke-width="1.4" d="M698,-1128C698,-1128 729.84,-1128 729.84,-1128"/>
<polygon fill="#7f7f7f" stroke="#7f7f7f" stroke-width="1.4" points="729.84,-1133.25 744.84,-1128 729.84,-1122.75 729.84,-1133.25"/>
</g>
<!-- chronic_bleeding&#45;&gt;anemia -->
<g id="edge12" class="edge">
<title>chronic_bleeding&#45;&gt;anemia</title>
<path fill="none" stroke="#7f7f7f" stroke-width="1.4" d="M891.68,-816C891.68,-816 909.84,-816 909.84,-816"/>
<polygon fill="#7f7f7f" stroke="#7f7f7f" stroke-width="1.4" points="909.84,-821.25 924.84,-816 909.84,-810.75 909.84,-821.25"/>
</g>
<!-- constipation -->
<g id="node17" class="node">
<title>constipation</title>
<path fill="none" stroke="black" d="M1059.25,-1284C1059.25,-1284 939.25,-1284 939.25,-1284 933.25,-1284 927.25,-1278 927.25,-1272 927.25,-1272 927.25,-1224 927.25,-1224 927.25,-1218 933.25,-1212 939.25,-1212 939.25,-1212 1059.25,-1212 1059.25,-1212 1065.25,-1212 1071.25,-1218 1071.25,-1224 1071.25,-1224 1071.25,-1272 1071.25,-1272 1071.25,-1278 1065.25,-1284 1059.25,-1284"/>
<text xml:space="preserve" text-anchor="middle" x="999.25" y="-1240.28" font-family="Tsukushi A Round Gothic Bold" font-size="18.00">便秘</text>
</g>
<!-- bowel_obstruction&#45;&gt;constipation -->
<g id="edge6" class="edge">
<title>bowel_obstruction&#45;&gt;constipation</title>
<path fill="none" stroke="#7f7f7f" stroke-width="1.4" d="M891.68,-1248C891.68,-1248 909.84,-1248 909.84,-1248"/>
<polygon fill="#7f7f7f" stroke="#7f7f7f" stroke-width="1.4" points="909.84,-1253.25 924.84,-1248 909.84,-1242.75 909.84,-1253.25"/>
</g>
<!-- hypoxia&#45;&gt;fatigue -->
<g id="edge17" class="edge">
<title>hypoxia&#45;&gt;fatigue</title>
<path fill="none" stroke="#7f7f7f" stroke-width="1.4" d="M1186.75,-779.87C1186.75,-719.77 1186.75,-605.8 1186.75,-605.8 1186.75,-605.8 1284.33,-605.8 1284.33,-605.8"/>
<polygon fill="#7f7f7f" stroke="#7f7f7f" stroke-width="1.4" points="1284.33,-611.05 1299.33,-605.8 1284.33,-600.55 1284.33,-611.05"/>
</g>
<!-- apple_core_sign -->
<g id="node12" class="node">
<title>apple_core_sign</title>
<path fill="none" stroke="black" d="M699.25,-737C699.25,-737 552,-737 552,-737 546,-737 540,-731 540,-725 540,-725 540,-677 540,-677 540,-671 546,-665 552,-665 552,-665 699.25,-665 699.25,-665 705.25,-665 711.25,-671 711.25,-677 711.25,-677 711.25,-725 711.25,-725 711.25,-731 705.25,-737 699.25,-737"/>
<text xml:space="preserve" text-anchor="middle" x="625.62" y="-693.27" font-family="Tsukushi A Round Gothic Bold" font-size="18.00">アップルコアサイン</text>
</g>
<!-- right_colon_cancer -->
<g id="node13" class="node">
<title>right_colon_cancer</title>
<path fill="none" stroke="black" d="M492,-549C492,-549 372,-549 372,-549 366,-549 360,-543 360,-537 360,-537 360,-489 360,-489 360,-483 366,-477 372,-477 372,-477 492,-477 492,-477 498,-477 504,-483 504,-489 504,-489 504,-537 504,-537 504,-543 498,-549 492,-549"/>
<text xml:space="preserve" text-anchor="middle" x="432" y="-505.27" font-family="Tsukushi A Round Gothic Bold" font-size="18.00">右側結腸癌</text>
</g>
<!-- asymptomatic -->
<g id="node18" class="node">
<title>asymptomatic</title>
<path fill="none" stroke="black" d="M685.62,-448C685.62,-448 565.62,-448 565.62,-448 559.62,-448 553.62,-442 553.62,-436 553.62,-436 553.62,-388 553.62,-388 553.62,-382 559.62,-376 565.62,-376 565.62,-376 685.62,-376 685.62,-376 691.62,-376 697.62,-382 697.62,-388 697.62,-388 697.62,-436 697.62,-436 697.62,-442 691.62,-448 685.62,-448"/>
<text xml:space="preserve" text-anchor="middle" x="625.62" y="-404.27" font-family="Tsukushi A Round Gothic Bold" font-size="18.00">無症状</text>
</g>
<!-- right_colon_cancer&#45;&gt;asymptomatic -->
<g id="edge39" class="edge">
<title>right_colon_cancer&#45;&gt;asymptomatic</title>
<path fill="none" stroke="#7f7f7f" stroke-width="1.4" d="M504.42,-512.5C559.45,-512.5 625.75,-512.5 625.75,-512.5 625.75,-512.5 625.75,-465.4 625.75,-465.4"/>
<polygon fill="#7f7f7f" stroke="#7f7f7f" stroke-width="1.4" points="631,-465.4 625.75,-450.4 620.5,-465.4 631,-465.4"/>
</g>
<!-- right_colon_cancer&#45;&gt;fatigue -->
<g id="edge38" class="edge">
<title>right_colon_cancer&#45;&gt;fatigue</title>
<path fill="none" stroke="#7f7f7f" stroke-width="1.4" d="M395.75,-549.34C395.75,-563.95 395.75,-577.4 395.75,-577.4 395.75,-577.4 1284.32,-577.4 1284.32,-577.4"/>
<polygon fill="#7f7f7f" stroke="#7f7f7f" stroke-width="1.4" points="1284.32,-582.65 1299.32,-577.4 1284.32,-572.15 1284.32,-582.65"/>
</g>
<!-- colon_cancer -->
<g id="node14" class="node">
<title>colon_cancer</title>
<path fill="#efe3d5" stroke="black" d="M312,-700C312,-700 192,-700 192,-700 186,-700 180,-694 180,-688 180,-688 180,-640 180,-640 180,-634 186,-628 192,-628 192,-628 312,-628 312,-628 318,-628 324,-634 324,-640 324,-640 324,-688 324,-688 324,-694 318,-700 312,-700"/>
<text xml:space="preserve" text-anchor="middle" x="252" y="-656.27" font-family="Tsukushi A Round Gothic Bold" font-size="18.00">大腸がん</text>
</g>
<!-- colon_cancer&#45;&gt;liver_metastasis -->
<g id="edge14" class="edge">
<title>colon_cancer&#45;&gt;liver_metastasis</title>
<path fill="none" stroke="#7f7f7f" stroke-width="1.4" d="M251.75,-700.15C251.75,-822.74 251.75,-1215 251.75,-1215 251.75,-1215 342.61,-1215 342.61,-1215"/>
<polygon fill="#7f7f7f" stroke="#7f7f7f" stroke-width="1.4" points="342.61,-1220.25 357.61,-1215 342.61,-1209.75 342.61,-1220.25"/>
</g>
<!-- colon_cancer&#45;&gt;right_colon_cancer -->
<g id="edge33" class="edge">
<title>colon_cancer&#45;&gt;right_colon_cancer</title>
<path fill="none" stroke="#7f7f7f" stroke-width="1.4" d="M324.44,-646.5C387.12,-646.5 467.75,-646.5 467.75,-646.5 467.75,-646.5 467.75,-566.6 467.75,-566.6"/>
<polygon fill="#7f7f7f" stroke="#7f7f7f" stroke-width="1.4" points="473,-566.6 467.75,-551.6 462.5,-566.6 473,-566.6"/>
</g>
<!-- left_colon_cancer -->
<g id="node16" class="node">
<title>left_colon_cancer</title>
<path fill="none" stroke="black" d="M492,-902C492,-902 372,-902 372,-902 366,-902 360,-896 360,-890 360,-890 360,-842 360,-842 360,-836 366,-830 372,-830 372,-830 492,-830 492,-830 498,-830 504,-836 504,-842 504,-842 504,-890 504,-890 504,-896 498,-902 492,-902"/>
<text xml:space="preserve" text-anchor="middle" x="432" y="-858.27" font-family="Tsukushi A Round Gothic Bold" font-size="18.00">左側結腸癌</text>
</g>
<!-- colon_cancer&#45;&gt;left_colon_cancer -->
<g id="edge28" class="edge">
<title>colon_cancer&#45;&gt;left_colon_cancer</title>
<path fill="none" stroke="#7f7f7f" stroke-width="1.4" d="M324.33,-682.5C374.28,-682.5 431.75,-682.5 431.75,-682.5 431.75,-682.5 431.75,-812.63 431.75,-812.63"/>
<polygon fill="#7f7f7f" stroke="#7f7f7f" stroke-width="1.4" points="426.5,-812.63 431.75,-827.63 437,-812.63 426.5,-812.63"/>
</g>
<!-- cachexia -->
<g id="node27" class="node">
<title>cachexia</title>
<path fill="none" stroke="black" d="M685.62,-238C685.62,-238 565.62,-238 565.62,-238 559.62,-238 553.62,-232 553.62,-226 553.62,-226 553.62,-178 553.62,-178 553.62,-172 559.62,-166 565.62,-166 565.62,-166 685.62,-166 685.62,-166 691.62,-166 697.62,-172 697.62,-178 697.62,-178 697.62,-226 697.62,-226 697.62,-232 691.62,-238 685.62,-238"/>
<text xml:space="preserve" text-anchor="middle" x="625.62" y="-194.28" font-family="Tsukushi A Round Gothic Bold" font-size="18.00">悪液質</text>
</g>
<!-- colon_cancer&#45;&gt;cachexia -->
<g id="edge13" class="edge">
<title>colon_cancer&#45;&gt;cachexia</title>
<path fill="none" stroke="#7f7f7f" stroke-width="1.4" d="M251.75,-627.75C251.75,-518.84 251.75,-202 251.75,-202 251.75,-202 536.42,-202 536.42,-202"/>
<polygon fill="#7f7f7f" stroke="#7f7f7f" stroke-width="1.4" points="536.42,-207.25 551.42,-202 536.42,-196.75 536.42,-207.25"/>
</g>
<!-- left_colon_cancer&#45;&gt;weight_loss -->
<g id="edge36" class="edge">
<title>left_colon_cancer&#45;&gt;weight_loss</title>
<path fill="none" stroke="#7f7f7f" stroke-width="1.4" d="M504.27,-862.75C636.23,-862.75 902.75,-862.75 902.75,-862.75 902.75,-862.75 902.75,-458 902.75,-458 902.75,-458 1097.04,-458 1097.04,-458"/>
<polygon fill="#7f7f7f" stroke="#7f7f7f" stroke-width="1.4" points="1097.04,-463.25 1112.04,-458 1097.04,-452.75 1097.04,-463.25"/>
</g>
<!-- left_colon_cancer&#45;&gt;melena -->
<g id="edge34" class="edge">
<title>left_colon_cancer&#45;&gt;melena</title>
<path fill="none" stroke="#7f7f7f" stroke-width="1.4" d="M504.37,-844.67C504.37,-844.67 536.22,-844.67 536.22,-844.67"/>
<polygon fill="#7f7f7f" stroke="#7f7f7f" stroke-width="1.4" points="536.22,-849.92 551.22,-844.67 536.22,-839.42 536.22,-849.92"/>
</g>
<!-- left_colon_cancer&#45;&gt;anemia -->
<g id="edge35" class="edge">
<title>left_colon_cancer&#45;&gt;anemia</title>
<path fill="none" stroke="#7f7f7f" stroke-width="1.4" d="M504.41,-884.25C664.56,-884.25 1034.75,-884.25 1034.75,-884.25 1034.75,-884.25 1034.75,-869.24 1034.75,-869.24"/>
<polygon fill="#7f7f7f" stroke="#7f7f7f" stroke-width="1.4" points="1040,-869.24 1034.75,-854.24 1029.5,-869.24 1040,-869.24"/>
</g>
<!-- left_colon_cancer&#45;&gt;intestinal_stenosis -->
<g id="edge29" class="edge">
<title>left_colon_cancer&#45;&gt;intestinal_stenosis</title>
<path fill="none" stroke="#7f7f7f" stroke-width="1.4" d="M504.21,-900.25C567.59,-900.25 649.75,-900.25 649.75,-900.25 649.75,-900.25 649.75,-1069.6 649.75,-1069.6"/>
<polygon fill="#7f7f7f" stroke="#7f7f7f" stroke-width="1.4" points="644.5,-1069.6 649.75,-1084.6 655,-1069.6 644.5,-1069.6"/>
</g>
<!-- left_colon_cancer&#45;&gt;apple_core_sign -->
<g id="edge30" class="edge">
<title>left_colon_cancer&#45;&gt;apple_core_sign</title>
<path fill="none" stroke="#7f7f7f" stroke-width="1.4" d="M504.35,-837.33C527.26,-837.33 546.75,-837.33 546.75,-837.33 546.75,-837.33 546.75,-754.3 546.75,-754.3"/>
<polygon fill="#7f7f7f" stroke="#7f7f7f" stroke-width="1.4" points="552,-754.3 546.75,-739.3 541.5,-754.3 552,-754.3"/>
</g>
<!-- left_colon_cancer&#45;&gt;constipation -->
<g id="edge31" class="edge">
<title>left_colon_cancer&#45;&gt;constipation</title>
<path fill="none" stroke="#7f7f7f" stroke-width="1.4" d="M504.41,-896.75C649.65,-896.75 962.75,-896.75 962.75,-896.75 962.75,-896.75 962.75,-1194.61 962.75,-1194.61"/>
<polygon fill="#7f7f7f" stroke="#7f7f7f" stroke-width="1.4" points="957.5,-1194.61 962.75,-1209.61 968,-1194.61 957.5,-1194.61"/>
</g>
<!-- left_colon_cancer&#45;&gt;abdominal_pain -->
<g id="edge32" class="edge">
<title>left_colon_cancer&#45;&gt;abdominal_pain</title>
<path fill="none" stroke="#7f7f7f" stroke-width="1.4" d="M504.29,-898.5C616.23,-898.5 818.75,-898.5 818.75,-898.5 818.75,-898.5 818.75,-964.7 818.75,-964.7"/>
<polygon fill="#7f7f7f" stroke="#7f7f7f" stroke-width="1.4" points="813.5,-964.7 818.75,-979.7 824,-964.7 813.5,-964.7"/>
</g>
<!-- constipation&#45;&gt;adl -->
<g id="edge15" class="edge">
<title>constipation&#45;&gt;adl</title>
<path fill="none" stroke="#7f7f7f" stroke-width="1.4" d="M1071.74,-1248C1222.05,-1248 1553.75,-1248 1553.75,-1248 1553.75,-1248 1553.75,-637.29 1553.75,-637.29"/>
<polygon fill="#7f7f7f" stroke="#7f7f7f" stroke-width="1.4" points="1559,-637.29 1553.75,-622.29 1548.5,-637.29 1559,-637.29"/>
</g>
<!-- delayed_detection -->
<g id="node22" class="node">
<title>delayed_detection</title>
<path fill="none" stroke="black" d="M879.25,-476C879.25,-476 759.25,-476 759.25,-476 753.25,-476 747.25,-470 747.25,-464 747.25,-464 747.25,-416 747.25,-416 747.25,-410 753.25,-404 759.25,-404 759.25,-404 879.25,-404 879.25,-404 885.25,-404 891.25,-410 891.25,-416 891.25,-416 891.25,-464 891.25,-464 891.25,-470 885.25,-476 879.25,-476"/>
<text xml:space="preserve" text-anchor="middle" x="819.25" y="-432.27" font-family="Tsukushi A Round Gothic Bold" font-size="18.00">発見遅延</text>
</g>
<!-- asymptomatic&#45;&gt;delayed_detection -->
<g id="edge40" class="edge">
<title>asymptomatic&#45;&gt;delayed_detection</title>
<path fill="none" stroke="#7f7f7f" stroke-width="1.4" d="M698,-426C698,-426 729.84,-426 729.84,-426"/>
<polygon fill="#7f7f7f" stroke="#7f7f7f" stroke-width="1.4" points="729.84,-431.25 744.84,-426 729.84,-420.75 729.84,-431.25"/>
</g>
<!-- cancer_fatigue -->
<g id="node21" class="node">
<title>cancer_fatigue</title>
<path fill="none" stroke="black" d="M879.25,-187C879.25,-187 759.25,-187 759.25,-187 753.25,-187 747.25,-181 747.25,-175 747.25,-175 747.25,-127 747.25,-127 747.25,-121 753.25,-115 759.25,-115 759.25,-115 879.25,-115 879.25,-115 885.25,-115 891.25,-121 891.25,-127 891.25,-127 891.25,-175 891.25,-175 891.25,-181 885.25,-187 879.25,-187"/>
<text xml:space="preserve" text-anchor="middle" x="819.25" y="-143.28" font-family="Tsukushi A Round Gothic Bold" font-size="18.00">癌性疲労</text>
</g>
<!-- patient -->
<g id="node23" class="node">
<title>patient</title>
<ellipse fill="#d8bfaa" stroke="black" cx="72" cy="-664" rx="72" ry="36"/>
<text xml:space="preserve" text-anchor="middle" x="72" y="-656.27" font-family="Tsukushi A Round Gothic Bold" font-size="18.00">Aさん</text>
</g>
<!-- patient&#45;&gt;colon_cancer -->
<g id="edge1" class="edge">
<title>patient&#45;&gt;colon_cancer</title>
<path fill="none" stroke="#c2a38c" stroke-width="2" d="M144.43,-664C144.43,-664 166.69,-664 166.69,-664"/>
<polygon fill="#c2a38c" stroke="#c2a38c" stroke-width="2" points="166.69,-667.5 176.69,-664 166.69,-660.5 166.69,-667.5"/>
</g>
<!-- fatigue&#45;&gt;adl -->
<g id="edge16" class="edge">
<title>fatigue&#45;&gt;adl</title>
<path fill="none" stroke="#7f7f7f" stroke-width="1.4" d="M1446.18,-584C1446.18,-584 1464.34,-584 1464.34,-584"/>
<polygon fill="#7f7f7f" stroke="#7f7f7f" stroke-width="1.4" points="1464.34,-589.25 1479.34,-584 1464.34,-578.75 1464.34,-589.25"/>
</g>
<!-- appetite_loss -->
<g id="node25" class="node">
<title>appetite_loss</title>
<path fill="none" stroke="black" d="M879.25,-72C879.25,-72 759.25,-72 759.25,-72 753.25,-72 747.25,-66 747.25,-60 747.25,-60 747.25,-12 747.25,-12 747.25,-6 753.25,0 759.25,0 759.25,0 879.25,0 879.25,0 885.25,0 891.25,-6 891.25,-12 891.25,-12 891.25,-60 891.25,-60 891.25,-66 885.25,-72 879.25,-72"/>
<text xml:space="preserve" text-anchor="middle" x="819.25" y="-28.27" font-family="Tsukushi A Round Gothic Bold" font-size="18.00">食欲低下</text>
</g>
<!-- malnutrition -->
<g id="node26" class="node">
<title>malnutrition</title>
<path fill="none" stroke="black" d="M1059.25,-180C1059.25,-180 939.25,-180 939.25,-180 933.25,-180 927.25,-174 927.25,-168 927.25,-168 927.25,-120 927.25,-120 927.25,-114 933.25,-108 939.25,-108 939.25,-108 1059.25,-108 1059.25,-108 1065.25,-108 1071.25,-114 1071.25,-120 1071.25,-120 1071.25,-168 1071.25,-168 1071.25,-174 1065.25,-180 1059.25,-180"/>
<text xml:space="preserve" text-anchor="middle" x="999.25" y="-136.28" font-family="Tsukushi A Round Gothic Bold" font-size="18.00">低栄養</text>
</g>
<!-- appetite_loss&#45;&gt;malnutrition -->
<g id="edge5" class="edge">
<title>appetite_loss&#45;&gt;malnutrition</title>
<path fill="none" stroke="#7f7f7f" stroke-width="1.4" d="M818.75,-72.42C818.75,-91.73 818.75,-111.5 818.75,-111.5 818.75,-111.5 909.75,-111.5 909.75,-111.5"/>
<polygon fill="#7f7f7f" stroke="#7f7f7f" stroke-width="1.4" points="909.75,-116.75 924.75,-111.5 909.75,-106.25 909.75,-116.75"/>
</g>
<!-- malnutrition&#45;&gt;weight_loss -->
<g id="edge37" class="edge">
<title>malnutrition&#45;&gt;weight_loss</title>
<path fill="none" stroke="#7f7f7f" stroke-width="1.4" d="M1042.75,-180.34C1042.75,-255.7 1042.75,-422 1042.75,-422 1042.75,-422 1097.08,-422 1097.08,-422"/>
<polygon fill="#7f7f7f" stroke="#7f7f7f" stroke-width="1.4" points="1097.08,-427.25 1112.08,-422 1097.08,-416.75 1097.08,-427.25"/>
</g>
<!-- malnutrition&#45;&gt;muscle_atrophy -->
<g id="edge24" class="edge">
<title>malnutrition&#45;&gt;muscle_atrophy</title>
<path fill="none" stroke="#7f7f7f" stroke-width="1.4" d="M1071.74,-156C1124.5,-156 1186.75,-156 1186.75,-156 1186.75,-156 1186.75,-271.63 1186.75,-271.63"/>
<polygon fill="#7f7f7f" stroke="#7f7f7f" stroke-width="1.4" points="1181.5,-271.63 1186.75,-286.63 1192,-271.63 1181.5,-271.63"/>
</g>
<!-- malnutrition&#45;&gt;adl -->
<g id="edge23" class="edge">
<title>malnutrition&#45;&gt;adl</title>
<path fill="none" stroke="#7f7f7f" stroke-width="1.4" d="M1071.74,-132C1222.05,-132 1553.75,-132 1553.75,-132 1553.75,-132 1553.75,-530.66 1553.75,-530.66"/>
<polygon fill="#7f7f7f" stroke="#7f7f7f" stroke-width="1.4" points="1548.5,-530.66 1553.75,-545.66 1559,-530.66 1548.5,-530.66"/>
</g>
<!-- malnutrition&#45;&gt;fatigue -->
<g id="edge22" class="edge">
<title>malnutrition&#45;&gt;fatigue</title>
<path fill="none" stroke="#7f7f7f" stroke-width="1.4" d="M1013.75,-180.47C1013.75,-282.46 1013.75,-563.2 1013.75,-563.2 1013.75,-563.2 1284.21,-563.2 1284.21,-563.2"/>
<polygon fill="#7f7f7f" stroke="#7f7f7f" stroke-width="1.4" points="1284.21,-568.45 1299.21,-563.2 1284.21,-557.95 1284.21,-568.45"/>
</g>
<!-- cachexia&#45;&gt;weight_loss -->
<g id="edge7" class="edge">
<title>cachexia&#45;&gt;weight_loss</title>
<path fill="none" stroke="#7f7f7f" stroke-width="1.4" d="M697.84,-225.25C783.47,-225.25 914.75,-225.25 914.75,-225.25 914.75,-225.25 914.75,-440 914.75,-440 914.75,-440 1096.91,-440 1096.91,-440"/>
<polygon fill="#7f7f7f" stroke="#7f7f7f" stroke-width="1.4" points="1096.91,-445.25 1111.91,-440 1096.91,-434.75 1096.91,-445.25"/>
</g>
<!-- cachexia&#45;&gt;cancer_fatigue -->
<g id="edge9" class="edge">
<title>cachexia&#45;&gt;cancer_fatigue</title>
<path fill="none" stroke="#7f7f7f" stroke-width="1.4" d="M698,-176.5C698,-176.5 729.84,-176.5 729.84,-176.5"/>
<polygon fill="#7f7f7f" stroke="#7f7f7f" stroke-width="1.4" points="729.84,-181.75 744.84,-176.5 729.84,-171.25 729.84,-181.75"/>
</g>
<!-- cachexia&#45;&gt;fatigue -->
<g id="edge10" class="edge">
<title>cachexia&#45;&gt;fatigue</title>
<path fill="none" stroke="#7f7f7f" stroke-width="1.4" d="M697.92,-212.5C889.86,-212.5 1397.75,-212.5 1397.75,-212.5 1397.75,-212.5 1397.75,-530.58 1397.75,-530.58"/>
<polygon fill="#7f7f7f" stroke="#7f7f7f" stroke-width="1.4" points="1392.5,-530.58 1397.75,-545.58 1403,-530.58 1392.5,-530.58"/>
</g>
<!-- cachexia&#45;&gt;appetite_loss -->
<g id="edge11" class="edge">
<title>cachexia&#45;&gt;appetite_loss</title>
<path fill="none" stroke="#7f7f7f" stroke-width="1.4" d="M625.75,-165.57C625.75,-116.71 625.75,-36 625.75,-36 625.75,-36 729.8,-36 729.8,-36"/>
<polygon fill="#7f7f7f" stroke="#7f7f7f" stroke-width="1.4" points="729.8,-41.25 744.8,-36 729.8,-30.75 729.8,-41.25"/>
</g>
<!-- cachexia&#45;&gt;malnutrition -->
<g id="edge8" class="edge">
<title>cachexia&#45;&gt;malnutrition</title>
<path fill="none" stroke="#7f7f7f" stroke-width="1.4" d="M697.87,-199.75C802.74,-199.75 984.75,-199.75 984.75,-199.75 984.75,-199.75 984.75,-197.37 984.75,-197.37"/>
<polygon fill="#7f7f7f" stroke="#7f7f7f" stroke-width="1.4" points="990,-197.37 984.75,-182.37 979.5,-197.37 990,-197.37"/>
</g>
</g>
</svg>
