<?xml version="1.0" encoding="UTF-8" standalone="no"?>
<!DOCTYPE svg PUBLIC "-//W3C//DTD SVG 1.1//EN"
 "http://www.w3.org/Graphics/SVG/1.1/DTD/svg11.dtd">
<!-- Generated by graphviz version 14.1.5 (20260411.2331)
 -->
<!-- Pages: 1 -->
<svg width="1166pt" height="377pt"
 viewBox="7.00 7.00 1159.00 370.00" xmlns="http://www.w3.org/2000/svg" xmlns:xlink="http://www.w3.org/1999/xlink">
<g id="graph0" class="graph" transform="scale(0.49827 0.49827) rotate(0) translate(18.45 738.45)">
<polygon fill="white" stroke="none" points="-4,4 -4,-724 2308,-724 2308,4 -4,4"/>
<!-- delirium -->
<g id="node1" class="node">
<title>delirium</title>
<path fill="none" stroke="black" d="M1572,-86C1572,-86 1452,-86 1452,-86 1446,-86 1440,-80 1440,-74 1440,-74 1440,-26 1440,-26 1440,-20 1446,-14 1452,-14 1452,-14 1572,-14 1572,-14 1578,-14 1584,-20 1584,-26 1584,-26 1584,-74 1584,-74 1584,-80 1578,-86 1572,-86"/>
<text xml:space="preserve" text-anchor="middle" x="1512" y="-42.27" font-family="Tsukushi A Round Gothic Bold" font-size="18.00">せん妄</text>
</g>
<!-- adl -->
<g id="node24" class="node">
<title>adl</title>
<path fill="none" stroke="black" d="M2292,-274C2292,-274 2172,-274 2172,-274 2166,-274 2160,-268 2160,-262 2160,-262 2160,-214 2160,-214 2160,-208 2166,-202 2172,-202 2172,-202 2292,-202 2292,-202 2298,-202 2304,-208 2304,-214 2304,-214 2304,-262 2304,-262 2304,-268 2298,-274 2292,-274"/>
<text xml:space="preserve" text-anchor="middle" x="2232" y="-230.28" font-family="Tsukushi A Round Gothic Bold" font-size="18.00">ADL低下</text>
</g>
<!-- delirium&#45;&gt;adl -->
<g id="edge10" class="edge">
<title>delirium&#45;&gt;adl</title>
<path fill="none" stroke="#7f7f7f" stroke-width="1.4" d="M1536,-86.47C1536,-136.42 1536,-220 1536,-220 1536,-220 2142.69,-220 2142.69,-220"/>
<polygon fill="#7f7f7f" stroke="#7f7f7f" stroke-width="1.4" points="2142.69,-225.25 2157.69,-220 2142.69,-214.75 2142.69,-225.25"/>
</g>
<!-- gait_disorder -->
<g id="node2" class="node">
<title>gait_disorder</title>
<path fill="none" stroke="black" d="M2112,-605C2112,-605 1992,-605 1992,-605 1986,-605 1980,-599 1980,-593 1980,-593 1980,-545 1980,-545 1980,-539 1986,-533 1992,-533 1992,-533 2112,-533 2112,-533 2118,-533 2124,-539 2124,-545 2124,-545 2124,-593 2124,-593 2124,-599 2118,-605 2112,-605"/>
<text xml:space="preserve" text-anchor="middle" x="2052" y="-561.27" font-family="Tsukushi A Round Gothic Bold" font-size="18.00">歩行障害</text>
</g>
<!-- fall_risk -->
<g id="node3" class="node">
<title>fall_risk</title>
<path fill="none" stroke="black" d="M2292,-605C2292,-605 2172,-605 2172,-605 2166,-605 2160,-599 2160,-593 2160,-593 2160,-545 2160,-545 2160,-539 2166,-533 2172,-533 2172,-533 2292,-533 2292,-533 2298,-533 2304,-539 2304,-545 2304,-545 2304,-593 2304,-593 2304,-599 2298,-605 2292,-605"/>
<text xml:space="preserve" text-anchor="middle" x="2232" y="-561.27" font-family="Tsukushi A Round Gothic Bold" font-size="18.00">転倒リスク</text>
</g>
<!-- gait_disorder&#45;&gt;fall_risk -->
<g id="edge22" class="edge">
<title>gait_disorder&#45;&gt;fall_risk</title>
<path fill="none" stroke="#7f7f7f" stroke-width="1.4" d="M2124.43,-581C2124.43,-581 2142.59,-581 2142.59,-581"/>
<polygon fill="#7f7f7f" stroke="#7f7f7f" stroke-width="1.4" points="2142.59,-586.25 2157.59,-581 2142.59,-575.75 2142.59,-586.25"/>
</g>
<!-- gait_disorder&#45;&gt;adl -->
<g id="edge21" class="edge">
<title>gait_disorder&#45;&gt;adl</title>
<path fill="none" stroke="#7f7f7f" stroke-width="1.4" d="M2124.22,-557C2134.68,-557 2142,-557 2142,-557 2142,-557 2142,-265 2142,-265 2142,-265 2143.78,-265 2143.78,-265"/>
<polygon fill="#7f7f7f" stroke="#7f7f7f" stroke-width="1.4" points="2142.66,-270.25 2157.66,-265 2142.66,-259.75 2142.66,-270.25"/>
</g>
<!-- crp -->
<g id="node4" class="node">
<title>crp</title>
<path fill="none" stroke="black" d="M1932,-490C1932,-490 1812,-490 1812,-490 1806,-490 1800,-484 1800,-478 1800,-478 1800,-430 1800,-430 1800,-424 1806,-418 1812,-418 1812,-418 1932,-418 1932,-418 1938,-418 1944,-424 1944,-430 1944,-430 1944,-478 1944,-478 1944,-484 1938,-490 1932,-490"/>
<text xml:space="preserve" text-anchor="middle" x="1872" y="-446.27" font-family="Tsukushi A Round Gothic Bold" font-size="18.00">CRP上昇</text>
</g>
<!-- immobility -->
<g id="node5" class="node">
<title>immobility</title>
<path fill="none" stroke="black" d="M1212,-389C1212,-389 1092,-389 1092,-389 1086,-389 1080,-383 1080,-377 1080,-377 1080,-329 1080,-329 1080,-323 1086,-317 1092,-317 1092,-317 1212,-317 1212,-317 1218,-317 1224,-323 1224,-329 1224,-329 1224,-377 1224,-377 1224,-383 1218,-389 1212,-389"/>
<text xml:space="preserve" text-anchor="middle" x="1152" y="-345.27" font-family="Tsukushi A Round Gothic Bold" font-size="18.00">活動制限</text>
</g>
<!-- bed_rest -->
<g id="node10" class="node">
<title>bed_rest</title>
<path fill="none" stroke="black" d="M1392,-450C1392,-450 1272,-450 1272,-450 1266,-450 1260,-444 1260,-438 1260,-438 1260,-390 1260,-390 1260,-384 1266,-378 1272,-378 1272,-378 1392,-378 1392,-378 1398,-378 1404,-384 1404,-390 1404,-390 1404,-438 1404,-438 1404,-444 1398,-450 1392,-450"/>
<text xml:space="preserve" text-anchor="middle" x="1332" y="-406.27" font-family="Tsukushi A Round Gothic Bold" font-size="18.00">臥床</text>
</g>
<!-- immobility&#45;&gt;bed_rest -->
<g id="edge24" class="edge">
<title>immobility&#45;&gt;bed_rest</title>
<path fill="none" stroke="#7f7f7f" stroke-width="1.4" d="M1224.43,-383.5C1224.43,-383.5 1242.59,-383.5 1242.59,-383.5"/>
<polygon fill="#7f7f7f" stroke="#7f7f7f" stroke-width="1.4" points="1242.59,-388.75 1257.59,-383.5 1242.59,-378.25 1242.59,-388.75"/>
</g>
<!-- insomnia -->
<g id="node6" class="node">
<title>insomnia</title>
<path fill="none" stroke="black" d="M1392,-187C1392,-187 1272,-187 1272,-187 1266,-187 1260,-181 1260,-175 1260,-175 1260,-127 1260,-127 1260,-121 1266,-115 1272,-115 1272,-115 1392,-115 1392,-115 1398,-115 1404,-121 1404,-127 1404,-127 1404,-175 1404,-175 1404,-181 1398,-187 1392,-187"/>
<text xml:space="preserve" text-anchor="middle" x="1332" y="-143.28" font-family="Tsukushi A Round Gothic Bold" font-size="18.00">不眠</text>
</g>
<!-- fatigue -->
<g id="node21" class="node">
<title>fatigue</title>
<path fill="none" stroke="black" d="M2112,-375C2112,-375 1992,-375 1992,-375 1986,-375 1980,-369 1980,-363 1980,-363 1980,-315 1980,-315 1980,-309 1986,-303 1992,-303 1992,-303 2112,-303 2112,-303 2118,-303 2124,-309 2124,-315 2124,-315 2124,-363 2124,-363 2124,-369 2118,-375 2112,-375"/>
<text xml:space="preserve" text-anchor="middle" x="2052" y="-331.27" font-family="Tsukushi A Round Gothic Bold" font-size="18.00">倦怠感</text>
</g>
<!-- insomnia&#45;&gt;fatigue -->
<g id="edge28" class="edge">
<title>insomnia&#45;&gt;fatigue</title>
<path fill="none" stroke="#7f7f7f" stroke-width="1.4" d="M1404.19,-151C1582.23,-151 2028,-151 2028,-151 2028,-151 2028,-285.63 2028,-285.63"/>
<polygon fill="#7f7f7f" stroke="#7f7f7f" stroke-width="1.4" points="2022.75,-285.63 2028,-300.63 2033.25,-285.63 2022.75,-285.63"/>
</g>
<!-- constipation -->
<g id="node7" class="node">
<title>constipation</title>
<path fill="none" stroke="black" d="M1752,-310C1752,-310 1632,-310 1632,-310 1626,-310 1620,-304 1620,-298 1620,-298 1620,-250 1620,-250 1620,-244 1626,-238 1632,-238 1632,-238 1752,-238 1752,-238 1758,-238 1764,-244 1764,-250 1764,-250 1764,-298 1764,-298 1764,-304 1758,-310 1752,-310"/>
<text xml:space="preserve" text-anchor="middle" x="1692" y="-266.27" font-family="Tsukushi A Round Gothic Bold" font-size="18.00">便秘</text>
</g>
<!-- constipation&#45;&gt;adl -->
<g id="edge9" class="edge">
<title>constipation&#45;&gt;adl</title>
<path fill="none" stroke="#7f7f7f" stroke-width="1.4" d="M1764.27,-247C1764.27,-247 2142.61,-247 2142.61,-247"/>
<polygon fill="#7f7f7f" stroke="#7f7f7f" stroke-width="1.4" points="2142.61,-252.25 2157.61,-247 2142.61,-241.75 2142.61,-252.25"/>
</g>
<!-- leg_shortening -->
<g id="node8" class="node">
<title>leg_shortening</title>
<path fill="none" stroke="black" d="M492,-389C492,-389 372,-389 372,-389 366,-389 360,-383 360,-377 360,-377 360,-329 360,-329 360,-323 366,-317 372,-317 372,-317 492,-317 492,-317 498,-317 504,-323 504,-329 504,-329 504,-377 504,-377 504,-383 498,-389 492,-389"/>
<text xml:space="preserve" text-anchor="middle" x="432" y="-345.27" font-family="Tsukushi A Round Gothic Bold" font-size="18.00">下肢短縮</text>
</g>
<!-- appetite_loss -->
<g id="node9" class="node">
<title>appetite_loss</title>
<path fill="none" stroke="black" d="M1212,-274C1212,-274 1092,-274 1092,-274 1086,-274 1080,-268 1080,-262 1080,-262 1080,-214 1080,-214 1080,-208 1086,-202 1092,-202 1092,-202 1212,-202 1212,-202 1218,-202 1224,-208 1224,-214 1224,-214 1224,-262 1224,-262 1224,-268 1218,-274 1212,-274"/>
<text xml:space="preserve" text-anchor="middle" x="1152" y="-230.28" font-family="Tsukushi A Round Gothic Bold" font-size="18.00">食欲低下</text>
</g>
<!-- bed_rest&#45;&gt;delirium -->
<g id="edge6" class="edge">
<title>bed_rest&#45;&gt;delirium</title>
<path fill="none" stroke="#7f7f7f" stroke-width="1.4" d="M1404.22,-395C1414.68,-395 1422,-395 1422,-395 1422,-395 1422,-79 1422,-79 1422,-79 1423.78,-79 1423.78,-79"/>
<polygon fill="#7f7f7f" stroke="#7f7f7f" stroke-width="1.4" points="1422.66,-84.25 1437.66,-79 1422.66,-73.75 1422.66,-84.25"/>
</g>
<!-- bed_rest&#45;&gt;constipation -->
<g id="edge3" class="edge">
<title>bed_rest&#45;&gt;constipation</title>
<path fill="none" stroke="#7f7f7f" stroke-width="1.4" d="M1356,-377.61C1356,-343.92 1356,-299 1356,-299 1356,-299 1602.39,-299 1602.39,-299"/>
<polygon fill="#7f7f7f" stroke="#7f7f7f" stroke-width="1.4" points="1602.39,-304.25 1617.39,-299 1602.39,-293.75 1602.39,-304.25"/>
</g>
<!-- muscle_atrophy -->
<g id="node13" class="node">
<title>muscle_atrophy</title>
<path fill="none" stroke="black" d="M1752,-720C1752,-720 1632,-720 1632,-720 1626,-720 1620,-714 1620,-708 1620,-708 1620,-660 1620,-660 1620,-654 1626,-648 1632,-648 1632,-648 1752,-648 1752,-648 1758,-648 1764,-654 1764,-660 1764,-660 1764,-708 1764,-708 1764,-714 1758,-720 1752,-720"/>
<text xml:space="preserve" text-anchor="middle" x="1692" y="-676.27" font-family="Tsukushi A Round Gothic Bold" font-size="18.00">筋萎縮</text>
</g>
<!-- bed_rest&#45;&gt;muscle_atrophy -->
<g id="edge7" class="edge">
<title>bed_rest&#45;&gt;muscle_atrophy</title>
<path fill="none" stroke="#7f7f7f" stroke-width="1.4" d="M1308,-450.3C1308,-525.11 1308,-689.5 1308,-689.5 1308,-689.5 1602.65,-689.5 1602.65,-689.5"/>
<polygon fill="#7f7f7f" stroke="#7f7f7f" stroke-width="1.4" points="1602.65,-694.75 1617.65,-689.5 1602.65,-684.25 1602.65,-694.75"/>
</g>
<!-- pressure_ulcer -->
<g id="node15" class="node">
<title>pressure_ulcer</title>
<path fill="none" stroke="black" d="M1572,-429C1572,-429 1452,-429 1452,-429 1446,-429 1440,-423 1440,-417 1440,-417 1440,-369 1440,-369 1440,-363 1446,-357 1452,-357 1452,-357 1572,-357 1572,-357 1578,-357 1584,-363 1584,-369 1584,-369 1584,-417 1584,-417 1584,-423 1578,-429 1572,-429"/>
<text xml:space="preserve" text-anchor="middle" x="1512" y="-385.27" font-family="Tsukushi A Round Gothic Bold" font-size="18.00">褥瘡</text>
</g>
<!-- bed_rest&#45;&gt;pressure_ulcer -->
<g id="edge5" class="edge">
<title>bed_rest&#45;&gt;pressure_ulcer</title>
<path fill="none" stroke="#7f7f7f" stroke-width="1.4" d="M1404.43,-412C1404.43,-412 1422.59,-412 1422.59,-412"/>
<polygon fill="#7f7f7f" stroke="#7f7f7f" stroke-width="1.4" points="1422.59,-417.25 1437.59,-412 1422.59,-406.75 1422.59,-417.25"/>
</g>
<!-- dvt -->
<g id="node16" class="node">
<title>dvt</title>
<path fill="none" stroke="black" d="M1572,-659C1572,-659 1452,-659 1452,-659 1446,-659 1440,-653 1440,-647 1440,-647 1440,-599 1440,-599 1440,-593 1446,-587 1452,-587 1452,-587 1572,-587 1572,-587 1578,-587 1584,-593 1584,-599 1584,-599 1584,-647 1584,-647 1584,-653 1578,-659 1572,-659"/>
<text xml:space="preserve" text-anchor="middle" x="1512" y="-615.27" font-family="Tsukushi A Round Gothic Bold" font-size="18.00">深部静脈血栓症</text>
</g>
<!-- bed_rest&#45;&gt;dvt -->
<g id="edge4" class="edge">
<title>bed_rest&#45;&gt;dvt</title>
<path fill="none" stroke="#7f7f7f" stroke-width="1.4" d="M1356,-450.41C1356,-510.28 1356,-623 1356,-623 1356,-623 1422.82,-623 1422.82,-623"/>
<polygon fill="#7f7f7f" stroke="#7f7f7f" stroke-width="1.4" points="1422.82,-628.25 1437.82,-623 1422.82,-617.75 1422.82,-628.25"/>
</g>
<!-- disuse -->
<g id="node20" class="node">
<title>disuse</title>
<path fill="none" stroke="black" d="M1572,-544C1572,-544 1452,-544 1452,-544 1446,-544 1440,-538 1440,-532 1440,-532 1440,-484 1440,-484 1440,-478 1446,-472 1452,-472 1452,-472 1572,-472 1572,-472 1578,-472 1584,-478 1584,-484 1584,-484 1584,-532 1584,-532 1584,-538 1578,-544 1572,-544"/>
<text xml:space="preserve" text-anchor="middle" x="1512" y="-500.27" font-family="Tsukushi A Round Gothic Bold" font-size="18.00">廃用症候群</text>
</g>
<!-- bed_rest&#45;&gt;disuse -->
<g id="edge2" class="edge">
<title>bed_rest&#45;&gt;disuse</title>
<path fill="none" stroke="#7f7f7f" stroke-width="1.4" d="M1404.43,-438C1454.45,-438 1512,-438 1512,-438 1512,-438 1512,-454.65 1512,-454.65"/>
<polygon fill="#7f7f7f" stroke="#7f7f7f" stroke-width="1.4" points="1506.75,-454.65 1512,-469.65 1517.25,-454.65 1506.75,-454.65"/>
</g>
<!-- pain -->
<g id="node11" class="node">
<title>pain</title>
<path fill="none" stroke="black" d="M1032,-175C1032,-175 912,-175 912,-175 906,-175 900,-169 900,-163 900,-163 900,-115 900,-115 900,-109 906,-103 912,-103 912,-103 1032,-103 1032,-103 1038,-103 1044,-109 1044,-115 1044,-115 1044,-163 1044,-163 1044,-169 1038,-175 1032,-175"/>
<text xml:space="preserve" text-anchor="middle" x="972" y="-131.28" font-family="Tsukushi A Round Gothic Bold" font-size="18.00">疼痛</text>
</g>
<!-- pain&#45;&gt;delirium -->
<g id="edge35" class="edge">
<title>pain&#45;&gt;delirium</title>
<path fill="none" stroke="#7f7f7f" stroke-width="1.4" d="M1044.29,-107C1186.3,-107 1488,-107 1488,-107 1488,-107 1488,-103.54 1488,-103.54"/>
<polygon fill="#7f7f7f" stroke="#7f7f7f" stroke-width="1.4" points="1493.25,-103.54 1488,-88.54 1482.75,-103.54 1493.25,-103.54"/>
</g>
<!-- pain&#45;&gt;immobility -->
<g id="edge32" class="edge">
<title>pain&#45;&gt;immobility</title>
<path fill="none" stroke="#7f7f7f" stroke-width="1.4" d="M948,-175.3C948,-236.36 948,-353 948,-353 948,-353 1062.38,-353 1062.38,-353"/>
<polygon fill="#7f7f7f" stroke="#7f7f7f" stroke-width="1.4" points="1062.38,-358.25 1077.38,-353 1062.38,-347.75 1062.38,-358.25"/>
</g>
<!-- pain&#45;&gt;insomnia -->
<g id="edge33" class="edge">
<title>pain&#45;&gt;insomnia</title>
<path fill="none" stroke="#7f7f7f" stroke-width="1.4" d="M1044.42,-145C1044.42,-145 1242.58,-145 1242.58,-145"/>
<polygon fill="#7f7f7f" stroke="#7f7f7f" stroke-width="1.4" points="1242.58,-150.25 1257.58,-145 1242.58,-139.75 1242.58,-150.25"/>
</g>
<!-- pain&#45;&gt;appetite_loss -->
<g id="edge34" class="edge">
<title>pain&#45;&gt;appetite_loss</title>
<path fill="none" stroke="#7f7f7f" stroke-width="1.4" d="M996,-175.23C996,-192.31 996,-209 996,-209 996,-209 1062.82,-209 1062.82,-209"/>
<polygon fill="#7f7f7f" stroke="#7f7f7f" stroke-width="1.4" points="1062.82,-214.25 1077.82,-209 1062.82,-203.75 1062.82,-214.25"/>
</g>
<!-- pain&#45;&gt;adl -->
<g id="edge31" class="edge">
<title>pain&#45;&gt;adl</title>
<path fill="none" stroke="#7f7f7f" stroke-width="1.4" d="M1044.27,-111C1312,-111 2232,-111 2232,-111 2232,-111 2232,-184.49 2232,-184.49"/>
<polygon fill="#7f7f7f" stroke="#7f7f7f" stroke-width="1.4" points="2226.75,-184.49 2232,-199.49 2237.25,-184.49 2226.75,-184.49"/>
</g>
<!-- inflammation -->
<g id="node12" class="node">
<title>inflammation</title>
<path fill="none" stroke="black" d="M1752,-447C1752,-447 1632,-447 1632,-447 1626,-447 1620,-441 1620,-435 1620,-435 1620,-387 1620,-387 1620,-381 1626,-375 1632,-375 1632,-375 1752,-375 1752,-375 1758,-375 1764,-381 1764,-387 1764,-387 1764,-435 1764,-435 1764,-441 1758,-447 1752,-447"/>
<text xml:space="preserve" text-anchor="middle" x="1692" y="-403.27" font-family="Tsukushi A Round Gothic Bold" font-size="18.00">炎症</text>
</g>
<!-- inflammation&#45;&gt;crp -->
<g id="edge26" class="edge">
<title>inflammation&#45;&gt;crp</title>
<path fill="none" stroke="#7f7f7f" stroke-width="1.4" d="M1764.43,-432.5C1764.43,-432.5 1782.59,-432.5 1782.59,-432.5"/>
<polygon fill="#7f7f7f" stroke="#7f7f7f" stroke-width="1.4" points="1782.59,-437.75 1797.59,-432.5 1782.59,-427.25 1782.59,-437.75"/>
</g>
<!-- fever -->
<g id="node17" class="node">
<title>fever</title>
<path fill="none" stroke="black" d="M1932,-375C1932,-375 1812,-375 1812,-375 1806,-375 1800,-369 1800,-363 1800,-363 1800,-315 1800,-315 1800,-309 1806,-303 1812,-303 1812,-303 1932,-303 1932,-303 1938,-303 1944,-309 1944,-315 1944,-315 1944,-363 1944,-363 1944,-369 1938,-375 1932,-375"/>
<text xml:space="preserve" text-anchor="middle" x="1872" y="-331.27" font-family="Tsukushi A Round Gothic Bold" font-size="18.00">発熱</text>
</g>
<!-- inflammation&#45;&gt;fever -->
<g id="edge25" class="edge">
<title>inflammation&#45;&gt;fever</title>
<path fill="none" stroke="#7f7f7f" stroke-width="1.4" d="M1692,-374.68C1692,-369.56 1692,-366 1692,-366 1692,-366 1782.45,-366 1782.45,-366"/>
<polygon fill="#7f7f7f" stroke="#7f7f7f" stroke-width="1.4" points="1782.45,-371.25 1797.45,-366 1782.45,-360.75 1782.45,-371.25"/>
</g>
<!-- wbc -->
<g id="node25" class="node">
<title>wbc</title>
<path fill="none" stroke="black" d="M1932,-605C1932,-605 1812,-605 1812,-605 1806,-605 1800,-599 1800,-593 1800,-593 1800,-545 1800,-545 1800,-539 1806,-533 1812,-533 1812,-533 1932,-533 1932,-533 1938,-533 1944,-539 1944,-545 1944,-545 1944,-593 1944,-593 1944,-599 1938,-605 1932,-605"/>
<text xml:space="preserve" text-anchor="middle" x="1872" y="-561.27" font-family="Tsukushi A Round Gothic Bold" font-size="18.00">WBC増加</text>
</g>
<!-- inflammation&#45;&gt;wbc -->
<g id="edge27" class="edge">
<title>inflammation&#45;&gt;wbc</title>
<path fill="none" stroke="#7f7f7f" stroke-width="1.4" d="M1716,-447.42C1716,-484.24 1716,-535.75 1716,-535.75 1716,-535.75 1782.82,-535.75 1782.82,-535.75"/>
<polygon fill="#7f7f7f" stroke="#7f7f7f" stroke-width="1.4" points="1782.82,-541 1797.82,-535.75 1782.82,-530.5 1782.82,-541"/>
</g>
<!-- muscle_weakness -->
<g id="node19" class="node">
<title>muscle_weakness</title>
<path fill="none" stroke="black" d="M1932,-720C1932,-720 1812,-720 1812,-720 1806,-720 1800,-714 1800,-708 1800,-708 1800,-660 1800,-660 1800,-654 1806,-648 1812,-648 1812,-648 1932,-648 1932,-648 1938,-648 1944,-654 1944,-660 1944,-660 1944,-708 1944,-708 1944,-714 1938,-720 1932,-720"/>
<text xml:space="preserve" text-anchor="middle" x="1872" y="-676.27" font-family="Tsukushi A Round Gothic Bold" font-size="18.00">筋力低下</text>
</g>
<!-- muscle_atrophy&#45;&gt;muscle_weakness -->
<g id="edge29" class="edge">
<title>muscle_atrophy&#45;&gt;muscle_weakness</title>
<path fill="none" stroke="#7f7f7f" stroke-width="1.4" d="M1764.43,-696C1764.43,-696 1782.59,-696 1782.59,-696"/>
<polygon fill="#7f7f7f" stroke="#7f7f7f" stroke-width="1.4" points="1782.59,-701.25 1797.59,-696 1782.59,-690.75 1782.59,-701.25"/>
</g>
<!-- fracture -->
<g id="node14" class="node">
<title>fracture</title>
<path fill="none" stroke="black" d="M492,-187C492,-187 372,-187 372,-187 366,-187 360,-181 360,-175 360,-175 360,-127 360,-127 360,-121 366,-115 372,-115 372,-115 492,-115 492,-115 498,-115 504,-121 504,-127 504,-127 504,-175 504,-175 504,-181 498,-187 492,-187"/>
<text xml:space="preserve" text-anchor="middle" x="432" y="-143.28" font-family="Tsukushi A Round Gothic Bold" font-size="18.00">骨折</text>
</g>
<!-- bone_damage -->
<g id="node26" class="node">
<title>bone_damage</title>
<path fill="none" stroke="black" d="M672,-185C672,-185 552,-185 552,-185 546,-185 540,-179 540,-173 540,-173 540,-125 540,-125 540,-119 546,-113 552,-113 552,-113 672,-113 672,-113 678,-113 684,-119 684,-125 684,-125 684,-173 684,-173 684,-179 678,-185 672,-185"/>
<text xml:space="preserve" text-anchor="middle" x="612" y="-141.28" font-family="Tsukushi A Round Gothic Bold" font-size="18.00">骨損傷</text>
</g>
<!-- fracture&#45;&gt;bone_damage -->
<g id="edge20" class="edge">
<title>fracture&#45;&gt;bone_damage</title>
<path fill="none" stroke="#7f7f7f" stroke-width="1.4" d="M504.43,-150C504.43,-150 522.59,-150 522.59,-150"/>
<polygon fill="#7f7f7f" stroke="#7f7f7f" stroke-width="1.4" points="522.59,-155.25 537.59,-150 522.59,-144.75 522.59,-155.25"/>
</g>
<!-- pressure_ulcer&#45;&gt;inflammation -->
<g id="edge36" class="edge">
<title>pressure_ulcer&#45;&gt;inflammation</title>
<path fill="none" stroke="#7f7f7f" stroke-width="1.4" d="M1584.43,-402C1584.43,-402 1602.59,-402 1602.59,-402"/>
<polygon fill="#7f7f7f" stroke="#7f7f7f" stroke-width="1.4" points="1602.59,-407.25 1617.59,-402 1602.59,-396.75 1602.59,-407.25"/>
</g>
<!-- fever&#45;&gt;fatigue -->
<g id="edge19" class="edge">
<title>fever&#45;&gt;fatigue</title>
<path fill="none" stroke="#7f7f7f" stroke-width="1.4" d="M1944.43,-339C1944.43,-339 1962.59,-339 1962.59,-339"/>
<polygon fill="#7f7f7f" stroke="#7f7f7f" stroke-width="1.4" points="1962.59,-344.25 1977.59,-339 1962.59,-333.75 1962.59,-344.25"/>
</g>
<!-- hip_pain -->
<g id="node18" class="node">
<title>hip_pain</title>
<path fill="none" stroke="black" d="M852,-182C852,-182 732,-182 732,-182 726,-182 720,-176 720,-170 720,-170 720,-122 720,-122 720,-116 726,-110 732,-110 732,-110 852,-110 852,-110 858,-110 864,-116 864,-122 864,-122 864,-170 864,-170 864,-176 858,-182 852,-182"/>
<text xml:space="preserve" text-anchor="middle" x="792" y="-138.28" font-family="Tsukushi A Round Gothic Bold" font-size="18.00">股関節痛</text>
</g>
<!-- hip_pain&#45;&gt;pain -->
<g id="edge23" class="edge">
<title>hip_pain&#45;&gt;pain</title>
<path fill="none" stroke="#7f7f7f" stroke-width="1.4" d="M864.43,-142.5C864.43,-142.5 882.59,-142.5 882.59,-142.5"/>
<polygon fill="#7f7f7f" stroke="#7f7f7f" stroke-width="1.4" points="882.59,-147.75 897.59,-142.5 882.59,-137.25 882.59,-147.75"/>
</g>
<!-- muscle_weakness&#45;&gt;gait_disorder -->
<g id="edge30" class="edge">
<title>muscle_weakness&#45;&gt;gait_disorder</title>
<path fill="none" stroke="#7f7f7f" stroke-width="1.4" d="M1944.43,-684C1994.45,-684 2052,-684 2052,-684 2052,-684 2052,-622.51 2052,-622.51"/>
<polygon fill="#7f7f7f" stroke="#7f7f7f" stroke-width="1.4" points="2057.25,-622.51 2052,-607.51 2046.75,-622.51 2057.25,-622.51"/>
</g>
<!-- disuse&#45;&gt;muscle_atrophy -->
<g id="edge12" class="edge">
<title>disuse&#45;&gt;muscle_atrophy</title>
<path fill="none" stroke="#7f7f7f" stroke-width="1.4" d="M1584.06,-541.25C1624.94,-541.25 1668,-541.25 1668,-541.25 1668,-541.25 1668,-630.49 1668,-630.49"/>
<polygon fill="#7f7f7f" stroke="#7f7f7f" stroke-width="1.4" points="1662.75,-630.49 1668,-645.49 1673.25,-630.49 1662.75,-630.49"/>
</g>
<!-- disuse&#45;&gt;muscle_weakness -->
<g id="edge11" class="edge">
<title>disuse&#45;&gt;muscle_weakness</title>
<path fill="none" stroke="#7f7f7f" stroke-width="1.4" d="M1584.36,-538.5C1664.33,-538.5 1782,-538.5 1782,-538.5 1782,-538.5 1782,-672 1782,-672 1782,-672 1783.78,-672 1783.78,-672"/>
<polygon fill="#7f7f7f" stroke="#7f7f7f" stroke-width="1.4" points="1782.66,-677.25 1797.66,-672 1782.66,-666.75 1782.66,-677.25"/>
</g>
<!-- fatigue&#45;&gt;adl -->
<g id="edge13" class="edge">
<title>fatigue&#45;&gt;adl</title>
<path fill="none" stroke="#7f7f7f" stroke-width="1.4" d="M2076,-302.84C2076,-280.47 2076,-256 2076,-256 2076,-256 2142.82,-256 2142.82,-256"/>
<polygon fill="#7f7f7f" stroke="#7f7f7f" stroke-width="1.4" points="2142.82,-261.25 2157.82,-256 2142.82,-250.75 2142.82,-261.25"/>
</g>
<!-- patient -->
<g id="node22" class="node">
<title>patient</title>
<ellipse fill="#d8bfaa" stroke="black" cx="72" cy="-252" rx="72" ry="36"/>
<text xml:space="preserve" text-anchor="middle" x="72" y="-244.28" font-family="Tsukushi A Round Gothic Bold" font-size="18.00">Aさん</text>
</g>
<!-- femoral_neck_fracture -->
<g id="node27" class="node">
<title>femoral_neck_fracture</title>
<path fill="#efe3d5" stroke="black" d="M312,-288C312,-288 192,-288 192,-288 186,-288 180,-282 180,-276 180,-276 180,-228 180,-228 180,-222 186,-216 192,-216 192,-216 312,-216 312,-216 318,-216 324,-222 324,-228 324,-228 324,-276 324,-276 324,-282 318,-288 312,-288"/>
<text xml:space="preserve" text-anchor="middle" x="252" y="-244.28" font-family="Tsukushi A Round Gothic Bold" font-size="18.00">大腿骨頸部骨折</text>
</g>
<!-- patient&#45;&gt;femoral_neck_fracture -->
<g id="edge1" class="edge">
<title>patient&#45;&gt;femoral_neck_fracture</title>
<path fill="none" stroke="#c2a38c" stroke-width="2" d="M144.43,-252C144.43,-252 166.69,-252 166.69,-252"/>
<polygon fill="#c2a38c" stroke="#c2a38c" stroke-width="2" points="166.69,-255.5 176.69,-252 166.69,-248.5 166.69,-255.5"/>
</g>
<!-- external_rotation -->
<g id="node23" class="node">
<title>external_rotation</title>
<path fill="none" stroke="black" d="M492,-72C492,-72 372,-72 372,-72 366,-72 360,-66 360,-60 360,-60 360,-12 360,-12 360,-6 366,0 372,0 372,0 492,0 492,0 498,0 504,-6 504,-12 504,-12 504,-60 504,-60 504,-66 498,-72 492,-72"/>
<text xml:space="preserve" text-anchor="middle" x="432" y="-28.27" font-family="Tsukushi A Round Gothic Bold" font-size="18.00">外旋位</text>
</g>
<!-- bone_damage&#45;&gt;hip_pain -->
<g id="edge8" class="edge">
<title>bone_damage&#45;&gt;hip_pain</title>
<path fill="none" stroke="#7f7f7f" stroke-width="1.4" d="M684.43,-147.5C684.43,-147.5 702.59,-147.5 702.59,-147.5"/>
<polygon fill="#7f7f7f" stroke="#7f7f7f" stroke-width="1.4" points="702.59,-152.75 717.59,-147.5 702.59,-142.25 702.59,-152.75"/>
</g>
<!-- femoral_neck_fracture&#45;&gt;immobility -->
<g id="edge17" class="edge">
<title>femoral_neck_fracture&#45;&gt;immobility</title>
<path fill="none" stroke="#7f7f7f" stroke-width="1.4" d="M324.13,-281C537.7,-281 1152,-281 1152,-281 1152,-281 1152,-299.46 1152,-299.46"/>
<polygon fill="#7f7f7f" stroke="#7f7f7f" stroke-width="1.4" points="1146.75,-299.46 1152,-314.46 1157.25,-299.46 1146.75,-299.46"/>
</g>
<!-- femoral_neck_fracture&#45;&gt;leg_shortening -->
<g id="edge16" class="edge">
<title>femoral_neck_fracture&#45;&gt;leg_shortening</title>
<path fill="none" stroke="#7f7f7f" stroke-width="1.4" d="M324.06,-284.5C364.94,-284.5 408,-284.5 408,-284.5 408,-284.5 408,-299.63 408,-299.63"/>
<polygon fill="#7f7f7f" stroke="#7f7f7f" stroke-width="1.4" points="402.75,-299.63 408,-314.63 413.25,-299.63 402.75,-299.63"/>
</g>
<!-- femoral_neck_fracture&#45;&gt;bed_rest -->
<g id="edge18" class="edge">
<title>femoral_neck_fracture&#45;&gt;bed_rest</title>
<path fill="none" stroke="#7f7f7f" stroke-width="1.4" d="M324.17,-277.5C562.3,-277.5 1308,-277.5 1308,-277.5 1308,-277.5 1308,-360.66 1308,-360.66"/>
<polygon fill="#7f7f7f" stroke="#7f7f7f" stroke-width="1.4" points="1302.75,-360.66 1308,-375.66 1313.25,-360.66 1302.75,-360.66"/>
</g>
<!-- femoral_neck_fracture&#45;&gt;fracture -->
<g id="edge14" class="edge">
<title>femoral_neck_fracture&#45;&gt;fracture</title>
<path fill="none" stroke="#7f7f7f" stroke-width="1.4" d="M324.5,-245C383.13,-245 456,-245 456,-245 456,-245 456,-204.46 456,-204.46"/>
<polygon fill="#7f7f7f" stroke="#7f7f7f" stroke-width="1.4" points="461.25,-204.46 456,-189.46 450.75,-204.46 461.25,-204.46"/>
</g>
<!-- femoral_neck_fracture&#45;&gt;external_rotation -->
<g id="edge15" class="edge">
<title>femoral_neck_fracture&#45;&gt;external_rotation</title>
<path fill="none" stroke="#7f7f7f" stroke-width="1.4" d="M252,-215.85C252,-154.36 252,-36 252,-36 252,-36 342.45,-36 342.45,-36"/>
<polygon fill="#7f7f7f" stroke="#7f7f7f" stroke-width="1.4" points="342.45,-41.25 357.45,-36 342.45,-30.75 342.45,-41.25"/>
</g>
</g>
</svg>
