<?xml version="1.0" encoding="UTF-8" standalone="no"?>
<!DOCTYPE svg PUBLIC "-//W3C//DTD SVG 1.1//EN"
 "http://www.w3.org/Graphics/SVG/1.1/DTD/svg11.dtd">
<!-- Generated by graphviz version 14.1.5 (20260411.2331)
 -->
<!-- Pages: 1 -->
<svg width="1001pt" height="734pt"
 viewBox="7.00 7.00 994.00 727.00" xmlns="http://www.w3.org/2000/svg" xmlns:xlink="http://www.w3.org/1999/xlink">
<g id="graph0" class="graph" transform="scale(0.619621 0.619621) rotate(0) translate(15.62 1169.62)">
<polygon fill="white" stroke="none" points="-4,4 -4,-1158 1588,-1158 1588,4 -4,4"/>
<!-- oliguria -->
<g id="node1" class="node">
<title>oliguria</title>
<path fill="none" stroke="black" d="M492,-744C492,-744 372,-744 372,-744 366,-744 360,-738 360,-732 360,-732 360,-684 360,-684 360,-678 366,-672 372,-672 372,-672 492,-672 492,-672 498,-672 504,-678 504,-684 504,-684 504,-732 504,-732 504,-738 498,-744 492,-744"/>
<text xml:space="preserve" text-anchor="middle" x="432" y="-700.27" font-family="Tsukushi A Round Gothic Bold" font-size="18.00">乏尿</text>
</g>
<!-- renal_failure -->
<g id="node2" class="node">
<title>renal_failure</title>
<path fill="none" stroke="black" d="M852,-475C852,-475 732,-475 732,-475 726,-475 720,-469 720,-463 720,-463 720,-415 720,-415 720,-409 726,-403 732,-403 732,-403 852,-403 852,-403 858,-403 864,-409 864,-415 864,-415 864,-463 864,-463 864,-469 858,-475 852,-475"/>
<text xml:space="preserve" text-anchor="middle" x="792" y="-431.27" font-family="Tsukushi A Round Gothic Bold" font-size="18.00">腎不全</text>
</g>
<!-- urine -->
<g id="node5" class="node">
<title>urine</title>
<path fill="none" stroke="black" d="M1032,-576C1032,-576 912,-576 912,-576 906,-576 900,-570 900,-564 900,-564 900,-516 900,-516 900,-510 906,-504 912,-504 912,-504 1032,-504 1032,-504 1038,-504 1044,-510 1044,-516 1044,-516 1044,-564 1044,-564 1044,-570 1038,-576 1032,-576"/>
<text xml:space="preserve" text-anchor="middle" x="972" y="-532.27" font-family="Tsukushi A Round Gothic Bold" font-size="18.00">尿量減少</text>
</g>
<!-- renal_failure&#45;&gt;urine -->
<g id="edge31" class="edge">
<title>renal_failure&#45;&gt;urine</title>
<path fill="none" stroke="#7f7f7f" stroke-width="1.4" d="M816,-475.25C816,-493.38 816,-511.5 816,-511.5 816,-511.5 882.82,-511.5 882.82,-511.5"/>
<polygon fill="#7f7f7f" stroke="#7f7f7f" stroke-width="1.4" points="882.82,-516.75 897.82,-511.5 882.82,-506.25 882.82,-516.75"/>
</g>
<!-- electrolyte -->
<g id="node9" class="node">
<title>electrolyte</title>
<path fill="none" stroke="black" d="M1032,-374C1032,-374 912,-374 912,-374 906,-374 900,-368 900,-362 900,-362 900,-314 900,-314 900,-308 906,-302 912,-302 912,-302 1032,-302 1032,-302 1038,-302 1044,-308 1044,-314 1044,-314 1044,-362 1044,-362 1044,-368 1038,-374 1032,-374"/>
<text xml:space="preserve" text-anchor="middle" x="972" y="-330.27" font-family="Tsukushi A Round Gothic Bold" font-size="18.00">電解質異常</text>
</g>
<!-- renal_failure&#45;&gt;electrolyte -->
<g id="edge33" class="edge">
<title>renal_failure&#45;&gt;electrolyte</title>
<path fill="none" stroke="#7f7f7f" stroke-width="1.4" d="M792,-402.89C792,-380.12 792,-355 792,-355 792,-355 882.45,-355 882.45,-355"/>
<polygon fill="#7f7f7f" stroke="#7f7f7f" stroke-width="1.4" points="882.45,-360.25 897.45,-355 882.45,-349.75 882.45,-360.25"/>
</g>
<!-- edema -->
<g id="node20" class="node">
<title>edema</title>
<path fill="none" stroke="black" d="M1212,-635C1212,-635 1092,-635 1092,-635 1086,-635 1080,-629 1080,-623 1080,-623 1080,-575 1080,-575 1080,-569 1086,-563 1092,-563 1092,-563 1212,-563 1212,-563 1218,-563 1224,-569 1224,-575 1224,-575 1224,-623 1224,-623 1224,-629 1218,-635 1212,-635"/>
<text xml:space="preserve" text-anchor="middle" x="1152" y="-591.27" font-family="Tsukushi A Round Gothic Bold" font-size="18.00">浮腫</text>
</g>
<!-- renal_failure&#45;&gt;edema -->
<g id="edge32" class="edge">
<title>renal_failure&#45;&gt;edema</title>
<path fill="none" stroke="#7f7f7f" stroke-width="1.4" d="M768,-475.29C768,-520.11 768,-590.5 768,-590.5 768,-590.5 1062.65,-590.5 1062.65,-590.5"/>
<polygon fill="#7f7f7f" stroke="#7f7f7f" stroke-width="1.4" points="1062.65,-595.75 1077.65,-590.5 1062.65,-585.25 1062.65,-595.75"/>
</g>
<!-- patient -->
<g id="node3" class="node">
<title>patient</title>
<ellipse fill="#d8bfaa" stroke="black" cx="252" cy="-555" rx="72" ry="36"/>
<text xml:space="preserve" text-anchor="middle" x="252" y="-547.27" font-family="Tsukushi A Round Gothic Bold" font-size="18.00">Aさん</text>
</g>
<!-- hf -->
<g id="node22" class="node">
<title>hf</title>
<path fill="#efe3d5" stroke="black" d="M492,-629C492,-629 372,-629 372,-629 366,-629 360,-623 360,-617 360,-617 360,-569 360,-569 360,-563 366,-557 372,-557 372,-557 492,-557 492,-557 498,-557 504,-563 504,-569 504,-569 504,-617 504,-617 504,-623 498,-629 492,-629"/>
<text xml:space="preserve" text-anchor="middle" x="432" y="-585.27" font-family="Tsukushi A Round Gothic Bold" font-size="18.00">心不全</text>
</g>
<!-- patient&#45;&gt;hf -->
<g id="edge1" class="edge">
<title>patient&#45;&gt;hf</title>
<path fill="none" stroke="#c2a38c" stroke-width="2" d="M313.69,-574C313.69,-574 346.5,-574 346.5,-574"/>
<polygon fill="#c2a38c" stroke="#c2a38c" stroke-width="2" points="346.5,-577.5 356.5,-574 346.5,-570.5 346.5,-577.5"/>
</g>
<!-- shock_cardiogenic -->
<g id="node4" class="node">
<title>shock_cardiogenic</title>
<path fill="none" stroke="black" d="M312,-389C312,-389 192,-389 192,-389 186,-389 180,-383 180,-377 180,-377 180,-329 180,-329 180,-323 186,-317 192,-317 192,-317 312,-317 312,-317 318,-317 324,-323 324,-329 324,-329 324,-377 324,-377 324,-383 318,-389 312,-389"/>
<text xml:space="preserve" text-anchor="middle" x="252" y="-345.27" font-family="Tsukushi A Round Gothic Bold" font-size="18.00">心原性ショック</text>
</g>
<!-- hypotension -->
<g id="node8" class="node">
<title>hypotension</title>
<path fill="none" stroke="black" d="M492,-288C492,-288 372,-288 372,-288 366,-288 360,-282 360,-276 360,-276 360,-228 360,-228 360,-222 366,-216 372,-216 372,-216 492,-216 492,-216 498,-216 504,-222 504,-228 504,-228 504,-276 504,-276 504,-282 498,-288 492,-288"/>
<text xml:space="preserve" text-anchor="middle" x="432" y="-244.28" font-family="Tsukushi A Round Gothic Bold" font-size="18.00">血圧低下</text>
</g>
<!-- shock_cardiogenic&#45;&gt;hypotension -->
<g id="edge40" class="edge">
<title>shock_cardiogenic&#45;&gt;hypotension</title>
<path fill="none" stroke="#7f7f7f" stroke-width="1.4" d="M324.43,-336C374.45,-336 432,-336 432,-336 432,-336 432,-305.23 432,-305.23"/>
<polygon fill="#7f7f7f" stroke="#7f7f7f" stroke-width="1.4" points="437.25,-305.23 432,-290.23 426.75,-305.23 437.25,-305.23"/>
</g>
<!-- urine&#45;&gt;edema -->
<g id="edge44" class="edge">
<title>urine&#45;&gt;edema</title>
<path fill="none" stroke="#7f7f7f" stroke-width="1.4" d="M1044.43,-569.5C1044.43,-569.5 1062.59,-569.5 1062.59,-569.5"/>
<polygon fill="#7f7f7f" stroke="#7f7f7f" stroke-width="1.4" points="1062.59,-574.75 1077.59,-569.5 1062.59,-564.25 1062.59,-574.75"/>
</g>
<!-- consciousness -->
<g id="node6" class="node">
<title>consciousness</title>
<path fill="none" stroke="black" d="M1212,-273C1212,-273 1092,-273 1092,-273 1086,-273 1080,-267 1080,-261 1080,-261 1080,-213 1080,-213 1080,-207 1086,-201 1092,-201 1092,-201 1212,-201 1212,-201 1218,-201 1224,-207 1224,-213 1224,-213 1224,-261 1224,-261 1224,-267 1218,-273 1212,-273"/>
<text xml:space="preserve" text-anchor="middle" x="1152" y="-229.28" font-family="Tsukushi A Round Gothic Bold" font-size="18.00">意識レベル低下</text>
</g>
<!-- delirium -->
<g id="node21" class="node">
<title>delirium</title>
<path fill="none" stroke="black" d="M1392,-374C1392,-374 1272,-374 1272,-374 1266,-374 1260,-368 1260,-362 1260,-362 1260,-314 1260,-314 1260,-308 1266,-302 1272,-302 1272,-302 1392,-302 1392,-302 1398,-302 1404,-308 1404,-314 1404,-314 1404,-362 1404,-362 1404,-368 1398,-374 1392,-374"/>
<text xml:space="preserve" text-anchor="middle" x="1332" y="-330.27" font-family="Tsukushi A Round Gothic Bold" font-size="18.00">せん妄</text>
</g>
<!-- consciousness&#45;&gt;delirium -->
<g id="edge11" class="edge">
<title>consciousness&#45;&gt;delirium</title>
<path fill="none" stroke="#7f7f7f" stroke-width="1.4" d="M1224.43,-237C1274.45,-237 1332,-237 1332,-237 1332,-237 1332,-284.42 1332,-284.42"/>
<polygon fill="#7f7f7f" stroke="#7f7f7f" stroke-width="1.4" points="1326.75,-284.42 1332,-299.42 1337.25,-284.42 1326.75,-284.42"/>
</g>
<!-- lactate -->
<g id="node7" class="node">
<title>lactate</title>
<path fill="none" stroke="black" d="M672,-72C672,-72 552,-72 552,-72 546,-72 540,-66 540,-60 540,-60 540,-12 540,-12 540,-6 546,0 552,0 552,0 672,0 672,0 678,0 684,-6 684,-12 684,-12 684,-60 684,-60 684,-66 678,-72 672,-72"/>
<text xml:space="preserve" text-anchor="middle" x="612" y="-28.27" font-family="Tsukushi A Round Gothic Bold" font-size="18.00">乳酸上昇</text>
</g>
<!-- hypotension&#45;&gt;consciousness -->
<g id="edge29" class="edge">
<title>hypotension&#45;&gt;consciousness</title>
<path fill="none" stroke="#7f7f7f" stroke-width="1.4" d="M504.33,-244.5C504.33,-244.5 1062.6,-244.5 1062.6,-244.5"/>
<polygon fill="#7f7f7f" stroke="#7f7f7f" stroke-width="1.4" points="1062.6,-249.75 1077.6,-244.5 1062.6,-239.25 1062.6,-249.75"/>
</g>
<!-- hypotension&#45;&gt;lactate -->
<g id="edge27" class="edge">
<title>hypotension&#45;&gt;lactate</title>
<path fill="none" stroke="#7f7f7f" stroke-width="1.4" d="M432,-215.85C432,-154.36 432,-36 432,-36 432,-36 522.45,-36 522.45,-36"/>
<polygon fill="#7f7f7f" stroke="#7f7f7f" stroke-width="1.4" points="522.45,-41.25 537.45,-36 522.45,-30.75 522.45,-41.25"/>
</g>
<!-- tachycardia -->
<g id="node14" class="node">
<title>tachycardia</title>
<path fill="none" stroke="black" d="M672,-187C672,-187 552,-187 552,-187 546,-187 540,-181 540,-175 540,-175 540,-127 540,-127 540,-121 546,-115 552,-115 552,-115 672,-115 672,-115 678,-115 684,-121 684,-127 684,-127 684,-175 684,-175 684,-181 678,-187 672,-187"/>
<text xml:space="preserve" text-anchor="middle" x="612" y="-143.28" font-family="Tsukushi A Round Gothic Bold" font-size="18.00">頻脈</text>
</g>
<!-- hypotension&#45;&gt;tachycardia -->
<g id="edge26" class="edge">
<title>hypotension&#45;&gt;tachycardia</title>
<path fill="none" stroke="#7f7f7f" stroke-width="1.4" d="M504.5,-230.25C563.13,-230.25 636,-230.25 636,-230.25 636,-230.25 636,-204.5 636,-204.5"/>
<polygon fill="#7f7f7f" stroke="#7f7f7f" stroke-width="1.4" points="641.25,-204.5 636,-189.5 630.75,-204.5 641.25,-204.5"/>
</g>
<!-- renal_flow -->
<g id="node23" class="node">
<title>renal_flow</title>
<path fill="none" stroke="black" d="M672,-490C672,-490 552,-490 552,-490 546,-490 540,-484 540,-478 540,-478 540,-430 540,-430 540,-424 546,-418 552,-418 552,-418 672,-418 672,-418 678,-418 684,-424 684,-430 684,-430 684,-478 684,-478 684,-484 678,-490 672,-490"/>
<text xml:space="preserve" text-anchor="middle" x="612" y="-446.27" font-family="Tsukushi A Round Gothic Bold" font-size="18.00">腎血流低下</text>
</g>
<!-- hypotension&#45;&gt;renal_flow -->
<g id="edge28" class="edge">
<title>hypotension&#45;&gt;renal_flow</title>
<path fill="none" stroke="#7f7f7f" stroke-width="1.4" d="M504.06,-280.5C544.94,-280.5 588,-280.5 588,-280.5 588,-280.5 588,-400.51 588,-400.51"/>
<polygon fill="#7f7f7f" stroke="#7f7f7f" stroke-width="1.4" points="582.75,-400.51 588,-415.51 593.25,-400.51 582.75,-400.51"/>
</g>
<!-- electrolyte&#45;&gt;consciousness -->
<g id="edge18" class="edge">
<title>electrolyte&#45;&gt;consciousness</title>
<path fill="none" stroke="#7f7f7f" stroke-width="1.4" d="M972,-301.62C972,-280.79 972,-258.75 972,-258.75 972,-258.75 1062.45,-258.75 1062.45,-258.75"/>
<polygon fill="#7f7f7f" stroke="#7f7f7f" stroke-width="1.4" points="1062.45,-264 1077.45,-258.75 1062.45,-253.5 1062.45,-264"/>
</g>
<!-- electrolyte&#45;&gt;delirium -->
<g id="edge17" class="edge">
<title>electrolyte&#45;&gt;delirium</title>
<path fill="none" stroke="#7f7f7f" stroke-width="1.4" d="M1044.42,-338C1044.42,-338 1242.58,-338 1242.58,-338"/>
<polygon fill="#7f7f7f" stroke="#7f7f7f" stroke-width="1.4" points="1242.58,-343.25 1257.58,-338 1242.58,-332.75 1242.58,-343.25"/>
</g>
<!-- exercise_intolerance -->
<g id="node10" class="node">
<title>exercise_intolerance</title>
<path fill="none" stroke="black" d="M672,-1154C672,-1154 552,-1154 552,-1154 546,-1154 540,-1148 540,-1142 540,-1142 540,-1094 540,-1094 540,-1088 546,-1082 552,-1082 552,-1082 672,-1082 672,-1082 678,-1082 684,-1088 684,-1094 684,-1094 684,-1142 684,-1142 684,-1148 678,-1154 672,-1154"/>
<text xml:space="preserve" text-anchor="middle" x="612" y="-1110.28" font-family="Tsukushi A Round Gothic Bold" font-size="18.00">運動耐容能低下</text>
</g>
<!-- adl -->
<g id="node11" class="node">
<title>adl</title>
<path fill="none" stroke="black" d="M1572,-966C1572,-966 1452,-966 1452,-966 1446,-966 1440,-960 1440,-954 1440,-954 1440,-906 1440,-906 1440,-900 1446,-894 1452,-894 1452,-894 1572,-894 1572,-894 1578,-894 1584,-900 1584,-906 1584,-906 1584,-954 1584,-954 1584,-960 1578,-966 1572,-966"/>
<text xml:space="preserve" text-anchor="middle" x="1512" y="-922.27" font-family="Tsukushi A Round Gothic Bold" font-size="18.00">ADL低下</text>
</g>
<!-- exercise_intolerance&#45;&gt;adl -->
<g id="edge19" class="edge">
<title>exercise_intolerance&#45;&gt;adl</title>
<path fill="none" stroke="#7f7f7f" stroke-width="1.4" d="M636,-1081.66C636,-1035.38 636,-961.33 636,-961.33 636,-961.33 1422.45,-961.33 1422.45,-961.33"/>
<polygon fill="#7f7f7f" stroke="#7f7f7f" stroke-width="1.4" points="1422.45,-966.58 1437.45,-961.33 1422.45,-956.08 1422.45,-966.58"/>
</g>
<!-- pulmonary_congestion -->
<g id="node12" class="node">
<title>pulmonary_congestion</title>
<path fill="none" stroke="black" d="M312,-1046C312,-1046 192,-1046 192,-1046 186,-1046 180,-1040 180,-1034 180,-1034 180,-986 180,-986 180,-980 186,-974 192,-974 192,-974 312,-974 312,-974 318,-974 324,-980 324,-986 324,-986 324,-1034 324,-1034 324,-1040 318,-1046 312,-1046"/>
<text xml:space="preserve" text-anchor="middle" x="252" y="-1002.27" font-family="Tsukushi A Round Gothic Bold" font-size="18.00">肺うっ血</text>
</g>
<!-- dyspnea -->
<g id="node24" class="node">
<title>dyspnea</title>
<path fill="none" stroke="black" d="M492,-1048C492,-1048 372,-1048 372,-1048 366,-1048 360,-1042 360,-1036 360,-1036 360,-988 360,-988 360,-982 366,-976 372,-976 372,-976 492,-976 492,-976 498,-976 504,-982 504,-988 504,-988 504,-1036 504,-1036 504,-1042 498,-1048 492,-1048"/>
<text xml:space="preserve" text-anchor="middle" x="432" y="-1004.27" font-family="Tsukushi A Round Gothic Bold" font-size="18.00">呼吸困難</text>
</g>
<!-- pulmonary_congestion&#45;&gt;dyspnea -->
<g id="edge30" class="edge">
<title>pulmonary_congestion&#45;&gt;dyspnea</title>
<path fill="none" stroke="#7f7f7f" stroke-width="1.4" d="M324.43,-1011C324.43,-1011 342.59,-1011 342.59,-1011"/>
<polygon fill="#7f7f7f" stroke="#7f7f7f" stroke-width="1.4" points="342.59,-1016.25 357.59,-1011 342.59,-1005.75 342.59,-1016.25"/>
</g>
<!-- fatigue -->
<g id="node13" class="node">
<title>fatigue</title>
<path fill="none" stroke="black" d="M672,-952C672,-952 552,-952 552,-952 546,-952 540,-946 540,-940 540,-940 540,-892 540,-892 540,-886 546,-880 552,-880 552,-880 672,-880 672,-880 678,-880 684,-886 684,-892 684,-892 684,-940 684,-940 684,-946 678,-952 672,-952"/>
<text xml:space="preserve" text-anchor="middle" x="612" y="-908.27" font-family="Tsukushi A Round Gothic Bold" font-size="18.00">倦怠感</text>
</g>
<!-- fatigue&#45;&gt;adl -->
<g id="edge20" class="edge">
<title>fatigue&#45;&gt;adl</title>
<path fill="none" stroke="#7f7f7f" stroke-width="1.4" d="M684.13,-932.67C684.13,-932.67 1422.41,-932.67 1422.41,-932.67"/>
<polygon fill="#7f7f7f" stroke="#7f7f7f" stroke-width="1.4" points="1422.41,-937.92 1437.41,-932.67 1422.41,-927.42 1422.41,-937.92"/>
</g>
<!-- renal_hypoperfusion -->
<g id="node15" class="node">
<title>renal_hypoperfusion</title>
<path fill="none" stroke="black" d="M312,-835C312,-835 192,-835 192,-835 186,-835 180,-829 180,-823 180,-823 180,-775 180,-775 180,-769 186,-763 192,-763 192,-763 312,-763 312,-763 318,-763 324,-769 324,-775 324,-775 324,-823 324,-823 324,-829 318,-835 312,-835"/>
<text xml:space="preserve" text-anchor="middle" x="252" y="-791.27" font-family="Tsukushi A Round Gothic Bold" font-size="18.00">腎低灌流</text>
</g>
<!-- renal_hypoperfusion&#45;&gt;oliguria -->
<g id="edge36" class="edge">
<title>renal_hypoperfusion&#45;&gt;oliguria</title>
<path fill="none" stroke="#7f7f7f" stroke-width="1.4" d="M276,-762.51C276,-745.31 276,-728.5 276,-728.5 276,-728.5 342.82,-728.5 342.82,-728.5"/>
<polygon fill="#7f7f7f" stroke="#7f7f7f" stroke-width="1.4" points="342.82,-733.75 357.82,-728.5 342.82,-723.25 342.82,-733.75"/>
</g>
<!-- fluid_retention -->
<g id="node26" class="node">
<title>fluid_retention</title>
<path fill="none" stroke="black" d="M852,-816C852,-816 732,-816 732,-816 726,-816 720,-810 720,-804 720,-804 720,-756 720,-756 720,-750 726,-744 732,-744 732,-744 852,-744 852,-744 858,-744 864,-750 864,-756 864,-756 864,-804 864,-804 864,-810 858,-816 852,-816"/>
<text xml:space="preserve" text-anchor="middle" x="792" y="-772.27" font-family="Tsukushi A Round Gothic Bold" font-size="18.00">体液貯留</text>
</g>
<!-- renal_hypoperfusion&#45;&gt;fluid_retention -->
<g id="edge37" class="edge">
<title>renal_hypoperfusion&#45;&gt;fluid_retention</title>
<path fill="none" stroke="#7f7f7f" stroke-width="1.4" d="M324.27,-789.5C324.27,-789.5 702.61,-789.5 702.61,-789.5"/>
<polygon fill="#7f7f7f" stroke="#7f7f7f" stroke-width="1.4" points="702.61,-794.75 717.61,-789.5 702.61,-784.25 702.61,-794.75"/>
</g>
<!-- hepatomegaly -->
<g id="node16" class="node">
<title>hepatomegaly</title>
<path fill="none" stroke="black" d="M1212,-750C1212,-750 1092,-750 1092,-750 1086,-750 1080,-744 1080,-738 1080,-738 1080,-690 1080,-690 1080,-684 1086,-678 1092,-678 1092,-678 1212,-678 1212,-678 1218,-678 1224,-684 1224,-690 1224,-690 1224,-738 1224,-738 1224,-744 1218,-750 1212,-750"/>
<text xml:space="preserve" text-anchor="middle" x="1152" y="-706.27" font-family="Tsukushi A Round Gothic Bold" font-size="18.00">肝腫大</text>
</g>
<!-- left_hf -->
<g id="node17" class="node">
<title>left_hf</title>
<path fill="none" stroke="black" d="M672,-730C672,-730 552,-730 552,-730 546,-730 540,-724 540,-718 540,-718 540,-670 540,-670 540,-664 546,-658 552,-658 552,-658 672,-658 672,-658 678,-658 684,-664 684,-670 684,-670 684,-718 684,-718 684,-724 678,-730 672,-730"/>
<text xml:space="preserve" text-anchor="middle" x="612" y="-686.27" font-family="Tsukushi A Round Gothic Bold" font-size="18.00">左心不全</text>
</g>
<!-- jugular_distension -->
<g id="node18" class="node">
<title>jugular_distension</title>
<path fill="none" stroke="black" d="M1212,-865C1212,-865 1092,-865 1092,-865 1086,-865 1080,-859 1080,-853 1080,-853 1080,-805 1080,-805 1080,-799 1086,-793 1092,-793 1092,-793 1212,-793 1212,-793 1218,-793 1224,-799 1224,-805 1224,-805 1224,-853 1224,-853 1224,-859 1218,-865 1212,-865"/>
<text xml:space="preserve" text-anchor="middle" x="1152" y="-821.27" font-family="Tsukushi A Round Gothic Bold" font-size="18.00">頸静脈怒張</text>
</g>
<!-- cardiac_output↓ -->
<g id="node19" class="node">
<title>cardiac_output↓</title>
<path fill="none" stroke="black" d="M132,-713C132,-713 12,-713 12,-713 6,-713 0,-707 0,-701 0,-701 0,-653 0,-653 0,-647 6,-641 12,-641 12,-641 132,-641 132,-641 138,-641 144,-647 144,-653 144,-653 144,-701 144,-701 144,-707 138,-713 132,-713"/>
<text xml:space="preserve" text-anchor="middle" x="72" y="-669.27" font-family="Tsukushi A Round Gothic Bold" font-size="18.00">心拍出量低下</text>
</g>
<!-- cardiac_output↓&#45;&gt;shock_cardiogenic -->
<g id="edge8" class="edge">
<title>cardiac_output↓&#45;&gt;shock_cardiogenic</title>
<path fill="none" stroke="#7f7f7f" stroke-width="1.4" d="M108,-640.78C108,-556.23 108,-353 108,-353 108,-353 162.46,-353 162.46,-353"/>
<polygon fill="#7f7f7f" stroke="#7f7f7f" stroke-width="1.4" points="162.46,-358.25 177.46,-353 162.46,-347.75 162.46,-358.25"/>
</g>
<!-- cardiac_output↓&#45;&gt;consciousness -->
<g id="edge5" class="edge">
<title>cardiac_output↓&#45;&gt;consciousness</title>
<path fill="none" stroke="#7f7f7f" stroke-width="1.4" d="M36,-640.63C36,-530.55 36,-208.5 36,-208.5 36,-208.5 1062.52,-208.5 1062.52,-208.5"/>
<polygon fill="#7f7f7f" stroke="#7f7f7f" stroke-width="1.4" points="1062.52,-213.75 1077.52,-208.5 1062.52,-203.25 1062.52,-213.75"/>
</g>
<!-- cardiac_output↓&#45;&gt;hypotension -->
<g id="edge2" class="edge">
<title>cardiac_output↓&#45;&gt;hypotension</title>
<path fill="none" stroke="#7f7f7f" stroke-width="1.4" d="M72,-640.76C72,-537.99 72,-252 72,-252 72,-252 342.46,-252 342.46,-252"/>
<polygon fill="#7f7f7f" stroke="#7f7f7f" stroke-width="1.4" points="342.46,-257.25 357.46,-252 342.46,-246.75 342.46,-257.25"/>
</g>
<!-- cardiac_output↓&#45;&gt;exercise_intolerance -->
<g id="edge9" class="edge">
<title>cardiac_output↓&#45;&gt;exercise_intolerance</title>
<path fill="none" stroke="#7f7f7f" stroke-width="1.4" d="M36,-713.31C36,-820.8 36,-1130 36,-1130 36,-1130 522.51,-1130 522.51,-1130"/>
<polygon fill="#7f7f7f" stroke="#7f7f7f" stroke-width="1.4" points="522.51,-1135.25 537.51,-1130 522.51,-1124.75 522.51,-1135.25"/>
</g>
<!-- cardiac_output↓&#45;&gt;pulmonary_congestion -->
<g id="edge7" class="edge">
<title>cardiac_output↓&#45;&gt;pulmonary_congestion</title>
<path fill="none" stroke="#7f7f7f" stroke-width="1.4" d="M72,-713.27C72,-799.58 72,-1010 72,-1010 72,-1010 162.45,-1010 162.45,-1010"/>
<polygon fill="#7f7f7f" stroke="#7f7f7f" stroke-width="1.4" points="162.45,-1015.25 177.45,-1010 162.45,-1004.75 162.45,-1015.25"/>
</g>
<!-- cardiac_output↓&#45;&gt;fatigue -->
<g id="edge6" class="edge">
<title>cardiac_output↓&#45;&gt;fatigue</title>
<path fill="none" stroke="#7f7f7f" stroke-width="1.4" d="M108,-713.3C108,-780.16 108,-916 108,-916 108,-916 522.4,-916 522.4,-916"/>
<polygon fill="#7f7f7f" stroke="#7f7f7f" stroke-width="1.4" points="522.4,-921.25 537.4,-916 522.4,-910.75 522.4,-921.25"/>
</g>
<!-- cardiac_output↓&#45;&gt;renal_hypoperfusion -->
<g id="edge10" class="edge">
<title>cardiac_output↓&#45;&gt;renal_hypoperfusion</title>
<path fill="none" stroke="#7f7f7f" stroke-width="1.4" d="M144.06,-692.5C184.94,-692.5 228,-692.5 228,-692.5 228,-692.5 228,-745.53 228,-745.53"/>
<polygon fill="#7f7f7f" stroke="#7f7f7f" stroke-width="1.4" points="222.75,-745.53 228,-760.53 233.25,-745.53 222.75,-745.53"/>
</g>
<!-- cardiac_output↓&#45;&gt;hf -->
<g id="edge3" class="edge">
<title>cardiac_output↓&#45;&gt;hf</title>
<path fill="none" stroke="#7f7f7f" stroke-width="1.4" d="M144.42,-649.5C249.54,-649.5 432,-649.5 432,-649.5 432,-649.5 432,-646.54 432,-646.54"/>
<polygon fill="#7f7f7f" stroke="#7f7f7f" stroke-width="1.4" points="437.25,-646.54 432,-631.54 426.75,-646.54 437.25,-646.54"/>
</g>
<!-- cardiac_output↓&#45;&gt;renal_flow -->
<g id="edge4" class="edge">
<title>cardiac_output↓&#45;&gt;renal_flow</title>
<path fill="none" stroke="#7f7f7f" stroke-width="1.4" d="M144.29,-653.75C296.48,-653.75 636,-653.75 636,-653.75 636,-653.75 636,-507.29 636,-507.29"/>
<polygon fill="#7f7f7f" stroke="#7f7f7f" stroke-width="1.4" points="641.25,-507.29 636,-492.29 630.75,-507.29 641.25,-507.29"/>
</g>
<!-- edema&#45;&gt;adl -->
<g id="edge16" class="edge">
<title>edema&#45;&gt;adl</title>
<path fill="none" stroke="#7f7f7f" stroke-width="1.4" d="M1224.42,-599C1329.54,-599 1512,-599 1512,-599 1512,-599 1512,-876.51 1512,-876.51"/>
<polygon fill="#7f7f7f" stroke="#7f7f7f" stroke-width="1.4" points="1506.75,-876.51 1512,-891.51 1517.25,-876.51 1506.75,-876.51"/>
</g>
<!-- delirium&#45;&gt;adl -->
<g id="edge12" class="edge">
<title>delirium&#45;&gt;adl</title>
<path fill="none" stroke="#7f7f7f" stroke-width="1.4" d="M1332,-374.43C1332,-500.9 1332,-913.33 1332,-913.33 1332,-913.33 1422.45,-913.33 1422.45,-913.33"/>
<polygon fill="#7f7f7f" stroke="#7f7f7f" stroke-width="1.4" points="1422.45,-918.58 1437.45,-913.33 1422.45,-908.08 1422.45,-918.58"/>
</g>
<!-- hf&#45;&gt;left_hf -->
<g id="edge25" class="edge">
<title>hf&#45;&gt;left_hf</title>
<path fill="none" stroke="#7f7f7f" stroke-width="1.4" d="M468,-629.42C468,-647.28 468,-665 468,-665 468,-665 522.46,-665 522.46,-665"/>
<polygon fill="#7f7f7f" stroke="#7f7f7f" stroke-width="1.4" points="522.46,-670.25 537.46,-665 522.46,-659.75 522.46,-670.25"/>
</g>
<!-- hf&#45;&gt;cardiac_output↓ -->
<g id="edge23" class="edge">
<title>hf&#45;&gt;cardiac_output↓</title>
<path fill="none" stroke="#7f7f7f" stroke-width="1.4" d="M396,-629.29C396,-638.21 396,-645.25 396,-645.25 396,-645.25 161.43,-645.25 161.43,-645.25"/>
<polygon fill="#7f7f7f" stroke="#7f7f7f" stroke-width="1.4" points="161.43,-640 146.43,-645.25 161.43,-650.5 161.43,-640"/>
</g>
<!-- hf&#45;&gt;renal_flow -->
<g id="edge22" class="edge">
<title>hf&#45;&gt;renal_flow</title>
<path fill="none" stroke="#7f7f7f" stroke-width="1.4" d="M504.06,-566.5C544.94,-566.5 588,-566.5 588,-566.5 588,-566.5 588,-507.33 588,-507.33"/>
<polygon fill="#7f7f7f" stroke="#7f7f7f" stroke-width="1.4" points="593.25,-507.33 588,-492.33 582.75,-507.33 593.25,-507.33"/>
</g>
<!-- right_hf -->
<g id="node25" class="node">
<title>right_hf</title>
<path fill="none" stroke="black" d="M852,-677C852,-677 732,-677 732,-677 726,-677 720,-671 720,-665 720,-665 720,-617 720,-617 720,-611 726,-605 732,-605 732,-605 852,-605 852,-605 858,-605 864,-611 864,-617 864,-617 864,-665 864,-665 864,-671 858,-677 852,-677"/>
<text xml:space="preserve" text-anchor="middle" x="792" y="-633.27" font-family="Tsukushi A Round Gothic Bold" font-size="18.00">右心不全</text>
</g>
<!-- hf&#45;&gt;right_hf -->
<g id="edge24" class="edge">
<title>hf&#45;&gt;right_hf</title>
<path fill="none" stroke="#7f7f7f" stroke-width="1.4" d="M504.42,-617C504.42,-617 702.58,-617 702.58,-617"/>
<polygon fill="#7f7f7f" stroke="#7f7f7f" stroke-width="1.4" points="702.58,-622.25 717.58,-617 702.58,-611.75 702.58,-622.25"/>
</g>
<!-- renal_flow&#45;&gt;renal_failure -->
<g id="edge34" class="edge">
<title>renal_flow&#45;&gt;renal_failure</title>
<path fill="none" stroke="#7f7f7f" stroke-width="1.4" d="M684.43,-446.5C684.43,-446.5 702.59,-446.5 702.59,-446.5"/>
<polygon fill="#7f7f7f" stroke="#7f7f7f" stroke-width="1.4" points="702.59,-451.75 717.59,-446.5 702.59,-441.25 702.59,-451.75"/>
</g>
<!-- renal_flow&#45;&gt;urine -->
<g id="edge35" class="edge">
<title>renal_flow&#45;&gt;urine</title>
<path fill="none" stroke="#7f7f7f" stroke-width="1.4" d="M684.42,-482.5C789.54,-482.5 972,-482.5 972,-482.5 972,-482.5 972,-486.47 972,-486.47"/>
<polygon fill="#7f7f7f" stroke="#7f7f7f" stroke-width="1.4" points="966.75,-486.47 972,-501.47 977.25,-486.47 966.75,-486.47"/>
</g>
<!-- dyspnea&#45;&gt;exercise_intolerance -->
<g id="edge15" class="edge">
<title>dyspnea&#45;&gt;exercise_intolerance</title>
<path fill="none" stroke="#7f7f7f" stroke-width="1.4" d="M432,-1048.34C432,-1074.79 432,-1106 432,-1106 432,-1106 522.45,-1106 522.45,-1106"/>
<polygon fill="#7f7f7f" stroke="#7f7f7f" stroke-width="1.4" points="522.45,-1111.25 537.45,-1106 522.45,-1100.75 522.45,-1111.25"/>
</g>
<!-- dyspnea&#45;&gt;adl -->
<g id="edge13" class="edge">
<title>dyspnea&#45;&gt;adl</title>
<path fill="none" stroke="#7f7f7f" stroke-width="1.4" d="M432,-975.71C432,-965.28 432,-956.67 432,-956.67 432,-956.67 1422.76,-956.67 1422.76,-956.67"/>
<polygon fill="#7f7f7f" stroke="#7f7f7f" stroke-width="1.4" points="1422.76,-961.92 1437.76,-956.67 1422.76,-951.42 1422.76,-961.92"/>
</g>
<!-- dyspnea&#45;&gt;fatigue -->
<g id="edge14" class="edge">
<title>dyspnea&#45;&gt;fatigue</title>
<path fill="none" stroke="#7f7f7f" stroke-width="1.4" d="M504.06,-1012C544.94,-1012 588,-1012 588,-1012 588,-1012 588,-969.41 588,-969.41"/>
<polygon fill="#7f7f7f" stroke="#7f7f7f" stroke-width="1.4" points="593.25,-969.41 588,-954.41 582.75,-969.41 593.25,-969.41"/>
</g>
<!-- right_hf&#45;&gt;edema -->
<g id="edge38" class="edge">
<title>right_hf&#45;&gt;edema</title>
<path fill="none" stroke="#7f7f7f" stroke-width="1.4" d="M864.42,-612.5C864.42,-612.5 1062.58,-612.5 1062.58,-612.5"/>
<polygon fill="#7f7f7f" stroke="#7f7f7f" stroke-width="1.4" points="1062.58,-617.75 1077.58,-612.5 1062.58,-607.25 1062.58,-617.75"/>
</g>
<!-- systemic_congestion -->
<g id="node27" class="node">
<title>systemic_congestion</title>
<path fill="none" stroke="black" d="M1032,-865C1032,-865 912,-865 912,-865 906,-865 900,-859 900,-853 900,-853 900,-805 900,-805 900,-799 906,-793 912,-793 912,-793 1032,-793 1032,-793 1038,-793 1044,-799 1044,-805 1044,-805 1044,-853 1044,-853 1044,-859 1038,-865 1032,-865"/>
<text xml:space="preserve" text-anchor="middle" x="972" y="-821.27" font-family="Tsukushi A Round Gothic Bold" font-size="18.00">全身うっ血</text>
</g>
<!-- right_hf&#45;&gt;systemic_congestion -->
<g id="edge39" class="edge">
<title>right_hf&#45;&gt;systemic_congestion</title>
<path fill="none" stroke="#7f7f7f" stroke-width="1.4" d="M864.42,-656C900.28,-656 936,-656 936,-656 936,-656 936,-775.61 936,-775.61"/>
<polygon fill="#7f7f7f" stroke="#7f7f7f" stroke-width="1.4" points="930.75,-775.61 936,-790.61 941.25,-775.61 930.75,-775.61"/>
</g>
<!-- fluid_retention&#45;&gt;edema -->
<g id="edge21" class="edge">
<title>fluid_retention&#45;&gt;edema</title>
<path fill="none" stroke="#7f7f7f" stroke-width="1.4" d="M864.22,-771.5C874.68,-771.5 882,-771.5 882,-771.5 882,-771.5 882,-620 882,-620 882,-620 1062.53,-620 1062.53,-620"/>
<polygon fill="#7f7f7f" stroke="#7f7f7f" stroke-width="1.4" points="1062.53,-625.25 1077.53,-620 1062.53,-614.75 1062.53,-625.25"/>
</g>
<!-- systemic_congestion&#45;&gt;hepatomegaly -->
<g id="edge43" class="edge">
<title>systemic_congestion&#45;&gt;hepatomegaly</title>
<path fill="none" stroke="#7f7f7f" stroke-width="1.4" d="M1008,-792.64C1008,-766.92 1008,-737 1008,-737 1008,-737 1062.46,-737 1062.46,-737"/>
<polygon fill="#7f7f7f" stroke="#7f7f7f" stroke-width="1.4" points="1062.46,-742.25 1077.46,-737 1062.46,-731.75 1062.46,-742.25"/>
</g>
<!-- systemic_congestion&#45;&gt;jugular_distension -->
<g id="edge42" class="edge">
<title>systemic_congestion&#45;&gt;jugular_distension</title>
<path fill="none" stroke="#7f7f7f" stroke-width="1.4" d="M1044.43,-829C1044.43,-829 1062.59,-829 1062.59,-829"/>
<polygon fill="#7f7f7f" stroke="#7f7f7f" stroke-width="1.4" points="1062.59,-834.25 1077.59,-829 1062.59,-823.75 1062.59,-834.25"/>
</g>
<!-- systemic_congestion&#45;&gt;edema -->
<g id="edge41" class="edge">
<title>systemic_congestion&#45;&gt;edema</title>
<path fill="none" stroke="#7f7f7f" stroke-width="1.4" d="M972,-792.51C972,-734.44 972,-627.5 972,-627.5 972,-627.5 1062.45,-627.5 1062.45,-627.5"/>
<polygon fill="#7f7f7f" stroke="#7f7f7f" stroke-width="1.4" points="1062.45,-632.75 1077.45,-627.5 1062.45,-622.25 1062.45,-632.75"/>
</g>
</g>
</svg>
